<?xml version="1.0" standalone="no"?>
<!DOCTYPE svg PUBLIC "-//W3C//DTD SVG 20010904//EN"
 "http://www.w3.org/TR/2001/REC-SVG-20010904/DTD/svg10.dtd">
<svg version="1.0" xmlns="http://www.w3.org/2000/svg"
 width="678.000000pt" height="1280.000000pt" viewBox="0 0 678.000000 1280.000000"
 preserveAspectRatio="xMidYMid meet">
<metadata>
Created by potrace 1.15, written by Peter Selinger 2001-2017
</metadata>
<g transform="translate(0.000000,1280.000000) scale(0.100000,-0.100000)"
fill="#9e9e9e" stroke="none">
<path d="M2560 12405 l0 -394 -72 -21 c-855 -247 -1442 -627 -1804 -1167 -74
-110 -188 -335 -235 -463 -45 -125 -95 -329 -119 -486 -27 -175 -37 -511 -21
-680 56 -605 283 -1088 716 -1519 354 -353 808 -635 1410 -875 l120 -48 3
-2370 2 -2369 -132 24 c-471 85 -850 234 -1143 450 -111 82 -419 389 -503 501
-128 172 -180 328 -138 411 28 52 53 56 195 25 100 -21 138 -25 194 -19 322
31 600 292 663 622 18 98 18 292 -1 384 -30 142 -91 259 -193 369 -191 208
-440 308 -693 280 -112 -13 -184 -32 -264 -72 -181 -91 -329 -255 -440 -491
-102 -216 -129 -469 -80 -767 66 -406 270 -809 604 -1194 383 -441 999 -751
1811 -909 l115 -23 3 -802 2 -802 180 0 180 0 0 779 0 779 308 5 c296 5 450
17 669 52 51 8 102 15 113 15 20 0 20 -5 20 -815 l0 -815 180 0 180 0 2 865 3
866 191 64 c568 189 962 422 1320 779 243 243 418 491 579 821 268 548 350
1088 259 1715 -69 477 -273 939 -589 1332 -152 190 -387 414 -620 590 -263
198 -684 438 -1050 595 l-90 39 -3 1993 c-2 1895 -1 1992 15 1987 10 -3 61
-12 113 -21 148 -24 408 -91 546 -140 219 -78 379 -167 561 -313 160 -129 243
-231 243 -298 0 -45 -79 -112 -211 -178 -161 -82 -237 -135 -317 -221 -77 -82
-139 -194 -169 -305 -26 -94 -26 -386 0 -485 25 -93 95 -237 151 -307 56 -70
158 -156 235 -196 197 -106 464 -102 671 9 214 116 359 303 422 544 20 79 23
113 23 285 0 168 -3 209 -23 300 -78 348 -255 659 -539 945 -362 366 -873 606
-1553 731 -80 14 -151 28 -157 30 -10 3 -13 89 -13 389 l0 385 -180 0 -180 0
0 -370 c0 -346 -1 -370 -17 -370 -10 0 -108 7 -218 15 -254 18 -454 18 -675 0
-96 -8 -181 -15 -187 -15 -10 0 -13 81 -13 370 l0 370 -180 0 -180 0 0 -395z
m1225 -726 c121 -6 226 -13 233 -15 9 -3 12 -394 12 -1914 l0 -1911 -22 6
c-162 49 -842 300 -1013 373 l-70 30 -3 1701 c-2 1340 1 1701 10 1701 7 0 103
9 213 20 240 24 304 28 370 24 28 -2 149 -8 270 -15z m-1229 -3246 c-6 -6
-180 73 -326 148 -283 145 -469 276 -655 463 -234 235 -353 458 -400 751 -48
294 23 671 175 926 216 363 589 631 1150 825 l55 19 3 -1564 c1 -860 0 -1566
-2 -1568z m974 -2145 l495 -214 0 -2014 0 -2015 -60 -7 c-477 -60 -768 -79
-958 -63 l-87 7 0 2283 0 2284 58 -24 c31 -13 280 -120 552 -237z m1195 -527
c596 -307 963 -694 1124 -1188 56 -169 73 -277 78 -499 7 -261 -22 -472 -94
-678 -188 -539 -645 -947 -1350 -1202 l-93 -34 0 1880 0 1879 83 -35 c45 -19
159 -75 252 -123z"/>
</g>
</svg>
