<svg height="512" viewBox="0 -45 517.33333 517" width="512" xmlns="http://www.w3.org/2000/svg"><g fill="#fff"><path d="m240 384.167969h-21.332031v-341.335938h128v21.335938c0 11.796875 9.535156 21.332031 21.332031 21.332031s21.332031-9.535156 21.332031-21.332031v-42.667969c0-11.796875-9.535156-21.332031-21.332031-21.332031h-346.667969c-11.796875 0-21.332031 9.535156-21.332031 21.332031v42.667969c0 11.796875 9.535156 21.332031 21.332031 21.332031s21.335938-9.535156 21.335938-21.332031v-21.335938h133.332031v341.335938h-21.332031c-11.796875 0-21.335938 9.535156-21.335938 21.332031s9.539063 21.332031 21.335938 21.332031h85.332031c11.796875 0 21.332031-9.535156 21.332031-21.332031s-9.535156-21.332031-21.332031-21.332031zm0 0"/><path d="m496 192.167969h-170.667969c-11.796875 0-21.332031 9.535156-21.332031 21.332031v37.332031c0 11.796875 9.535156 21.335938 21.332031 21.335938s21.335938-9.539063 21.335938-21.335938v-16h42.664062v149.335938h-10.664062c-11.796875 0-21.335938 9.535156-21.335938 21.332031s9.539063 21.332031 21.335938 21.332031h64c11.796875 0 21.332031-9.535156 21.332031-21.332031s-9.535156-21.332031-21.332031-21.332031h-10.667969v-149.335938h42.667969v10.667969c0 11.796875 9.535156 21.332031 21.332031 21.332031s21.332031-9.535156 21.332031-21.332031v-32c0-11.796875-9.535156-21.332031-21.332031-21.332031zm0 0"/></g></svg>