<svg height="512" viewBox="0 -21 511.95733 511" width="512" xmlns="http://www.w3.org/2000/svg"><g fill="#fff"><path d="m506.675781 261.882812c7.042969-16.984374 7.042969-36.460937 0-53.460937-41.621093-100.398437-140.03125-165.269531-250.707031-165.269531-46.484375 0-90.796875 11.453125-129.644531 32.191406l-68.605469-68.609375c-8.34375-8.339844-21.824219-8.339844-30.167969 0-8.339843 8.339844-8.339843 21.824219 0 30.164063l271.488281 271.488281 86.484376 86.488281 68.675781 68.671875c4.179687 4.179687 9.640625 6.269531 15.101562 6.269531 5.460938 0 10.921875-2.089844 15.082031-6.25 8.34375-8.339844 8.34375-21.824218 0-30.164062l-62.144531-62.144532c36.632813-27.882812 66.09375-65.109374 84.4375-109.375zm-293.90625-100.097656c12.648438-7.574218 27.390625-11.96875 43.199219-11.96875 47.0625 0 85.332031 38.273438 85.332031 85.335938 0 15.804687-4.394531 30.546875-11.96875 43.199218zm0 0"/><path d="m255.96875 320.484375c-47.0625 0-85.335938-38.273437-85.335938-85.332031 0-3.09375.597657-6.019532.917969-9.003906l-106.152343-106.15625c-25.34375 24.707031-46.058594 54.464843-60.117188 88.429687-7.042969 16.980469-7.042969 36.457031 0 53.460937 41.597656 100.394532 140.007812 165.269532 250.6875 165.269532 34.496094 0 67.796875-6.316406 98.558594-18.027344l-89.558594-89.558594c-2.984375.320313-5.90625.917969-9 .917969zm0 0"/></g></svg>