<svg enable-background="new 0 0 24 24" height="512" viewBox="0 0 24 24" width="512" xmlns="http://www.w3.org/2000/svg"><g fill="#fff"><path d="m23.25 2h-9.5c-.414 0-.75.336-.75.75s.336.75.75.75h9.5c.414 0 .75-.336.75-.75s-.336-.75-.75-.75z"/><path d="m23.25 5h-9.5c-.414 0-.75.336-.75.75s.336.75.75.75h9.5c.414 0 .75-.336.75-.75s-.336-.75-.75-.75z"/><path d="m23.25 8h-9.5c-.414 0-.75.336-.75.75s.336.75.75.75h9.5c.414 0 .75-.336.75-.75s-.336-.75-.75-.75z"/><path d="m23.25 15h-9.5c-.414 0-.75.336-.75.75s.336.75.75.75h9.5c.414 0 .75-.336.75-.75s-.336-.75-.75-.75z"/><path d="m23.25 18h-9.5c-.414 0-.75.336-.75.75s.336.75.75.75h9.5c.414 0 .75-.336.75-.75s-.336-.75-.75-.75z"/><path d="m23.25 21h-9.5c-.414 0-.75.336-.75.75s.336.75.75.75h9.5c.414 0 .75-.336.75-.75s-.336-.75-.75-.75z"/><path d="m1.75 11h7.5c.96 0 1.75-.79 1.75-1.75v-7.5c0-.96-.79-1.75-1.75-1.75h-7.5c-.96 0-1.75.79-1.75 1.75v7.5c0 .96.79 1.75 1.75 1.75zm1.25-3.75v-3.5c0-.26.13-.5.36-.64.22-.13.49-.15.72-.03l3.5 1.75c.26.13.42.39.42.67s-.16.54-.42.67l-3.5 1.75c-.1.05-.22.08-.33.08-.14 0-.27-.04-.39-.11-.23-.14-.36-.38-.36-.64z"/><path d="m1.75 24h7.5c.96 0 1.75-.79 1.75-1.75v-7.5c0-.96-.79-1.75-1.75-1.75h-7.5c-.96 0-1.75.79-1.75 1.75v7.5c0 .96.79 1.75 1.75 1.75zm1.25-3.75v-3.5c0-.26.13-.5.36-.64.22-.13.49-.15.72-.03l3.5 1.75c.26.13.42.39.42.67s-.16.54-.42.67l-3.5 1.75c-.1.05-.22.08-.33.08-.14 0-.27-.04-.39-.11-.23-.14-.36-.38-.36-.64z"/></g></svg>