<svg height="512" viewBox="0 -42 426.66667 426" width="512" xmlns="http://www.w3.org/2000/svg"><g fill="#fff"><path d="m298.667969.332031h-21.335938c-11.796875 0-21.332031 9.558594-21.332031 21.335938 0 11.773437 9.535156 21.332031 21.332031 21.332031h21.335938c47.058593 0 85.332031 38.273438 85.332031 85.332031v43.757813c-3.457031-.707032-7.019531-1.089844-10.667969-1.089844h-64c-29.417969 0-53.332031 23.9375-53.332031 53.332031v64c0 29.398438 23.914062 53.335938 53.332031 53.335938h64c29.421875 0 53.335938-23.9375 53.335938-53.335938v-160c0-70.589843-57.410157-128-128-128zm0 0"/><path d="m42.667969.332031h-21.335938c-11.796875 0-21.332031 9.558594-21.332031 21.335938 0 11.773437 9.535156 21.332031 21.332031 21.332031h21.335938c47.058593 0 85.332031 38.273438 85.332031 85.332031v43.757813c-3.457031-.707032-7.019531-1.089844-10.667969-1.089844h-64c-29.417969 0-53.332031 23.9375-53.332031 53.332031v64c0 29.398438 23.914062 53.335938 53.332031 53.335938h64c29.421875 0 53.335938-23.9375 53.335938-53.335938v-160c0-70.589843-57.410157-128-128-128zm0 0"/></g></svg>