<svg height="512" viewBox="0 -43 512.00533 512" width="512" xmlns="http://www.w3.org/2000/svg"><g fill="#fff"><path d="m505.75 390.253906-81.535156-81.535156c14.910156-20.929688 23.785156-46.445312 23.785156-74.050781 0-70.589844-57.40625-128-128-128s-128 57.410156-128 128c0 70.59375 57.40625 128 128 128 27.605469 0 53.121094-8.875 74.046875-23.785157l81.539063 81.535157c4.15625 4.160156 9.621093 6.25 15.082031 6.25 5.460937 0 10.921875-2.089844 15.082031-6.25 8.339844-8.339844 8.339844-21.824219 0-30.164063zm0 0"/><path d="m21.332031 42.667969h346.667969c11.777344 0 21.332031-9.554688 21.332031-21.332031 0-11.777344-9.554687-21.33203175-21.332031-21.33203175h-346.667969c-11.773437 0-21.332031 9.55468775-21.332031 21.33203175 0 11.777343 9.558594 21.332031 21.332031 21.332031zm0 0"/><path d="m21.332031 149.335938h154.667969c11.777344 0 21.332031-9.558594 21.332031-21.332032 0-11.777344-9.554687-21.335937-21.332031-21.335937h-154.667969c-11.773437 0-21.332031 9.558593-21.332031 21.335937 0 11.773438 9.558594 21.332032 21.332031 21.332032zm0 0"/><path d="m176 320.003906h-154.667969c-11.773437 0-21.332031 9.554688-21.332031 21.332032 0 11.777343 9.558594 21.332031 21.332031 21.332031h154.667969c11.777344 0 21.332031-9.554688 21.332031-21.332031 0-11.777344-9.554687-21.332032-21.332031-21.332032zm0 0"/><path d="m21.332031 256.003906h112c11.777344 0 21.335938-9.558594 21.335938-21.335937 0-11.773438-9.558594-21.332031-21.335938-21.332031h-112c-11.773437 0-21.332031 9.558593-21.332031 21.332031 0 11.777343 9.558594 21.335937 21.332031 21.335937zm0 0"/></g></svg>