<svg height="512" viewBox="0 -43 512.01067 512" width="512" xmlns="http://www.w3.org/2000/svg"><g fill="#fff"><path d="m309.167969.675781c-11.414063-2.941406-23.019531 4.074219-25.855469 15.53125l-96 384c-2.878906 11.414063 4.074219 22.996094 15.53125 25.855469 1.726562.425781 3.476562.640625 5.183594.640625 9.558594 0 18.238281-6.464844 20.671875-16.171875l96-384c2.859375-11.410156-4.097657-22.996094-15.53125-25.855469zm0 0"/><path d="m164.421875 70.289062c-8.34375-8.34375-21.824219-8.34375-30.164063 0l-128 128c-8.34375 8.339844-8.34375 21.824219 0 30.164063l128 128c4.15625 4.160156 9.621094 6.25 15.082032 6.25 5.460937 0 10.921875-2.089844 15.082031-6.25 8.339844-8.339844 8.339844-21.824219 0-30.164063l-112.917969-112.917968 112.917969-112.917969c8.339844-8.339844 8.339844-21.824219 0-30.164063zm0 0"/><path d="m505.753906 198.289062-128-128c-8.339844-8.34375-21.824218-8.34375-30.164062 0-8.34375 8.339844-8.34375 21.824219 0 30.164063l112.917968 112.917969-112.917968 112.917968c-8.34375 8.339844-8.34375 21.824219 0 30.164063 4.160156 4.160156 9.621094 6.25 15.082031 6.25s10.921875-2.089844 15.082031-6.25l128-128c8.34375-8.339844 8.34375-21.824219 0-30.164063zm0 0"/></g></svg>