<svg height="512" viewBox="0 0 512.00025 512" width="512" xmlns="http://www.w3.org/2000/svg"><g fill="#fff"><path d="m490.070312 21.929688c-29.222656-29.226563-76.816406-29.253907-106.066406 0l-50.265625 48.988281c-16.726562-7.984375-37.367187-5.054688-51.226562 8.789062-17.546875 17.546875-17.546875 46.082031 0 63.632813l84.859375 84.855468c17.550781 17.550782 46.101562 17.535157 63.632812 0 14.105469-14.105468 16.660156-34.871093 8.804688-51.222656l50.261718-48.988281c29.238282-29.238281 29.238282-76.816406 0-106.054687zm0 0"/><path d="m150 284.011719c0 9.257812-3.605469 17.960937-10.152344 24.507812l-66.664062 66.664063c-17.546875 17.550781-17.546875 46.085937 0 63.632812 17.597656 17.597656 46.050781 17.582032 63.632812 0l66.664063-66.664062c6.546875-6.546875 15.25-10.152344 24.507812-10.152344 17.285157 0 33.515625-6.722656 45.730469-18.941406l72.0625-72.058594h-193.703125c-.605469 3.886719-2.078125 8.84375-2.078125 13.011719zm0 0"/><path d="m0 407c0 57.890625 47.109375 105 105 105 57.488281 0 104.230469-46.488281 104.882812-103.824219l-51.855468 51.851563c-29.261719 29.261718-76.683594 29.371094-106.054688 0-29.253906-29.253906-29.339844-76.714844 0-106.054688l51.851563-51.855468c-57.335938.652343-103.824219 47.394531-103.824219 104.882812zm0 0"/><path d="m251.769531 152.871094-81.828125 81.828125c-1.925781 1.921875-3.480468 4.152343-5.132812 6.300781h172.945312l-76.449218-76.449219c-3.632813-3.632812-6.804688-7.550781-9.535157-11.679687zm0 0"/></g></svg>