<svg enable-background="new 0 0 24 24" height="512" viewBox="0 0 24 24" width="512" xmlns="http://www.w3.org/2000/svg"><g fill="#fff"><path d="m22.25 0h-2.5c-.965 0-1.75.785-1.75 1.75v20.5c0 .965.785 1.75 1.75 1.75h2.5c.965 0 1.75-.785 1.75-1.75v-20.5c0-.965-.785-1.75-1.75-1.75z"/><path d="m1.75 11h12.5c.96 0 1.75-.79 1.75-1.75v-7.5c0-.96-.79-1.75-1.75-1.75h-12.5c-.96 0-1.75.79-1.75 1.75v7.5c0 .96.79 1.75 1.75 1.75zm-.25-9.25c0-.14.11-.25.25-.25h12.5c.14 0 .25.11.25.25v2.35l-.91-.67c-.67-.5-1.57-.46-2.2.1l-3.25 2.9c-.09.08-.22.09-.32 0l-2.2-1.82c-.66-.54-1.61-.53-2.25.02l-1.87 1.6z"/><path d="m1.75 24h12.5c.96 0 1.75-.79 1.75-1.75v-7.5c0-.96-.79-1.75-1.75-1.75h-12.5c-.96 0-1.75.79-1.75 1.75v7.5c0 .96.79 1.75 1.75 1.75zm-.25-9.25c0-.14.11-.25.25-.25h12.5c.14 0 .25.11.25.25v2.35l-.91-.67c-.67-.5-1.57-.46-2.2.1l-3.25 2.9c-.09.08-.22.09-.32 0l-2.2-1.82c-.66-.54-1.61-.53-2.25.02l-1.87 1.6z"/></g></svg>