<svg enable-background="new 0 0 24 24" height="512" viewBox="0 0 24 24" width="512" xmlns="http://www.w3.org/2000/svg"><path d="m12 0c-6.62 0-12 5.38-12 12s5.38 12 12 12 12-5.38 12-12-5.38-12-12-12zm-7 9c0-1.1.9-2 2-2s2 .9 2 2-.9 2-2 2-2-.9-2-2zm12.707 8.921c-1.524 1.524-3.551 2.364-5.707 2.364s-4.183-.84-5.707-2.364c-.391-.391-.391-1.024 0-1.414.391-.391 1.023-.391 1.414 0 1.146 1.147 2.671 1.778 4.293 1.778s3.146-.631 4.293-1.778c.391-.391 1.023-.391 1.414 0 .391.39.391 1.024 0 1.414zm-.707-6.921c-1.1 0-2-.9-2-2s.9-2 2-2 2 .9 2 2-.9 2-2 2z" fill="#fff"/></svg>