<svg height="512" viewBox="0 0 469.33333 469.33333" width="512" xmlns="http://www.w3.org/2000/svg"><g fill="#fff"><path d="m354.496094 312.769531c-5.460938 0-10.921875-2.09375-15.082032-6.253906-8.34375-8.339844-8.34375-21.824219 0-30.164063l56.851563-56.851562c19.628906-19.4375 30.402344-45.421875 30.402344-73.21875 0-57.128906-46.488281-103.613281-103.617188-103.613281-27.777343 0-53.761719 10.773437-73.152343 30.335937l-56.917969 56.917969c-8.339844 8.339844-21.824219 8.339844-30.164063 0-8.339844-8.34375-8.339844-21.824219 0-30.167969l56.851563-56.851562c27.394531-27.648438 64.128906-42.902344 103.382812-42.902344 80.660157 0 146.28125 65.621094 146.28125 146.28125 0 39.277344-15.253906 76.011719-42.984375 103.46875l-56.789062 56.765625c-4.160156 4.160156-9.601563 6.253906-15.0625 6.253906zm0 0"/><path d="m146.28125 469.332031c-80.660156 0-146.28125-65.621093-146.28125-146.28125 0-39.273437 15.253906-76.011719 42.988281-103.464843l56.789063-56.769532c8.339844-8.339844 21.824218-8.339844 30.164062 0s8.339844 21.824219 0 30.164063l-56.851562 56.855469c-19.648438 19.433593-30.421875 45.417968-30.421875 73.214843 0 57.128907 46.484375 103.617188 103.613281 103.617188 27.777344 0 53.761719-10.773438 73.152344-30.335938l56.917968-56.917969c8.339844-8.34375 21.824219-8.34375 30.164063 0 8.34375 8.339844 8.34375 21.824219 0 30.164063l-56.851563 56.855469c-27.390624 27.644531-64.128906 42.898437-103.382812 42.898437zm0 0"/><path d="m149.332031 341.332031c-5.460937 0-10.921875-2.089843-15.082031-6.25-8.339844-8.339843-8.339844-21.824219 0-30.164062l170.667969-170.667969c8.339843-8.339844 21.824219-8.339844 30.164062 0 8.34375 8.34375 8.34375 21.824219 0 30.164062l-170.667969 170.667969c-4.15625 4.160157-9.621093 6.25-15.082031 6.25zm0 0"/></g></svg>