<svg height="512" viewBox="-42 0 426 426.66667" width="512" xmlns="http://www.w3.org/2000/svg"><path d="m320.332031 192h-149.332031c-47.0625 0-85.332031-33.492188-85.332031-74.667969 0-41.171875 38.269531-74.664062 85.332031-74.664062s85.332031 33.492187 85.332031 74.664062c0 11.796875 9.558594 21.335938 21.335938 21.335938 11.773437 0 21.332031-9.539063 21.332031-21.335938 0-64.679687-57.40625-117.332031-128-117.332031s-128 52.652344-128 117.332031c0 28.332031 11.03125 54.359375 29.332031 74.667969h-50.664062c-11.777344 0-21.335938 9.535156-21.335938 21.332031s9.558594 21.335938 21.335938 21.335938h149.332031c47.0625 0 85.332031 33.492187 85.332031 74.664062 0 41.175781-38.269531 74.667969-85.332031 74.667969s-85.332031-33.492188-85.332031-74.667969c0-11.796875-9.558594-21.332031-21.335938-21.332031-11.773437 0-21.332031 9.535156-21.332031 21.332031 0 64.683594 57.40625 117.335938 128 117.335938s128-52.652344 128-117.335938c0-28.328125-11.03125-54.355469-29.332031-74.664062h50.664062c11.777344 0 21.335938-9.539063 21.335938-21.335938s-9.558594-21.332031-21.335938-21.332031zm0 0" fill="#fff"/></svg>