<svg enable-background="new 0 0 512 512" viewBox="0 0 512 512" xmlns="http://www.w3.org/2000/svg"><path d="m512 256c0 141.44-114.72 256-256 256-141.44 0-256-114.56-256-256 0-141.28 114.56-256 256-256 141.28 0 256 114.72 256 256z" fill="#e24b4b"/><path d="m512 256c0 141.44-114.72 256-256 256-80.64 0-152.64-37.28-199.36-95.52 43.84 35.2 99.36 56.16 160 56.16 141.28 0 256-114.56 256-256 0-60.64-20.96-116.16-56.32-160 58.4 46.88 95.68 118.72 95.68 199.36z" fill="#d03f3f"/><g fill="#3e4347"><path d="m203.472 205.552c-3.232 0-6.288-1.568-8.16-4.224-17.712-24.992-41.888-40.928-76.112-50.112-5.328-1.44-8.496-6.928-7.056-12.256 1.44-5.344 6.896-8.464 12.256-7.056 33.072 8.896 58.832 24.144 78.288 46.48l14.032-21.696c2.976-4.64 9.2-5.968 13.808-2.976 4.64 3.008 5.968 9.184 2.976 13.824l-21.632 33.44c-1.792 2.784-4.864 4.496-8.176 4.576-.096 0-.176 0-.224 0z"/><ellipse cx="162.208" cy="250.544" rx="40.416" ry="45.952"/><path d="m308.528 205.552c-.08 0-.144 0-.224 0-3.312-.064-6.368-1.792-8.192-4.576l-21.616-33.44c-2.992-4.64-1.664-10.832 2.976-13.824 4.624-3.008 10.832-1.664 13.824 2.976l14 21.68c19.472-22.32 45.216-37.584 78.304-46.464 5.36-1.456 10.816 1.712 12.256 7.056 1.44 5.328-1.728 10.816-7.056 12.256-34.224 9.2-58.4 25.12-76.128 50.128-1.856 2.64-4.912 4.208-8.144 4.208z"/><ellipse cx="349.792" cy="250.544" rx="40.416" ry="45.952"/><path d="m329.616 401.424c-18.864-19.728-45.84-31.024-74.048-31.024s-55.184 11.312-74.048 31.024c-6.128 6.4-16.272 6.592-22.624.496-6.384-6.112-6.608-16.24-.496-22.624 24.88-26 60.288-40.896 97.168-40.896 36.896 0 72.304 14.912 97.168 40.896 6.112 6.384 5.888 16.512-.496 22.624-6.352 6.096-16.496 5.904-22.624-.496z"/></g><path d="m372.272 244.224c-3.456 1.392-7.856-1.504-9.936-6.496-1.952-5.008-.848-10.16 2.608-11.552 3.584-1.408 8 1.488 9.936 6.496 2.08 4.976.848 10.16-2.608 11.552z" fill="#5a5f63"/><path d="m183.024 244.224c-3.456 1.392-7.856-1.504-9.936-6.496-1.936-5.008-.848-10.16 2.624-11.552 3.584-1.408 8 1.488 9.936 6.496 2.064 4.976.832 10.16-2.624 11.552z" fill="#5a5f63"/></svg>