<svg enable-background="new 0 0 512 512" viewBox="0 0 512 512" xmlns="http://www.w3.org/2000/svg"><circle cx="256" cy="256" fill="#ffd93b" r="256"/><path d="m512 256c0 141.44-114.64 256-256 256-80.48 0-152.32-37.12-199.28-95.28 43.92 35.52 99.84 56.72 160.72 56.72 141.36 0 256-114.56 256-256 0-60.88-21.2-116.8-56.72-160.72 58.08 46.96 95.28 118.8 95.28 199.28z" fill="#f4c534"/><path d="m419.52 319.968c-25.6 65.36-89.12 111.6-163.52 111.6s-137.92-46.24-163.52-111.6c-3.44-8.72 3.36-18.16 12.8-18.16h301.44c9.44 0 16.24 9.44 12.8 18.16z" fill="#3e4347"/><path d="m384.16 323.808c-.88 7.04-5.44 13.84-12.48 15.84-71.68 20.464-150.32 20.64-222 0-7.024-2.016-11.6-8.8-12.48-15.84z" fill="#fff"/><path d="m319.2 419.808c-19.6 7.6-40.88 11.76-63.2 11.76-18.96 0-37.12-3.04-54.24-8.56 1.04-5.92 2.96-11.52 5.6-16.64 7.68-15.04 24.4-22.32 41.2-20.88 1.6.16 3.2.24 4.8.24 4.88 0 9.28-.64 13.36-1.68 17.2-4.72 35.92 3.12 45.28 18.32 3.28 5.36 5.76 11.2 7.2 17.44z" fill="#e24b4b"/><ellipse cx="332.337" cy="199.54" fill="#3e4347" rx="37.599" ry="37.599"/><ellipse cx="345.944" cy="185.146" fill="#5a5f63" rx="9.6" ry="6.368" transform="matrix(-.7071 -.7071 .7071 -.7071 459.6445 560.6836)"/><path d="m399.488 191.36c-27.28-55.2-40.24-43.92-98.32-63.28 8.64-4.64 18.88-7.12 29.52-7.12 30.64 0 64.08 20.64 68.8 70.4z" fill="#3e4347"/><ellipse cx="179.63" cy="199.54" fill="#3e4347" rx="37.599" ry="37.599"/><ellipse cx="166.046" cy="185.156" fill="#5a5f63" rx="6.368" ry="9.6" transform="matrix(-.7071 -.7071 .7071 -.7071 152.532 433.4937)"/><path d="m112.512 191.36c27.28-55.2 40.24-43.92 98.32-63.28-8.64-4.64-18.88-7.12-29.52-7.12-30.64 0-64.08 20.64-68.8 70.4z" fill="#3e4347"/></svg>