<svg enable-background="new 0 0 512 512" viewBox="0 0 512 512" xmlns="http://www.w3.org/2000/svg"><circle cx="256" cy="256" fill="#ffd93b" r="256"/><path d="m512 256c0 141.44-114.64 256-256 256-80.48 0-152.32-37.12-199.28-95.28 43.92 35.52 99.84 56.72 160.72 56.72 141.36 0 256-114.56 256-256 0-60.88-21.2-116.8-56.72-160.72 58.08 46.96 95.28 118.8 95.28 199.28z" fill="#f4c534"/><g fill="#3e4347"><path d="m370.704 325.712c10.592 7.264-18.512 87.088-114.704 86.672-96.192.4-125.296-79.408-114.704-86.672 8.16-8.72 46.08 32.848 114.704 31.216 68.624 1.632 106.544-39.936 114.704-31.216z"/><path d="m395.28 195.728c-6.064-13.408-21.232-24.368-39.152-24-29.088.512-39.472 33.6-34.16 22.928-4.224 8.496-14.56 11.968-23.056 7.744-8.512-4.224-11.968-14.56-7.744-23.056 7.952-16 36-36.608 66.896-31.6 27.184 4.544 45.2 24 50.112 42.672 1.472 3.568-.224 7.648-3.792 9.104-3.552 1.472-7.632-.224-9.104-3.792z"/><path d="m103.824 190.416c.08-.08.352-1.504 1.872-5.28 12.256-29.392 44.432-44.064 74.96-35.84 16.832 4.512 28.304 13.968 38.448 27.264 5.76 7.552 4.304 18.352-3.248 24.112s-18.336 4.304-24.112-3.248c-3.728-4.864-2.496-7.312-9.104-13.888-19.744-21.36-55.84-11.168-65.936 12.176-1.472 3.568-5.552 5.264-9.104 3.792-3.552-1.456-5.248-5.536-3.776-9.088z"/></g><path d="m418.448 296.64c-9.296 15.376-26.432 21.968-38.4 14.736-11.856-7.216-14.08-25.408-4.8-40.784 9.184-15.28 26.336-21.872 38.288-14.64 11.984 7.12 14.096 25.392 4.912 40.688z" fill="#e24b4b"/><path d="m93.552 296.64c9.296 15.376 26.432 21.968 38.4 14.736 11.856-7.216 14.08-25.408 4.8-40.784-9.184-15.28-26.336-21.872-38.288-14.64-11.984 7.12-14.096 25.392-4.912 40.688z" fill="#e24b4b"/></svg>