<svg enable-background="new 0 0 512 512" viewBox="0 0 512 512" xmlns="http://www.w3.org/2000/svg"><path d="m512 256c0 141.44-114.72 256-256 256-141.44 0-256-114.56-256-256 0-141.28 114.56-256 256-256 141.28 0 256 114.72 256 256z" fill="#ffd93b"/><g fill="#f4c534"><path d="m512 256c0 141.44-114.72 256-256 256-80.64 0-152.64-37.28-199.36-95.52 43.84 35.2 99.36 56.16 160 56.16 141.28 0 256-114.56 256-256 0-60.64-20.96-116.16-56.32-160 58.4 46.88 95.68 118.72 95.68 199.36z"/><path d="m102.56 170.576c-5.312-3.6-6.672-10.816-3.088-16.128 26.16-38.432 78.688-48.448 117.104-22.336 5.296 3.6 6.672 10.816 3.072 16.112-3.616 5.296-10.848 6.672-16.112 3.088-27.808-18.912-65.92-11.664-84.88 16.192-3.632 5.328-10.864 6.64-16.096 3.072z"/><path d="m392.384 169.072c-8.64-13.84-22.16-23.488-38.064-27.168-15.904-3.664-32.288-.928-46.112 7.712-5.408 3.392-12.592 1.744-15.984-3.696s-1.744-12.592 3.696-15.984c19.072-11.904 41.664-15.712 63.632-10.64 21.936 5.072 40.576 18.384 52.512 37.488 3.392 5.424 1.744 12.592-3.696 15.984-5.488 3.424-12.608 1.696-15.984-3.696z"/></g><path d="m380.096 364.416c6.272-15.216-4.864-33.28-23.776-35.952-.128-.016-.272-.032-.416-.048-24.96-3.072-26.24 9.616-50.736 7.728-24.448-1.376-24.048-14.112-49.152-14.368-25.104.256-24.704 12.992-49.232 14.352-24.512 1.872-25.776-10.8-50.752-7.744-.16.032-.32.048-.48.064-18.912 2.704-30.048 20.72-23.76 35.952 21.424 50.16 71.344 81.968 124.144 82.224 52.848-.24 102.736-32.032 124.16-82.208z" fill="#3e4347"/><path d="m318.72 430.72c-19.2 10.08-40.64 15.68-62.72 15.84-22.08-.16-43.52-5.76-62.72-15.84.32-14.08 5.44-27.04 13.76-37.28 8.64-10.56 22.4-15.04 36-14.08 5.824.736 16.016-.16 24.48-3.36 5.12-1.92 10.56-2.08 15.36.16 20.64 9.92 35.2 30.56 35.84 54.56z" fill="#e24b4b"/><path d="m137.2 285.424c-18.064-8.448-30.784-25.968-34.032-46.848-6.32-40.48 22.448-67.392 54.144-73.024 34.528-6.208 76.448 11.04 86.912 63.328.64 3.248-1.472 6.416-4.72 7.056-3.232.656-6.4-1.456-7.056-4.704-8.864-44.368-44.016-58.992-73.008-53.872-25.152 4.48-49.776 24.96-44.4 59.36 2.64 16.928 12.848 31.072 27.28 37.824 14.704 6.88 31.536 5.44 47.328-4.032 16.56-11.04 23.36-26.8 18.416-43.072-5.056-16.752-21.472-29.392-38.144-29.392-12.896 0-25.392 10.512-29.712 24.992-4.096 13.632 3.904 24.24 11.984 29.168 7.856 4.8 20.576 6.992 30.528-2.592 6.304-6.08 5.088-13.328 4.304-16.16-1.568-5.472-5.536-9.648-10.096-10.624-4.912-1.104-10.512 1.744-15.712 7.92-2.144 2.544-5.92 2.848-8.464.72-2.528-2.128-2.848-5.92-.72-8.448 11.04-13.104 21.936-13.104 27.424-11.92 8.848 1.904 16.336 9.376 19.104 19.072 2.928 10.24.112 20.752-7.52 28.096-12.24 11.776-29.92 13.424-45.088 4.192-12.656-7.728-22.896-23.984-17.232-42.864 5.808-19.44 23.136-33.552 41.216-33.552 22.112 0 42.992 15.952 49.632 37.92 6.48 21.376-2.304 42.576-23.488 56.688-18.416 11.04-39.808 13.68-58.88 4.768z" fill="#3e4347"/><path d="m302.608 285.44c-18.064-8.448-30.8-25.968-34.048-46.848-6.336-40.496 22.448-67.392 54.16-73.04 34.544-6.128 76.432 11.056 86.896 63.328.64 3.248-1.472 6.416-4.72 7.056-3.216.656-6.4-1.456-7.056-4.704-8.88-44.368-44.112-58.992-73.008-53.872-25.152 4.48-49.776 24.96-44.416 59.36 2.656 16.928 12.864 31.072 27.296 37.824 14.72 6.864 31.52 5.424 47.312-4.048 16.56-11.04 23.36-26.8 18.416-43.072-5.056-16.752-21.472-29.392-38.144-29.392-12.88 0-25.376 10.512-29.728 25.008-4.096 13.632 3.904 24.24 12 29.168 7.872 4.784 20.544 7.008 30.512-2.592 6.304-6.08 5.104-13.328 4.288-16.16-1.568-5.472-5.52-9.648-10.08-10.624-4.88-1.104-10.528 1.744-15.712 7.92-2.144 2.544-5.904 2.848-8.464.72-2.528-2.128-2.848-5.92-.72-8.448 11.056-13.104 21.92-13.104 27.44-11.92 8.832 1.904 16.336 9.376 19.088 19.072 2.928 10.256.112 20.752-7.536 28.096-12.24 11.808-29.984 13.424-45.072 4.192-12.672-7.728-22.912-23.968-17.248-42.864 5.824-19.44 23.168-33.552 41.216-33.552 22.112 0 42.992 15.952 49.616 37.92 6.48 21.376-2.288 42.576-23.488 56.688-18.192 10.944-39.648 13.744-58.8 4.784z" fill="#3e4347"/></svg>