<svg enable-background="new 0 0 512 512" viewBox="0 0 512 512" xmlns="http://www.w3.org/2000/svg"><circle cx="256" cy="256" fill="#ffd93b" r="256"/><path d="m512 256c0 141.44-114.64 256-256 256-80.48 0-152.32-37.12-199.28-95.28 43.92 35.52 99.84 56.72 160.72 56.72 141.36 0 256-114.56 256-256 0-60.88-21.2-116.8-56.72-160.72 58.08 46.96 95.28 118.8 95.28 199.28z" fill="#f4c534"/><path d="m399.28 168.528-84.736-38.72c-5.36-2.448-7.712-8.784-5.264-14.144s8.768-7.712 14.128-5.264l84.736 38.72c5.36 2.448 7.712 8.784 5.264 14.144-2.464 5.376-8.816 7.696-14.128 5.264z" fill="#e9b02c"/><ellipse cx="337.92" cy="208.8" fill="#3e4347" rx="42.352" ry="42.4"/><ellipse cx="352.619" cy="190.041" fill="#5a5f63" rx="11.632" ry="6.544" transform="matrix(-.8713 -.4907 .4907 -.8713 566.6083 528.6615)"/><path d="m98.592 163.248c-2.448-5.344-.096-11.68 5.264-14.128l84.736-38.72c5.36-2.448 11.696-.096 14.144 5.264s.08 11.696-5.264 14.144l-84.736 38.72c-5.328 2.432-11.68.112-14.144-5.28z" fill="#e9b02c"/><ellipse cx="174.032" cy="208.8" fill="#3e4347" rx="42.352" ry="42.4"/><ellipse cx="188.648" cy="190.136" fill="#5a5f63" rx="11.632" ry="6.544" transform="matrix(-.8713 -.4907 .4907 -.8713 259.7192 448.3772)"/><path d="m351.872 386.672c-.24.128-.416.336-.592.544-12.64 13.456-33.664 17.024-48.784 6.4s-38.192-9.104-54.448-3.328c-19.04 5.616-31.072 15.504-46.864 18.512-15.04 2.944-30.208-4.416-38-17.648-.448-.8-.96-1.616-1.392-2.432-12.384-20.944-1.696-48.112 21.76-54.512 23.84-6.448 45.536-16.16 72.976-20.16 29.984-5.152 68.112-2.352 92.976 19.584 15.584 13.872 16.56 37.872 2.368 53.04z" fill="#3e4347"/><path d="m304.976 351.392c-7.376-6.896-18-9.888-27.728-7.184-7.28 2.032-15.424 2.736-24.432 1.728-.064 0-.112-.016-.176-.016-15.104-1.712-30.624 4.496-37.472 18.064-2.352 4.656-3.92 9.76-4.512 15.184-.992 8.864.896 17.376 4.64 25.072 9.936-4.272 19.696-10.096 32.752-13.952 16.256-5.776 39.328-7.296 54.448 3.328 4.944 3.472 10.528 5.28 16.24 5.872.8-2.624 1.52-5.296 1.84-8.112 1.68-15.248-4.528-29.632-15.6-39.984z" fill="#e24b4b"/><path d="m424.448 296.032c3.44 12.528-3.936 25.488-16.464 28.928s-25.488-3.936-28.928-16.464c-3.456-12.544 10-52.496 10-52.496s31.952 27.504 35.392 40.032z" fill="#45cbea"/><ellipse cx="412.324" cy="307.054" fill="#fff" opacity=".2" rx="4.64" ry="7.344" transform="matrix(-.9443 -.3292 .3292 -.9443 700.589 732.7254)"/><path d="m463.008 423.008c0 20.912-16.96 37.872-37.872 37.872s-37.872-16.96-37.872-37.872 37.872-77.184 37.872-77.184 37.872 56.272 37.872 77.184z" fill="#45cbea"/><path d="m445.712 439.28c-3.632 5.36-9.344 7.808-12.816 5.536-3.344-2.272-3.136-8.512.512-14.016 3.632-5.36 9.344-7.808 12.816-5.52 3.344 2.256 3.264 8.512-.512 14z" fill="#fff" opacity=".2"/><path d="m87.552 296.032c-3.44 12.528 3.936 25.488 16.464 28.928s25.488-3.936 28.928-16.464c3.456-12.544-10-52.496-10-52.496s-31.952 27.504-35.392 40.032z" fill="#45cbea"/><ellipse cx="99.639" cy="307.038" fill="#fff" opacity=".2" rx="7.344" ry="4.64" transform="matrix(-.3292 -.9443 .9443 -.3292 -157.4857 502.1965)"/><path d="m48.992 423.008c0 20.912 16.96 37.872 37.872 37.872s37.872-16.96 37.872-37.872-37.872-77.184-37.872-77.184-37.872 56.272-37.872 77.184z" fill="#45cbea"/><path d="m66.288 439.28c3.632 5.36 9.328 7.808 12.816 5.536 3.344-2.272 3.136-8.512-.512-14.016-3.648-5.36-9.344-7.808-12.816-5.52-3.344 2.256-3.264 8.512.512 14z" fill="#fff" opacity=".2"/></svg>