<svg enable-background="new 0 0 512 512" viewBox="0 0 512 512" xmlns="http://www.w3.org/2000/svg"><circle cx="256" cy="256" fill="#ffd93b" r="256"/><path d="m512 256c0 141.44-114.64 256-256 256-80.48 0-152.32-37.12-199.28-95.28 43.92 35.52 99.84 56.72 160.72 56.72 141.36 0 256-114.56 256-256 0-60.88-21.2-116.8-56.72-160.72 58.08 46.96 95.28 118.8 95.28 199.28z" fill="#f4c534"/><g fill="#3e4347"><path d="m221.888 387.664c49.376 3.12 82.64-8.032 98.64-12.72 58.704-21.744 77.648-69.664 71.232-58.992 5.088-8.464 16.08-11.184 24.528-6.096s11.184 16.08 6.096 24.528c-22.496 37.36-56.24 55.408-94.384 65.568-33.52 6.768-67.072 10.512-108.096 4.08-4.512-.704-7.584-4.928-6.88-9.44.672-4.24 4.448-7.216 8.64-6.96z"/><path d="m228.72 225.552c0 16.736-13.552 30.304-30.304 30.304-21.056 0-36.512-21.392-27.84-42.304-5.008-.272-10.096.176-15.28 1.36-16.752 3.808-26.944 9.728-34.496 23.648 3.008-23.104 20.112-42.624 44.128-48.496 28.432-6.96 63.792 8.208 63.792 35.488z"/><path d="m391.824 225.552c0 16.736-13.552 30.304-30.304 30.304-21.056 0-36.512-21.392-27.84-42.304-12.768-.688-38.032 3.376-49.776 25.024 3.008-23.104 20.112-42.624 44.128-48.496 28.432-6.976 63.792 8.192 63.792 35.472z"/><path d="m411.408 217.696c-4.192-28.192-23.968-49.504-50.384-54.288-14.224-2.576-28.64-.208-40.64 6.624-4.608 2.64-10.48 1.008-13.088-3.6-2.624-4.608-1.008-10.464 3.6-13.088 15.92-9.072 34.96-12.208 53.568-8.832 34.64 6.288 60.528 33.904 65.952 70.368.768 5.248-2.848 10.128-8.08 10.912-5.136.768-10.112-2.752-10.928-8.096z"/><path d="m96.08 225.792c-5.248-.784-8.864-5.664-8.096-10.912 5.424-36.464 31.296-64.08 65.952-70.368 18.64-3.36 37.648-.24 53.568 8.832 4.608 2.624 6.224 8.496 3.6 13.088-2.608 4.608-8.464 6.24-13.088 3.6-12.016-6.832-26.416-9.2-40.64-6.624-26.416 4.784-46.192 26.096-50.368 54.288-.8 5.296-5.76 8.88-10.928 8.096z"/></g></svg>