<svg enable-background="new 0 0 511.995 511.995" viewBox="0 0 511.995 511.995" xmlns="http://www.w3.org/2000/svg"><path d="m278.478 471.25c-13.472 9.44-31.44 9.44-44.896 0-83.776-58.368-335.552-245.12-188.288-396.704 24-24.768 56.208-40.88 90.736-40.88 55.12 0 102.048 34.992 120 83.92 17.968-48.928 64.88-83.92 120-83.92 34.528 0 66.736 16.256 90.736 41.04 147.104 151.744-104.512 338.176-188.288 396.544z" fill="#e24b4b"/><path d="m278.478 471.25c-9.136 6.352-20.288 8.512-30.656 6.032 120.112-71.264 255.936-235.792 218.944-402.592 147.104 151.76-104.512 338.192-188.288 396.56z" fill="#d03f3f"/><ellipse cx="343.701" cy="201.743" fill="#d03f3f" rx="66.962" ry="85.938" transform="matrix(-.9455 -.3257 .3257 -.9455 602.9553 504.4267)"/><path d="m291.838 183.906c-9.184 36.928 6.56 74.864 35.264 84.752 28.592 9.856 59.248-12.096 68.432-49.024 9.216-37.024-6.544-74.96-35.136-84.816-28.688-9.888-59.344 12.064-68.56 49.088z" fill="#fff"/><path d="m367.934 214.322c0 18.464-14.928 33.392-33.392 33.392-18.336 0-33.264-14.928-33.264-33.392 0-18.336 14.928-33.392 33.264-33.392 18.48.016 33.392 15.056 33.392 33.392z" fill="#3e4347"/><ellipse cx="347.201" cy="201.778" fill="#fff" rx="8.608" ry="5.84" transform="matrix(-.7071 -.7071 .7071 -.7071 450.0296 589.9649)"/><ellipse cx="164.642" cy="201.782" fill="#d03f3f" rx="85.938" ry="66.962" transform="matrix(-.3257 -.9455 .9455 -.3257 27.484 423.1662)"/><path d="m216.526 183.906c9.184 36.928-6.56 74.864-35.264 84.752-28.592 9.856-59.248-12.096-68.432-49.024-9.216-37.024 6.544-74.96 35.136-84.816 28.688-9.888 59.344 12.064 68.56 49.088z" fill="#fff"/><path d="m207.102 214.322c0 18.464-14.928 33.392-33.392 33.392-18.336 0-33.264-14.928-33.264-33.392 0-18.336 14.928-33.392 33.264-33.392 18.464.016 33.392 15.056 33.392 33.392z" fill="#3e4347"/><ellipse cx="186.345" cy="201.738" fill="#fff" rx="8.608" ry="5.84" transform="matrix(-.7071 -.7071 .7071 -.7071 175.4604 476.1539)"/><path d="m79.934 115.394c-21.216 18.8-21.072 44.576-31.344 33.184-10.08-11.376-9.808-38.048 11.408-56.672 21.04-18.816 45.552-16.016 55.648-4.64 10.08 11.392-14.672 9.296-35.712 28.128z" fill="#fff" opacity=".2"/><path d="m331.406 330.498c-14.24 31.584-42.432 53.264-75.408 53.264s-61.168-21.68-75.408-53.264c-2.176-4.8 2.944-9.6 7.744-7.584 45.056 19.04 90.272 19.04 135.488 0 4.8-2.016 9.744 2.784 7.584 7.584z" fill="#3e4347"/></svg>