<svg enable-background="new 0 0 512 512" viewBox="0 0 512 512" xmlns="http://www.w3.org/2000/svg"><circle cx="247.904" cy="256" fill="#5a5f63" r="247.904"/><path d="m344.048 76.624c51.376 6.432 72.976 36.336 88.464 48.816 6.352 5.12 13.632 9.456 21.696 10.688 28.384 4.624 46.096-24.176 57.792-48.496-20.608-6.048-42.144-8.672-63.52-7.744 28.512-12.784 46.464-42.88 59.648-63.84-43.072 3.248-85.376 15.952-123.024 37.04z" fill="#5a5f63"/><path d="m0 256c0 136.96 111.008 247.904 247.904 247.888 77.936 0 147.504-35.952 192.976-92.256-42.528 34.4-96.672 54.928-155.632 54.928-136.88 0-247.904-110.928-247.904-247.888 0-58.96 20.528-113.104 54.928-155.632-56.256 45.456-92.272 115.024-92.272 192.96z" fill="#3e4347"/><path d="m48.784 256.464c12.16 46.08 56.032 68.832 98.016 50.464 19.632-8.592 47.76-20.64 70.528-35.984 20.288-13.456 45.536-16.848 68.608-9.424 25.856 8.32 55.712 12.4 77.024 15.312 45.28 6.192 81.504-27.472 80.688-75.264-.832-47.616-38.272-91.344-83.552-97.536-23.984-3.28-58.416 13.536-85.712 36.992-22.464 19.312-53.872 22.88-80.72 10.496-32.32-14.832-69.232-21.072-91.024-11.584-41.952 18.192-66.176 70.416-53.856 116.528z" fill="#ffd93b"/><path d="m123.44 154.928c10.048 12.72 23.344 22.896 39.616 29.28 11.744 9.808 26.208 16.96 43.328 20.272 1.152 4.512 1.856 9.2 2.032 14.032 1.408 37.6-28.048 69.36-65.664 70.768s-69.36-28.064-70.768-65.664c-1.216-32.736 20.928-60.96 51.456-68.688z" fill="#f4c534"/><path d="m134.592 167.12c1.68-.064 3.312.224 4.976.336 11.632 14.064 27.184 25.088 46.704 30.736 3.36 6.384 5.584 13.44 6.368 20.912 3.104 29.728-17.888 54.8-46.8 55.888-28.896 1.088-54.928-22.24-58.032-51.968-3.12-29.76 17.872-54.832 46.784-55.904z" fill="#fff"/><ellipse cx="140.211" cy="221.032" fill="#3e4347" rx="30.896" ry="30.896"/><ellipse cx="128.434" cy="210.022" fill="#fff" rx="5.776" ry="8.816" transform="matrix(-.733 -.6803 .6803 -.733 79.7001 451.3291)"/><path d="m346.96 131.968c-9.568 12.096-22.464 21.952-38.496 28.416-11.376 9.456-25.552 16.56-42.544 20.224-.976 4.208-1.504 8.56-1.504 13.024 0 34.784 30.624 63.088 68.256 63.088s68.256-28.304 68.256-63.088c.016-30.256-23.168-55.568-53.968-61.664z" fill="#f4c534"/><path d="m336.288 143.616c-1.68 0-3.296.336-4.96.48-11.104 13.392-26.224 24.112-45.52 30-3.12 6-5.088 12.592-5.584 19.536-1.984 27.568 19.92 50 48.848 50 28.912 0 54.064-22.448 56.064-50 1.984-27.584-19.936-50.016-48.848-50.016z" fill="#fff"/><circle cx="332.672" cy="193.6" fill="#3e4347" r="30.896"/><ellipse cx="344.015" cy="182.214" fill="#fff" rx="8.817" ry="5.776" transform="matrix(-.7072 -.7071 .7071 -.7072 458.4524 554.3058)"/><g fill="#3e4347"><path d="m218.32 207.456c-20.96-6.448-39.76-24.272-59.664-38.448-35.136-23.408-59.776-19.824-72.16-9.744 23.424-2.768 44.24 8.8 63.376 22.496 15.488 10.272 43.92 31.728 68.448 25.696z"/><path d="m254.112 183.76c24.704 5.28 51.952-15.376 67.44-25.632 18.928-13.488 39.216-24.704 62.496-23.44-12.8-9.248-37.344-11.872-71.264 10.688-19.712 14.032-37.664 31.136-58.672 38.384z"/></g></svg>