<svg enable-background="new 0 0 512 512" viewBox="0 0 512 512" xmlns="http://www.w3.org/2000/svg"><circle cx="256" cy="256" fill="#ffd93b" r="256"/><path d="m256 424.56c-68.768 0-129.2-44.064-150.368-109.648-2.032-6.304 1.424-13.072 7.728-15.104 6.336-2.048 13.072 1.424 15.104 7.728 17.968 55.632 69.216 93.024 127.536 93.024s109.568-37.376 127.536-93.024c2.032-6.304 8.768-9.776 15.104-7.728 6.304 2.032 9.76 8.8 7.728 15.104-21.168 65.584-81.6 109.648-150.368 109.648z" fill="#3e4347"/><path d="m512 256c0 141.44-114.64 256-256 256-80.48 0-152.32-37.12-199.28-95.28 43.92 35.52 99.84 56.72 160.72 56.72 141.36 0 256-114.56 256-256 0-60.88-21.2-116.8-56.72-160.72 58.08 46.96 95.28 118.8 95.28 199.28z" fill="#f4c534"/><g fill="#3e4347"><path d="m213.44 214.176c-12.032-16.416-33.728-27.328-58.464-27.328-24.848.112-46.544 11.024-58.576 27.44.56-31.824 26.544-57.456 58.576-57.456 31.808 0 57.904 25.52 58.464 57.344z"/><path d="m415.616 214.176c-12.032-16.416-33.728-27.328-58.464-27.328-24.848.112-46.544 11.024-58.576 27.44.56-31.824 26.544-57.456 58.576-57.456 31.824 0 57.904 25.52 58.464 57.344z"/></g></svg>