<svg enable-background="new 0 0 512 512" viewBox="0 0 512 512" xmlns="http://www.w3.org/2000/svg"><circle cx="256" cy="256" fill="#ffd93b" r="256"/><path d="m512 256c0 141.44-114.64 256-256 256-80.48 0-152.32-37.12-199.28-95.28 43.92 35.52 99.84 56.72 160.72 56.72 141.36 0 256-114.56 256-256 0-60.88-21.2-116.8-56.72-160.72 58.08 46.96 95.28 118.8 95.28 199.28z" fill="#f4c534"/><ellipse cx="166.318" cy="199.829" fill="#fff" rx="56.146" ry="56.13" transform="matrix(-.8553 -.5182 .5182 -.8553 205.0167 456.9203)"/><ellipse cx="180.871" cy="175.822" fill="#3e4347" rx="28.048" ry="28.08" transform="matrix(-.8554 -.518 .518 -.8554 244.5121 419.907)"/><ellipse cx="194.433" cy="165.993" fill="#5a5f63" rx="8.016" ry="5.296" transform="matrix(-.4032 -.9151 .9151 -.4032 120.9281 410.8501)"/><ellipse cx="345.695" cy="199.819" fill="#fff" rx="56.146" ry="56.13" transform="matrix(-.8553 -.5182 .5182 -.8553 537.8146 549.8516)"/><ellipse cx="360.252" cy="175.84" fill="#3e4347" rx="28.048" ry="28.08" transform="matrix(-.8554 -.518 .518 -.8554 577.3234 512.8577)"/><ellipse cx="373.794" cy="165.987" fill="#5a5f63" rx="8.016" ry="5.296" transform="matrix(-.4031 -.9151 .9151 -.4031 372.5758 574.9773)"/><path d="m370.56 344.4c0 7.696-6.224 13.92-13.92 13.92h-201.28c-7.616 0-13.92-6.224-13.92-13.92s6.304-13.92 13.92-13.92h201.296c7.696.016 13.904 6.224 13.904 13.92z" fill="#3e4347"/></svg>