<svg height="512" viewBox="0 0 512 512" width="512" xmlns="http://www.w3.org/2000/svg"><g fill="#4281da"><path d="m247.464844 259.128906c-6.46875 0-11.925782 2.300782-16.371094 6.898438-4.445312 4.605468-6.667969 10.1875-6.667969 16.746094 0 6.5625 2.222657 12.140624 6.667969 16.742187 4.445312 4.605469 9.902344 6.902344 16.371094 6.902344 6.464844 0 11.925781-2.296875 16.371094-6.902344 4.441406-4.601563 6.671874-10.179687 6.671874-16.742187 0-6.558594-2.230468-12.140626-6.671874-16.746094-4.445313-4.597656-9.90625-6.898438-16.371094-6.898438zm0 0"/><path d="m235.988281 178.902344h23.695313l-11.847656-26.863282zm0 0"/><path d="m416.664062 0h-321.332031c-52.566406 0-95.332031 42.765625-95.332031 95.332031v264.53125c0 52.566407 42.765625 95.332031 95.332031 95.332031h97.648438l52.410156 52.410157c2.929687 2.929687 6.769531 4.394531 10.609375 4.394531 3.835938 0 7.675781-1.464844 10.605469-4.394531l52.410156-52.410157h97.648437c52.566407 0 95.332032-42.765624 95.332032-95.332031v-264.53125c.003906-52.566406-42.761719-95.332031-95.332032-95.332031zm-278.804687 148.773438h-19.773437v55.128906h-11.011719v-55.128906h-19.773438v-10.074219h50.558594zm11.941406-10.074219h11.003907v28.265625h32.371093v-28.265625h11.003907v65.203125h-11.003907v-26.679688h-32.371093v26.679688h-11.003907zm37.125 151.398437v25.746094h-11.195312v-25.746094l-24.253907-39.460937h12.035157l17.8125 29.667969 17.820312-29.667969h12.03125zm84.976563 16.746094c-6.59375 6.433594-14.738282 9.652344-24.4375 9.652344-9.703125 0-17.851563-3.21875-24.441406-9.652344-6.589844-6.441406-9.886719-14.460938-9.886719-24.070312 0-9.605469 3.296875-17.628907 9.886719-24.066407 6.59375-6.4375 14.738281-9.652343 24.441406-9.652343 9.699218 0 17.847656 3.214843 24.4375 9.652343 6.59375 6.4375 9.890625 14.460938 9.890625 24.066407 0 9.609374-3.296875 17.628906-9.890625 24.070312zm-1.210938-102.941406-6.53125-14.832032h-32.648437l-6.527344 14.832032h-11.753906l28.730469-65.203125h11.753906l28.730468 65.203125zm79.382813 83.300781c0 9.394531-2.582031 16.621094-7.738281 21.691406-5.164063 5.070313-11.789063 7.601563-19.875 7.601563-8.082032 0-14.707032-2.53125-19.867188-7.601563-5.160156-5.066406-7.742188-12.296875-7.742188-21.691406v-36.566406h11.007813v36.101562c0 5.972657 1.492187 10.699219 4.476563 14.179688 2.984374 3.484375 7.027343 5.226562 12.125 5.226562 5.101562 0 9.144531-1.742187 12.128906-5.226562 2.988281-3.480469 4.480468-8.207031 4.480468-14.179688v-36.101562h11.003907zm1.308593-83.300781h-11.941406l-36.9375-47.574219v47.574219h-11.011718v-65.203125h11.011718l37.867188 48.691406v-48.691406h11.011718zm60.257813 0-21.644531-28.542969-9.515625 10.261719v18.28125h-11.003907v-65.203125h11.003907v31.808593l29.855469-31.808593h13.988281l-26.210938 28.542969 26.585938 36.660156zm0 0"/></g></svg>