<svg enable-background="new 0 0 512 512" viewBox="0 0 512 512" xmlns="http://www.w3.org/2000/svg"><circle cx="256" cy="256" fill="#ffd93b" r="256"/><path d="m512 256c0 141.44-114.64 256-256 256-80.48 0-152.32-37.12-199.28-95.28 43.92 35.52 99.84 56.72 160.72 56.72 141.36 0 256-114.56 256-256 0-60.88-21.2-116.8-56.72-160.72 58.08 46.96 95.28 118.8 95.28 199.28z" fill="#f4c534"/><path d="m332.176 344.432c-27.408 17.536-62.16 27.92-93.776 28.112 3.168 9.76 5.552 19.776 7.008 29.984 4.128 26.32 19.344 54.976 46.144 60.032 26.432 5.232 61.968-22.24 50.976-73.872-3.168-14.88-5.728-29.824-10.352-44.256z" fill="#e24b4b"/><path d="m359.104 312.976c-3.232 0-6.256 1.36-8.544 3.632-24.512 24.512-58.128 39.168-94.544 39.168-36.432 0-70.032-14.656-94.56-39.168-2.288-2.288-5.312-3.632-8.544-3.632-10.8 0-16.048 13.04-8.416 20.688 28.896 28.896 68.56 46.128 111.52 46.128 42.944 0 82.608-17.216 111.52-46.128 7.616-7.648 2.352-20.688-8.432-20.688z" fill="#3e4347"/><ellipse cx="317.792" cy="431.638" fill="#fff" opacity=".2" rx="9.392" ry="14.784" transform="matrix(-.8913 -.4534 .4534 -.8913 405.3369 960.4473)"/><g fill="#3e4347"><path d="m216.976 218.848c-12.032-16.416-33.728-27.328-58.464-27.328-24.848.112-46.544 11.024-58.576 27.44.56-31.824 26.544-57.456 58.576-57.456 31.808 0 57.904 25.52 58.464 57.344z"/><path d="m412.08 218.848c-12.032-16.416-33.728-27.328-58.464-27.328-24.848.112-46.544 11.024-58.576 27.44.56-31.824 26.544-57.456 58.576-57.456 31.808 0 57.904 25.52 58.464 57.344z"/></g></svg>