<svg enable-background="new 0 0 512.002 512.002" viewBox="0 0 512.002 512.002" xmlns="http://www.w3.org/2000/svg"><circle cx="256.001" cy="256" fill="#ffd93b" r="256"/><path d="m512.001 256c0 141.44-114.64 256-256 256-80.48 0-152.32-37.12-199.28-95.28 43.92 35.52 99.84 56.72 160.72 56.72 141.36 0 256-114.56 256-256 0-60.88-21.2-116.8-56.72-160.72 58.08 46.96 95.28 118.8 95.28 199.28z" fill="#f4c534"/><path d="m326.673 390.96s9.696-52.352-13.84-53.344c-12.384-.528-21.088 29.184-28.592 70.272-8.576 46.992 15.056 73.552 35.648 88.608 30.176 22.064 62 18.08 92.32 3.616 37.6-17.936 68.736-87.2 69.216-104.208.72-26.32-20.576-26.832-49.408 35.104 0 0-3.792 11.68 0 0s33.152-64.224 39.2-76.528c6.32-12.88-11.488-29.872-23.808-13.648s-48.208 67.056-50.88 79.504c0 0-2.4 9.648 0 0 2.4-9.632 52.048-89.056 54.336-102.544 2.72-16.112-19.904-20.176-27.536-8.72-5.568 8.352-58.176 95.6-58.176 95.6s43.248-72 41.088-86.016c-1.792-11.616-16.64-13.792-23.728-6.432-7.872 8.144-55.84 78.736-55.84 78.736z" fill="#fff"/><path d="m290.801 463.504c7.408 14.72 18.624 25.344 29.072 32.992 30.176 22.064 62 18.08 92.32 3.616 37.6-17.936 68.752-87.2 69.216-104.224 0 0-65.168 161.312-190.608 67.616z" fill="#dee4e9"/><path d="m185.329 390.96s-9.696-52.352 13.84-53.344c12.384-.528 21.088 29.184 28.592 70.272 8.576 46.992-15.056 73.552-35.648 88.608-30.176 22.064-62 18.08-92.32 3.616-37.6-17.936-68.736-87.2-69.216-104.208-.72-26.32 20.576-26.832 49.408 35.104 0 0 3.792 11.68 0 0s-33.152-64.224-39.2-76.528c-6.336-12.88 11.472-29.872 23.808-13.648s48.208 67.056 50.88 79.504c0 0 2.4 9.648 0 0-2.4-9.632-52.048-89.056-54.336-102.544-2.72-16.112 19.904-20.176 27.536-8.72 5.568 8.352 58.176 95.6 58.176 95.6s-43.248-72-41.088-86.016c1.792-11.616 16.64-13.792 23.728-6.432 7.872 8.144 55.84 78.736 55.84 78.736z" fill="#fff"/><path d="m221.185 463.504c-7.408 14.72-18.624 25.344-29.072 32.992-30.176 22.064-62 18.08-92.32 3.616-37.6-17.936-68.736-87.2-69.216-104.224.016 0 65.184 161.312 190.608 67.616z" fill="#dee4e9"/><g fill="#3e4347"><path d="m351.409 225.664c11.488 2.576-9.664 86.512-95.408 86.576-85.76-.064-106.912-84-95.408-86.576 8.4-4.496 40.752 35.84 95.408 35.84 55.696 0 87.008-40.336 95.408-35.84z"/><path d="m214.273 186.272c-6.128 0-11.36-4.672-11.936-10.896-1.84-19.984-17.072-35.056-35.424-35.056s-33.584 15.072-35.424 35.056c-.608 6.592-6.496 11.504-13.04 10.848-6.608-.608-11.456-6.448-10.848-13.04 2.992-32.416 28.48-56.864 59.328-56.864 30.832 0 56.336 24.448 59.312 56.864.608 6.592-4.256 12.448-10.848 13.04-.384.032-.752.048-1.12.048z"/><path d="m392.449 186.272c-6.128 0-11.36-4.672-11.936-10.896-1.84-19.984-17.072-35.056-35.424-35.056s-33.584 15.072-35.424 35.056c-.592 6.592-6.432 11.504-13.04 10.848-6.608-.608-11.456-6.448-10.848-13.04 2.976-32.416 28.48-56.864 59.312-56.864s56.336 24.448 59.312 56.864c.608 6.592-4.256 12.448-10.848 13.04-.368.032-.736.048-1.104.048z"/></g></svg>