<svg enable-background="new 0 0 512 512" viewBox="0 0 512 512" xmlns="http://www.w3.org/2000/svg"><circle cx="256" cy="256" fill="#ffd93b" r="256"/><path d="m510.784 256c0 141.44-114.64 256-256 256-80.48 0-152.32-37.12-199.28-95.28 43.92 35.52 99.84 56.72 160.72 56.72 141.36 0 256-114.56 256-256 0-60.88-21.2-116.8-56.72-160.72 58.08 46.96 95.28 118.8 95.28 199.28z" fill="#f4c534"/><g fill="#3e4347"><path d="m284.208 269.504c-3.36 7.056 3.984 14.144 10.96 10.64 32.928-16.944 81.056-11.024 112.128 17.344 5.344 4.912 14.448.752 13.312-6.656-10.064-69.312-104.704-85.136-136.4-21.328z"/><path d="m394.976 187.968c1.232 4.592-73.968-2.608-130 55.328 0 0 25.744-109.312 130-55.328z"/><path d="m221.296 148.624c1.232 4.592-73.968-2.608-130 55.328 0 0 25.744-109.296 130-55.328z"/><ellipse cx="175.808" cy="238.208" rx="45.504" ry="56"/><path d="m387.008 346.944c-7.712-3.488-52.384 53.04-132.08 50.448-79.696 2.624-124.368-53.904-132.08-50.448-13.552.656 25.392 101.232 132.08 101.04 106.688.208 145.632-100.368 132.08-101.04z"/></g></svg>