<svg enable-background="new 0 0 512 512" height="512" viewBox="0 0 512 512" width="512" xmlns="http://www.w3.org/2000/svg"><g fill="#ffffff"><path d="m256 0c-141.492 0-256 114.497-256 256 0 141.493 114.497 256 256 256 141.492 0 256-114.497 256-256 0-141.493-114.497-256-256-256zm0 472c-119.384 0-216-96.607-216-216 0-119.385 96.607-216 216-216 119.384 0 216 96.607 216 216 0 119.385-96.607 216-216 216z"/><path d="m343.586 315.302-59.302-59.302 59.302-59.302c7.81-7.81 7.811-20.473.001-28.284-7.812-7.811-20.475-7.81-28.284 0l-59.303 59.302-59.303-59.302c-7.809-7.811-20.474-7.811-28.284 0s-7.81 20.474.001 28.284l59.302 59.302-59.302 59.302c-7.811 7.811-7.812 20.474-.001 28.284 7.813 7.812 20.476 7.809 28.284 0l59.303-59.302 59.303 59.302c7.808 7.81 20.473 7.811 28.284 0s7.81-20.474-.001-28.284z"/></g></svg>