<svg enable-background="new 0 0 512 512" viewBox="0 0 512 512" xmlns="http://www.w3.org/2000/svg"><path d="m15.5 381.7v-251.4h114.9v251.4z" fill="#fdbf00"/><path d="m379.1 381.7v-251.4h114.9v251.4z" fill="#a24bdb"/><path d="m139.4 381.7v-251.4h236.4v251.4z" fill="#00ff81"/><path d="m15.5 256v-125.7h114.9v125.7z" fill="#ff9100"/><path d="m379.1 256v-125.7h114.9v125.7z" fill="#ac2ca5"/><path d="m139.4 256v-125.7h236.4v125.7z" fill="#00d26b"/><g fill="#191d2a"><path d="m.5 463.5h512v-415h-512zm60.1-385v42.9h-30v-42.9zm90 282.2v-209.4h210v209.3h-210zm-30-209.4v209.3h-90v-209.3zm0 239.4v42.9h-30v-42.9zm30 0h30v42.9h-30zm60 0h30v42.9h-30zm60 0h30v42.9h-30zm60 0h30v42.9h-30zm60 0h30v42.9h-30zm0-30v-209.4h91.9v209.3h-91.9zm0-239.4v-42.8h30v42.9h-30zm-30 0h-30v-42.8h30zm-60 0h-30v-42.8h30zm-60 0h-30v-42.8h30zm-60 0h-30v-42.8h30zm-60 0h-30v-42.8h30zm-90.1 269.4h30v42.9h-30zm420.1 42.8v-42.9h31.9v42.9zm31.9-312.2h-31.9v-42.8h31.9z"/><path d="m.5 48.5v207.5h30v-104.7h90v104.7h30v-104.7h210v104.7h30v-104.7h91.9v104.7h30v-207.5zm482 30v42.9h-31.9v-42.9zm-61.9 0v42.9h-30v-42.9zm-60 0v42.9h-30v-42.9zm-60 0v42.9h-30v-42.9zm-60 0v42.9h-30v-42.9zm-60 0v42.9h-30v-42.9zm-60 0v42.9h-30v-42.9zm-60 0v42.9h-30v-42.9z"/></g></svg>