<svg enable-background="new 0 0 512 512" height="512" viewBox="0 0 512 512" width="512" xmlns="http://www.w3.org/2000/svg"><path d="m394.667 214.421v-75.755c0-76.458-62.208-138.666-138.667-138.666s-138.667 62.208-138.667 138.667v75.755c-24.32 4.949-42.667 26.496-42.667 52.245v192c.001 29.397 23.915 53.333 53.334 53.333h256c29.419 0 53.333-23.936 53.333-53.333v-192c0-25.75-18.346-47.296-42.666-52.246zm-115.008 163.819 8.235 57.579c.448 3.072-.469 6.165-2.496 8.491-2.027 2.325-4.971 3.691-8.064 3.691h-42.667c-3.093 0-6.037-1.344-8.064-3.669s-2.944-5.44-2.496-8.491l8.235-57.579c-17.835-8.917-29.675-27.328-29.675-47.595 0-29.397 23.915-53.333 53.333-53.333s53.333 23.936 53.333 53.333c0 20.266-11.84 38.677-29.674 47.573zm51.008-164.907h-149.334v-74.667c0-41.173 33.494-74.666 74.667-74.666s74.667 33.493 74.667 74.667z" fill="#4281da"/></svg>