<svg enable-background="new 0 0 512 512" height="512" viewBox="0 0 512 512" width="512" xmlns="http://www.w3.org/2000/svg"><path d="m507.494 426.066-224.63-372.529c-5.677-9.415-15.87-15.172-26.865-15.172s-21.188 5.756-26.865 15.172l-224.628 372.529c-5.842 9.689-6.015 21.774-.451 31.625 5.564 9.852 16.001 15.944 27.315 15.944h449.259c11.314 0 21.751-6.093 27.315-15.944 5.564-9.852 5.392-21.936-.45-31.625zm-251.327-258.839c12.901 0 23.817 7.278 23.817 20.178 0 39.363-4.631 95.929-4.631 135.292 0 10.255-11.247 14.554-19.186 14.554-10.584 0-19.516-4.3-19.516-14.554 0-39.363-4.63-95.929-4.63-135.292 0-12.9 10.584-20.178 24.146-20.178zm.331 243.791c-14.554 0-25.471-11.908-25.471-25.47 0-13.893 10.916-25.47 25.471-25.47 13.562 0 25.14 11.577 25.14 25.47 0 13.562-11.578 25.47-25.14 25.47z" fill="#f89332"/></svg>