<svg enable-background="new 0 0 477.867 477.867" height="512" viewBox="0 0 477.867 477.867" width="512" xmlns="http://www.w3.org/2000/svg"><path d="m460.8 119.467h-85.333v-102.4c0-9.426-7.641-17.067-17.067-17.067h-341.333c-9.426 0-17.067 7.641-17.067 17.067v392.533c0 37.703 30.564 68.267 68.267 68.267h341.333c37.703 0 68.267-30.564 68.267-68.267v-273.067c0-9.425-7.641-17.066-17.067-17.066zm-324.267-34.134h102.4c9.426 0 17.067 7.641 17.067 17.067s-7.641 17.067-17.067 17.067h-102.4c-9.426 0-17.067-7.641-17.067-17.067s7.642-17.067 17.067-17.067zm153.6 324.267h-204.8c-9.426 0-17.067-7.641-17.067-17.067s7.641-17.067 17.067-17.067h204.8c9.426 0 17.067 7.641 17.067 17.067s-7.641 17.067-17.067 17.067zm0-68.267h-204.8c-9.426 0-17.067-7.641-17.067-17.067s7.641-17.067 17.067-17.067h204.8c9.426 0 17.067 7.641 17.067 17.067s-7.641 17.067-17.067 17.067zm0-68.266h-204.8c-9.426 0-17.067-7.641-17.067-17.067s7.641-17.067 17.067-17.067h204.8c9.426 0 17.067 7.641 17.067 17.067s-7.641 17.067-17.067 17.067zm0-68.267h-204.8c-9.426 0-17.067-7.641-17.067-17.067s7.641-17.067 17.067-17.067h204.8c9.426 0 17.067 7.641 17.067 17.067s-7.641 17.067-17.067 17.067zm153.6 204.8c0 18.851-15.282 34.133-34.133 34.133s-34.133-15.282-34.133-34.133v-256h68.267v256z" fill="#a0a6b7"/></svg>