<svg height="429pt" viewBox="0 0 429.96113 429" width="429pt" xmlns="http://www.w3.org/2000/svg" xmlns:xlink="http://www.w3.org/1999/xlink"><linearGradient id="a"><stop offset=".322" stop-color="#a163f5"/><stop offset=".466" stop-color="#b074ee"/><stop offset=".752" stop-color="#d8a1dd"/><stop offset=".898" stop-color="#efbad3"/></linearGradient><linearGradient id="b" gradientTransform="matrix(1 0 0 -1 -40.999333 473.481185)" gradientUnits="userSpaceOnUse" x1="256" x2="256" xlink:href="#a" y1="17.518" y2="570.222"/><linearGradient id="c" gradientTransform="matrix(1 0 0 -1 -40.999333 473.481185)" gradientUnits="userSpaceOnUse" x1="258.376" x2="258.376" xlink:href="#a" y1="17.518" y2="570.222"/><path d="m215 .480469c-86.960938-.015625-165.363281 52.363281-198.640625 132.707031-33.273437 80.34375-14.867187 172.820312 46.640625 234.292969 83.949219 83.949219 220.054688 83.949219 304 0 83.949219-83.945313 83.949219-220.050781 0-304-40.222656-40.453125-94.953125-63.136719-152-63zm0 410c-107.5 0-195-87.5-195-195s87.5-195 195-195 195 87.5 195 195-87.5 195-195 195zm0 0" fill="url(#b)"/><path d="m317.199219 149.382812-129.097657 123.398438-70.402343-70.300781c-3.890625-3.894531-10.203125-3.894531-14.097657 0-3.894531 3.894531-3.894531 10.207031 0 14.101562l77.300782 77.300781c1.875 1.886719 4.4375 2.933594 7.097656 2.898438 2.582031.023438 5.066406-.984375 6.902344-2.800781l136.097656-130.097657c3.945312-3.824218 4.074219-10.113281.289062-14.09375-3.789062-3.976562-10.074218-4.160156-14.089843-.40625zm0 0" fill="url(#c)"/></svg>