<svg enable-background="new 0 0 512 512" viewBox="0 0 512 512" xmlns="http://www.w3.org/2000/svg"><circle cx="256" cy="256" fill="#ffd93b" r="256"/><path d="m512 256c0 141.44-114.64 256-256 256-80.48 0-152.32-37.12-199.28-95.28 43.92 35.52 99.84 56.72 160.72 56.72 141.36 0 256-114.56 256-256 0-60.88-21.2-116.8-56.72-160.72 58.08 46.96 95.28 118.8 95.28 199.28z" fill="#f4c534"/><path d="m370.56 344.4c0 7.696-6.224 13.92-13.92 13.92h-201.296c-7.616 0-13.92-6.224-13.92-13.92s6.304-13.92 13.92-13.92h201.296c7.712.016 13.92 6.224 13.92 13.92z" fill="#3e4347"/><circle cx="174.512" cy="207.088" fill="#3e4347" r="38.144"/><ellipse cx="190.667" cy="191.518" fill="#5a5f63" rx="10.016" ry="6.48" transform="matrix(-.597 -.8023 .8023 -.597 150.8425 458.814)"/><circle cx="337.44" cy="207.088" fill="#3e4347" r="38.144"/><ellipse cx="353.586" cy="191.533" fill="#5a5f63" rx="10.016" ry="6.48" transform="matrix(-.597 -.8022 .8022 -.597 411.0304 589.5384)"/></svg>