<svg enable-background="new 0 0 511.685 511.685" viewBox="0 0 511.685 511.685" xmlns="http://www.w3.org/2000/svg"><path d="m146.133 274.547s60.8 1.067 126.933-115.2c0 0 23.467-28.8 38.4-114.133 0 0-14.933-42.667 24.533-40.533 0 0 53.333 17.067 32 92.8 0 0-22.4 100.267 10.667 105.6 0 0 132.267 5.333 132.267 42.667 0 0 6.4 27.733-18.133 45.867 0 0 29.867 36.267-18.133 68.267 0 0 22.4 37.333-16 64 0 0 18.133 43.733-36.267 48h-276.267z" fill="#ffd15c"/><path d="m106.67 261.749h39.467v222.93h-39.467z" fill="#f2f2f2"/><path d="m21.333 507.081h64c11.733 0 21.333-9.6 21.333-21.333v-221.867c0-11.733-9.6-21.333-21.333-21.333h-64c-11.733-.001-21.333 9.599-21.333 21.333v222.933c0 10.667 9.6 20.267 21.333 20.267z" fill="#40596b"/><circle cx="53.33" cy="462.279" fill="#fff" r="19.2"/></svg>