<svg enable-background="new 0 0 512 512" viewBox="0 0 512 512" xmlns="http://www.w3.org/2000/svg"><circle cx="256" cy="256" fill="#ffd93b" r="256"/><path d="m512 256c0 141.44-114.672 256-256 256-80.528 0-152.32-37.12-199.248-95.248 43.84 35.52 99.84 56.752 160.64 56.752 141.44 0 256-114.56 256-256 0-60.912-21.12-116.8-56.64-160.752 58.016 46.928 95.248 118.816 95.248 199.248z" fill="#f4c534"/><ellipse cx="158.912" cy="234.624" fill="#3e4347" rx="40.8" ry="40.752"/><ellipse cx="353.12" cy="234.624" fill="#3e4347" rx="40.8" ry="40.752"/><ellipse cx="369.285" cy="219.535" fill="#5a5f63" rx="10.529" ry="7.504" transform="matrix(-.7147 -.6995 .6995 -.7147 479.642 634.732)"/><ellipse cx="174.994" cy="219.555" fill="#5a5f63" rx="10.528" ry="7.504" transform="matrix(-.7107 -.7035 .7035 -.7107 144.9049 498.7004)"/><path d="m344.976 387.52c-59.52-23.792-116.48-24.208-170.992-1.392-10.352 4.368-19.84-7.472-13.76-16.96 18.992-29.968 56.112-50.24 98.992-50.24 43.84 0 81.712 21.328 100.272 52.368 5.648 9.392-4.384 20.16-14.512 16.224z" fill="#3e4347"/><path d="m447.92 426.784c-30.72-3.296-60.112 1.248-85.264 11.04-1.184-46.208-22.656-94.432-66.032-131.072 78.432 16.368 130.624 65.248 151.296 120.032z" fill="#fff"/><path d="m299.568 308.08s13.6 7.216 28.8 22.624c14.064 14.8 19.584 26.464 19.584 26.464-5.648-7.024-15.36-18.16-22.736-25.408-9.136-9.504-25.648-23.68-25.648-23.68z" fill="#e9eff4"/><path d="m328.624 324.048s21.04 11.296 40.08 33.424c17.744 20.928 23.92 39.792 23.92 39.792s-10.32-20.464-26.624-38.88c-16.16-19.056-37.376-34.336-37.376-34.336z" fill="#e9eff4"/><path d="m299.936 308.24s21.136 4.096 45.424 16.912c22.832 12.32 34.976 25.152 34.976 25.152s-17.84-13.616-37.392-23.648c-19.632-10.592-43.008-18.416-43.008-18.416z" fill="#e9eff4"/><g fill="#fff"><ellipse cx="438.208" cy="428.546" rx="36.463" ry="36.447" transform="matrix(-.3019 -.9533 .9533 -.3019 161.9588 975.6885)"/><ellipse cx="404.594" cy="452.978" rx="47.998" ry="47.998"/><ellipse cx="365.233" cy="453.283" rx="36.463" ry="36.447" transform="matrix(-.3019 -.9533 .9533 -.3019 43.3703 938.3236)"/></g><path d="m375.232 482.176c-15.744.272-30.496-9.552-35.472-25.296-4.096-12.832-.672-26.256 7.888-35.536-14.896 8.224-22.528 26.048-17.168 42.864 6.064 19.2 26.592 29.92 45.808 23.856 1.056-.336 2.064-.784 3.072-1.216-1.488-1.488-2.864-3.056-4.128-4.672z" fill="#e9eff4"/><path d="m449.648 458.592c-5.168 12.816-15.712 23.344-29.92 27.84-25.344 8.048-52.4-6.016-60.352-31.312-1.072-3.52-1.792-7.072-2.048-10.592-1.344 7.456-.912 15.248 1.472 22.896 8.048 25.344 35.088 39.408 60.304 31.408 18.944-6.048 31.536-22.688 33.328-41.264-.928.352-1.856.704-2.784 1.024z" fill="#e9eff4"/><path d="m449.232 463.312c-10.272 3.28-20.944 1.68-29.536-3.456 6.064 1.344 12.672 1.136 19.04-.816 19.2-6.064 29.872-26.512 23.728-45.76-2.832-8.848-8.624-15.824-15.92-20.208 12.08 2.768 22.432 11.84 26.496 24.528 6.064 19.2-4.608 39.648-23.808 45.712z" fill="#e9eff4"/><path d="m64.08 426.784c30.704-3.296 60.112 1.248 85.264 11.04 1.184-46.208 22.656-94.432 66.032-131.072-78.432 16.368-130.624 65.248-151.296 120.032z" fill="#fff"/><path d="m212.432 308.08s-13.6 7.216-28.8 22.624c-14.064 14.8-19.584 26.464-19.584 26.464 5.648-7.024 15.36-18.16 22.736-25.408 9.136-9.504 25.648-23.68 25.648-23.68z" fill="#e9eff4"/><path d="m183.376 324.048s-21.04 11.296-40.08 33.424c-17.744 20.928-23.92 39.808-23.92 39.808s10.32-20.464 26.64-38.88c16.144-19.072 37.36-34.352 37.36-34.352z" fill="#e9eff4"/><path d="m212.064 308.24s-21.136 4.096-45.424 16.912c-22.832 12.32-34.976 25.152-34.976 25.152s17.84-13.616 37.392-23.648c19.632-10.592 43.008-18.416 43.008-18.416z" fill="#e9eff4"/><ellipse cx="73.743" cy="428.502" fill="#fff" rx="36.447" ry="36.463" transform="matrix(-.9533 -.3019 .3019 -.9533 14.6755 859.2723)"/><ellipse cx="107.359" cy="452.952" fill="#fff" rx="47.998" ry="47.998"/><ellipse cx="146.731" cy="453.303" fill="#fff" rx="36.447" ry="36.463" transform="matrix(-.9533 -.3019 .3019 -.9533 149.757 929.752)"/><path d="m136.752 482.176c15.744.272 30.496-9.552 35.472-25.296 4.096-12.832.672-26.256-7.888-35.536 14.896 8.224 22.528 26.048 17.168 42.864-6.064 19.2-26.592 29.92-45.808 23.856-1.056-.336-2.064-.784-3.072-1.216 1.504-1.488 2.88-3.056 4.128-4.672z" fill="#e9eff4"/><path d="m62.352 458.592c5.168 12.816 15.712 23.344 29.92 27.84 25.344 8.048 52.4-6.016 60.352-31.312 1.072-3.52 1.776-7.072 2.048-10.592 1.344 7.456.912 15.248-1.472 22.896-8.048 25.344-35.088 39.408-60.304 31.408-18.944-6.048-31.536-22.688-33.328-41.264.928.352 1.856.704 2.784 1.024z" fill="#e9eff4"/><path d="m62.768 463.312c10.272 3.28 20.944 1.68 29.536-3.456-6.064 1.344-12.672 1.136-19.04-.816-19.2-6.064-29.872-26.512-23.728-45.76 2.832-8.848 8.624-15.824 15.92-20.208-12.08 2.768-22.432 11.84-26.496 24.528-6.064 19.2 4.608 39.648 23.808 45.712z" fill="#e9eff4"/><path d="m295.168 198.848c-5.664-1.344-9.216-6.848-7.984-12.528.4-1.872 10.88-46.064 91.952-58.944 5.936-.928 11.28 3.04 12.208 8.864s-3.04 11.28-8.848 12.208c-65.456 10.4-74.16 41.28-74.512 42.592-1.44 5.584-7.12 9.168-12.816 7.808z" fill="#e9b02c"/><path d="m214.176 191.024c-.432-1.664-9.456-32.24-74.496-42.576-5.808-.928-9.776-6.384-8.848-12.208s6.304-9.792 12.208-8.864c81.056 12.88 91.536 57.072 91.952 58.944 1.248 5.76-2.4 11.44-8.16 12.688-5.808 1.232-11.36-2.416-12.656-7.984z" fill="#e9b02c"/></svg>