<svg enable-background="new 0 0 512 512" viewBox="0 0 512 512" xmlns="http://www.w3.org/2000/svg"><circle cx="256" cy="256" fill="#ffd93b" r="256"/><path d="m512 256c0 141.44-114.64 256-256 256-80.48 0-152.32-37.12-199.28-95.28 43.92 35.52 99.84 56.72 160.72 56.72 141.36 0 256-114.56 256-256 0-60.88-21.2-116.8-56.72-160.72 58.08 46.96 95.28 118.8 95.28 199.28z" fill="#f4c534"/><path d="m348.816 349.952c-71.968-63.904-148.208-18.08-151.408-16.096-4.976 3.088-11.568 1.552-14.672-3.44-3.104-5.008-1.584-11.552 3.408-14.672.912-.576 92.736-56.4 176.848 18.256 4.4 3.92 4.816 10.656.896 15.056s-10.672 4.8-15.072.896z" fill="#3e4347"/><path d="m122 336.128s.448-42.256 29.248-46.896c30.208-4.88 14.976 66.528 14.976 66.528s63.504-85.04 89.776-74.656c15.664 6.192 7.152 37.872-36.144 75.536 13.2-5.28 41.6 1.264 33.2 26.88 0 0 34.624-2.24 20.944 25.104 0 0 20.448-1.264 12.416 20.336-8.032 21.584-75.904 68.672-132.752 65.072s-64.768-56.128-54.688-85.632c10.08-29.488 17.28-19.728 23.024-72.272z" fill="#fff"/><ellipse cx="329.417" cy="190.37" fill="#3e4347" rx="41.135" ry="55.103" transform="matrix(-.9178 -.397 .397 -.9178 556.1833 495.875)"/><path d="m374.912 130.368c-2.304-3.312-5.248-6.336-8.768-8.752-21.392-15.216-54.304-5.664-73.296 21.2-4.704 6.72-8.128 13.92-10.288 21.088-.88-12.96 3.232-27.712 12.512-40.832 17.616-24.8 46.896-34.304 65.392-21.248 8.88 6.272 13.728 16.656 14.448 28.544z" fill="#3e4347"/><ellipse cx="333.595" cy="156.928" fill="#5a5f63" rx="7.712" ry="12.016" transform="matrix(-.3396 -.9406 .9406 -.3396 299.2784 523.9907)"/><circle cx="174.096" cy="223.104" fill="#3e4347" r="33.328"/><path d="m187.232 217.456c-4 0-7.696-3.552-8.224-7.616-.528-3.696 1.888-6.496 5.28-6.496s6.944 2.784 8 6.496c1.136 4-1.056 7.552-5.056 7.616z" fill="#5a5f63"/><path d="m226.944 205.136c0 5.84-1.184 11.408-3.472 16.608-.64-27.088-28-48.896-61.584-48.896-13.952 0-26.736 3.744-37.04 10.128 9.12-14.96 27.184-25.184 47.888-25.184 29.936 0 54.208 21.248 54.208 47.344z" fill="#3e4347"/><path d="m256 448.976c-21.888 10.624-124 60.672-160.688-16.848.08 27.808 14.88 59.168 58.352 61.92 56.848 3.6 124.72-43.488 132.752-65.072 2.704-7.296 2.144-11.936.24-14.944 0 .192 3.68 18.272-30.656 34.944z" fill="#e9eff4"/></svg>