<svg enable-background="new 0 0 512 512" viewBox="0 0 512 512" xmlns="http://www.w3.org/2000/svg"><ellipse cx="301.662" cy="462.614" fill="#fff" opacity=".1" rx="13.344" ry="8.208" transform="matrix(-.915 -.4035 .4035 -.915 391.017 1007.6169)"/><circle cx="256" cy="256" fill="#ffd93b" r="256"/><path d="m512 256c0 141.44-114.64 256-256 256-80.48 0-152.32-37.12-199.28-95.28 43.92 35.52 99.84 56.72 160.72 56.72 141.36 0 256-114.56 256-256 0-60.88-21.2-116.8-56.72-160.72 58.08 46.96 95.28 118.8 95.28 199.28z" fill="#f4c534"/><g fill="#3e4347"><path d="m399.424 209.168c-28.544 0-62.064-12.96-97.6-23.856-3.968-1.216-7.024-4.384-8.08-8.384s.016-8.272 2.848-11.296c15.008-16 30.016-30.848 44.256-48.464 4.144-5.168 11.712-5.968 16.864-1.792s5.968 11.728 1.792 16.88c-10.192 12.624-22 25.216-32.208 35.936.736.24 1.456.464 2.192.704 26.672 8.576 51.808 16.56 71.36 16.272 6.48-.32 12.112 5.12 12.24 11.744.144 6.608-4.48 12.256-13.664 12.256z"/><path d="m112.576 209.168c-9.184 0-13.808-5.632-13.664-12.272.144-6.624 5.584-12.016 12.24-11.744 19.616.304 44.688-7.696 71.36-16.272.72-.24 1.456-.464 2.192-.704-10.224-10.72-22.032-23.328-32.224-35.936-4.16-5.152-3.36-12.704 1.792-16.88 5.152-4.16 12.72-3.36 16.88 1.792 14.192 17.568 29.248 32.464 44.256 48.464 2.832 3.024 3.904 7.296 2.848 11.296-1.072 4-4.128 7.168-8.08 8.384-35.52 10.912-69.056 23.872-97.6 23.872z"/><path d="m444.896 293.072c-17.36 88.528-95.312 155.248-188.864 155.248-93.696 0-171.792-66.944-188.928-155.6-2.048-10.496 7.36-19.76 17.792-17.36 116.88 26.832 230.928 27.424 341.984.368 10.432-2.56 20.048 6.768 18.016 17.344z"/><path d="m444.896 293.072c-17.36 88.528-95.312 155.248-188.864 155.248-93.696 0-171.792-66.944-188.928-155.6-2.048-10.496 7.36-19.76 17.792-17.36 116.88 26.832 230.928 27.424 341.984.368 10.432-2.56 20.048 6.768 18.016 17.344z"/></g><path d="m389.712 308.08c-15.6 60.24-64.48 63.2-134 63.2-69.68 0-116-5.04-133.76-64 46.4 8.32 92.56 12.48 137.6 12.48 43.76 0 87.36-3.92 130.16-11.68z" fill="#fff"/><path d="m256.032 448.32c29.104 0 56.704-6.48 81.44-18.048-4.544-10.768-11.232-20.4-19.568-28.288-12.624-11.936-30.912-14.08-46.96-7.632-6.464 2.64-13.792 4.112-22.208 4.112-4.112 0-8.016-.384-11.648-.976-16.928-3.136-34.736 1.856-44.912 15.648-4.48 6.08-8.096 12.816-10.832 19.952 23.008 9.712 48.176 15.232 74.688 15.232z" fill="#e24b4b"/></svg>