<svg enable-background="new 0 0 512 512" viewBox="0 0 512 512" xmlns="http://www.w3.org/2000/svg"><circle cx="256" cy="256" fill="#ffd93b" r="256"/><path d="m512 256c0 141.44-114.64 256-256 256-80.48 0-152.32-37.12-199.28-95.28 43.92 35.52 99.84 56.72 160.72 56.72 141.36 0 256-114.56 256-256 0-60.88-21.2-116.8-56.72-160.72 58.08 46.96 95.28 118.8 95.28 199.28z" fill="#f4c534"/><path d="m354.592 407.184c-12.736 7.68-47.008-26.496-94.24-26.912-46.544-.416-81.504 34.608-94.24 26.912-15.248-6.208 10.832-80.608 94.24-81.056 83.408.448 109.488 74.864 94.24 81.056z" fill="#3e4347"/><path d="m390.336 221.52c0 22.544-18.448 40.992-41.088 40.992-22.656 0-41.088-18.448-41.088-40.992 0-22.752 18.448-41.088 41.088-41.088 22.656 0 41.088 18.336 41.088 41.088z" fill="#3e4347"/><ellipse cx="363.001" cy="204.161" fill="#5a5f63" rx="12.112" ry="7.712" transform="matrix(-.7551 -.6556 .6556 -.7551 503.256 596.3099)"/><path d="m203.84 221.52c0 22.544-18.448 40.992-41.088 40.992s-41.088-18.448-41.088-40.992c0-22.752 18.448-41.088 41.088-41.088s41.088 18.336 41.088 41.088z" fill="#3e4347"/><ellipse cx="176.489" cy="204.177" fill="#5a5f63" rx="12.112" ry="7.712" transform="matrix(-.7551 -.6556 .6556 -.7551 175.8983 474.0588)"/></svg>