<svg enable-background="new 0 0 512 512" viewBox="0 0 512 512" xmlns="http://www.w3.org/2000/svg"><circle cx="256" cy="256" fill="#ffd93b" r="256"/><path d="m512 256c0 141.44-114.672 256-256 256-80.528 0-152.32-37.12-199.248-95.248 43.84 35.52 99.84 56.752 160.64 56.752 141.44 0 256-114.56 256-256 0-60.912-21.12-116.8-56.64-160.752 58.016 46.928 95.248 118.816 95.248 199.248z" fill="#f4c534"/><path d="m219.952 155.632c4.368 2.992 5.44 8.848 2.448 13.232-2.88 4.368-8.848 5.44-13.232 2.56-32.112-21.872-75.952-13.552-97.808 18.448-2.96 4.272-8.656 5.488-13.328 2.56-4.272-2.992-5.44-8.96-2.448-13.232 27.728-40.752 83.504-51.312 124.368-23.568z" fill="#e9b02c"/><path d="m413.872 192.432c-4.224 2.816-10.128 1.904-13.232-2.56-21.872-32-65.712-40.32-97.808-18.448-4.368 2.88-10.352 1.808-13.232-2.56-2.992-4.368-1.92-10.24 2.448-13.232 40.752-27.728 96.64-17.168 124.368 23.568 2.992 4.272 1.824 10.24-2.544 13.232z" fill="#e9b02c"/><ellipse cx="158.912" cy="234.624" fill="#3e4347" rx="40.8" ry="40.752"/><ellipse cx="353.12" cy="234.624" fill="#3e4347" rx="40.8" ry="40.752"/><ellipse cx="369.264" cy="219.529" fill="#5a5f63" rx="10.528" ry="7.504" transform="matrix(-.7147 -.6994 .6994 -.7147 479.6399 634.6992)"/><ellipse cx="175.005" cy="219.579" fill="#5a5f63" rx="10.528" ry="7.504" transform="matrix(-.7106 -.7036 .7036 -.7106 144.8687 498.7444)"/><path d="m344.976 387.52c-59.52-23.792-116.48-24.208-170.992-1.392-10.352 4.368-19.84-7.472-13.76-16.96 18.992-29.968 56.112-50.24 98.992-50.24 43.84 0 81.712 21.328 100.272 52.368 5.648 9.392-4.384 20.16-14.512 16.224z" fill="#3e4347"/></svg>