<svg enable-background="new 0 0 512 512" viewBox="0 0 512 512" xmlns="http://www.w3.org/2000/svg"><circle cx="256" cy="256" fill="#ffd93b" r="256"/><path d="m512 256c0 141.44-114.64 256-256 256-80.48 0-152.32-37.12-199.28-95.28 43.92 35.52 99.84 56.72 160.72 56.72 141.36 0 256-114.56 256-256 0-60.88-21.2-116.8-56.72-160.72 58.08 46.96 95.28 118.8 95.28 199.28z" fill="#f4c534"/><ellipse cx="342.24" cy="191.712" fill="#3e4347" rx="40.8" ry="40.752"/><ellipse cx="358.29" cy="176.624" fill="#5a5f63" rx="10.512" ry="7.52" transform="matrix(-.7151 -.699 .699 -.7151 491.0445 553.3785)"/><ellipse cx="169.76" cy="191.712" fill="#3e4347" rx="40.8" ry="40.752"/><ellipse cx="153.683" cy="176.626" fill="#5a5f63" rx="7.52" ry="10.512" transform="matrix(-.699 -.7151 .7151 -.699 134.8027 409.9898)"/><ellipse cx="256" cy="374.88" fill="#3e4347" rx="65.584" ry="65.632"/><path d="m256 440.528c17.568 0 33.504-6.96 45.28-18.224-2.352-5.024-5.504-9.776-9.68-13.92-3.248-3.248-6.832-5.952-10.64-8.112-3.248-1.856-7.056-2.24-10.704-1.392-7.296 1.712-14.592 2.112-21.872 1.184-10.064-1.28-20.528 1.024-27.728 8.176-.048.048-.096.096-.144.144-4.176 4.16-7.344 8.928-9.712 13.968 11.76 11.248 27.664 18.176 45.2 18.176z" fill="#e24b4b"/><g fill="#fff"><path d="m256 358.432c24.08 0 45.616-2 60.048-9.92-10.16-23.088-33.2-39.248-60.048-39.248s-49.888 16.16-60.032 39.248c14.432 7.936 35.952 9.92 60.032 9.92z"/><ellipse cx="278.367" cy="409.699" opacity=".25" rx="8.223" ry="5.088" transform="matrix(-.8157 -.5785 .5785 -.8157 268.3923 904.919)"/></g></svg>