<svg enable-background="new 0 0 512 512" viewBox="0 0 512 512" xmlns="http://www.w3.org/2000/svg"><circle cx="256" cy="256" fill="#ffd93b" r="256"/><path d="m512 256c0 141.44-114.64 256-256 256-80.48 0-152.32-37.12-199.28-95.28 43.92 35.52 99.84 56.72 160.72 56.72 141.36 0 256-114.56 256-256 0-60.88-21.2-116.8-56.72-160.72 58.08 46.96 95.28 118.8 95.28 199.28z" fill="#f4c534"/><ellipse cx="249.648" cy="370.72" fill="#3e4347" rx="53.776" ry="58.768"/><circle cx="338.24" cy="220.624" fill="#3e4347" r="38.144"/><ellipse cx="354.389" cy="205.034" fill="#5a5f63" rx="10.016" ry="6.48" transform="matrix(-.597 -.8022 .8022 -.597 401.4816 611.7437)"/><path d="m399.952 209.824c-6-34.528-39.792-59.088-76.896-49.792-5.024 1.28-10.08-1.776-11.328-6.784s1.776-10.08 6.784-11.328c47.792-12 92 19.616 99.84 64.688.88 5.072-2.528 9.904-7.6 10.8-5.04.88-9.904-2.48-10.8-7.584z" fill="#3e4347"/><circle cx="173.76" cy="220.624" fill="#3e4347" r="38.144"/><ellipse cx="157.594" cy="205.102" fill="#5a5f63" rx="6.48" ry="10.016" transform="matrix(-.8022 -.597 .597 -.8022 161.5706 463.7274)"/><path d="m101.248 217.408c-5.072-.88-8.48-5.712-7.6-10.8 7.84-45.12 52.08-76.688 99.84-64.688 4.992 1.248 8.032 6.336 6.784 11.328s-6.288 8.064-11.328 6.784c-37.04-9.296-70.88 15.2-76.896 49.792-.896 5.104-5.76 8.464-10.8 7.584z" fill="#3e4347"/></svg>