<svg enable-background="new 0 0 512 512" viewBox="0 0 512 512" xmlns="http://www.w3.org/2000/svg"><path d="m512 256c0 141.44-114.72 256-256 256-141.44 0-256-114.56-256-256 0-141.28 114.56-256 256-256 141.28 0 256 114.72 256 256z" fill="#8cc63e"/><path d="m512 256c0 141.44-114.72 256-256 256-80.64 0-152.64-37.28-199.36-95.52 43.84 35.2 99.36 56.16 160 56.16 141.28 0 256-114.56 256-256 0-60.64-20.96-116.16-56.32-160 58.4 46.88 95.68 118.72 95.68 199.36z" fill="#7fb239"/><path d="m214.864 213.728c0 24.784-16.016 44.832-35.504 44.832-19.632 0-35.504-20.048-35.504-44.832s15.872-44.832 35.504-44.832c19.504.016 35.504 20.064 35.504 44.832z" fill="#3e4347"/><path d="m104.416 178.256c-5.152 0-9.632-3.824-10.304-9.072-.736-5.696 3.28-10.912 8.992-11.632 62.928-8.128 87.04-54.32 88.048-56.288 2.592-5.104 8.864-7.152 13.952-4.608 5.12 2.576 7.2 8.784 4.64 13.92-1.168 2.352-29.712 58-103.984 67.6-.448.048-.912.08-1.344.08z" fill="#7fb239"/><path d="m199.84 203.632c-3.04 1.584-7.264-.976-9.712-5.52s-2.128-9.568.752-11.152c2.896-1.44 7.264.976 9.712 5.52 2.464 4.544 2.144 9.552-.752 11.152z" fill="#5a5f63"/><path d="m406.448 178.256c5.152 0 9.632-3.824 10.304-9.072.736-5.696-3.28-10.912-8.992-11.632-62.928-8.128-87.04-54.32-88.048-56.288-2.592-5.104-8.864-7.152-13.952-4.608-5.12 2.576-7.2 8.784-4.64 13.92 1.168 2.352 29.712 58 103.984 67.6.448.048.896.08 1.344.08z" fill="#7fb239"/><path d="m135.152 352.32c6.24 17.92 1.44 36-10.88 40.32-12.16 4.16-27.2-6.72-33.44-24.64-6.4-17.92-1.44-35.84 10.72-40.16 12.32-4.32 27.2 6.72 33.6 24.48z" fill="#7fb239"/><path d="m420.112 368c-6.4 17.92-21.28 28.8-33.6 24.64-12.16-4.32-17.12-22.4-10.72-40.32 6.24-17.76 21.28-28.8 33.44-24.48 12.32 4.32 17.12 22.24 10.88 40.16z" fill="#7fb239"/><g fill="#3e4347"><path d="m304.16 384c9.872 4.192 18.288-10.704 11.808-20.784-14.24-22.112-36.112-36.32-60.816-36.32-23.424 0-44.288 12.768-58.544 32.944-7.424 10.528.848 26.016 11.552 21.52 31.008-13.04 63.056-11.344 96 2.64z"/><path d="m309.856 405.072c-7.216-14.352-7.6-32.208-1.04-48.992 8-20.432 25.168-35.28 43.76-37.808 4.368-.56 8.4 2.464 9.008 6.848.592 4.384-2.464 8.4-6.848 9.008-12.928 1.76-25.088 12.672-31.008 27.776-4.848 12.384-4.672 25.824.432 35.984 1.984 3.952.384 8.752-3.552 10.736-3.92 1.968-8.752.432-10.752-3.552z"/><path d="m191.408 408.624c-3.952-1.984-5.536-6.8-3.552-10.736 5.104-10.16 5.28-23.6.432-35.984-5.92-15.104-18.08-26.016-31.008-27.776-4.384-.608-7.44-4.624-6.848-9.008s4.592-7.392 9.008-6.848c18.592 2.528 35.76 17.36 43.76 37.808 6.56 16.784 6.176 34.64-1.04 48.992-2.016 3.984-6.848 5.52-10.752 3.552z"/><path d="m366.992 213.728c0 24.784-16.016 44.832-35.504 44.832-19.632 0-35.504-20.048-35.504-44.832s15.872-44.832 35.504-44.832c19.488.016 35.504 20.064 35.504 44.832z"/></g><path d="m351.968 203.632c-3.024 1.584-7.264-.976-9.712-5.52s-2.128-9.568.768-11.152c2.896-1.44 7.264.976 9.712 5.52s2.128 9.552-.768 11.152z" fill="#5a5f63"/></svg>