<svg enable-background="new 0 0 512 512" viewBox="0 0 512 512" xmlns="http://www.w3.org/2000/svg"><circle cx="256" cy="256" fill="#ffd93b" r="256"/><path d="m512 256c0 141.44-114.64 256-256 256-80.48 0-152.32-37.12-199.28-95.28 43.92 35.52 99.84 56.72 160.72 56.72 141.36 0 256-114.56 256-256 0-60.88-21.2-116.8-56.72-160.72 58.08 46.96 95.28 118.8 95.28 199.28z" fill="#f4c534"/><path d="m422.352 219.296c7.152 50.368-19.632 95.696-59.808 101.408-40.192 5.712-78.528-30.368-85.696-80.736-7.152-50.368 19.6-95.856 59.792-101.568s78.56 30.544 85.712 80.896z" fill="#fff"/><path d="m383.456 258.576c0 19.84-16 36-35.84 36-20 0-36.16-16.16-36.16-36s16.16-36 36.16-36c19.84 0 35.84 16.16 35.84 36z" fill="#3e4347"/><path d="m367.616 253.136c-2.72 2.72-8.16 1.76-12.16-2.24-4-4.16-5.12-9.6-2.4-12.32s8-1.76 12.16 2.24c4 4.16 5.12 9.6 2.4 12.32z" fill="#fff"/><path d="m305.536 111.04s26.896 38.688 117.968 27.584c0 0-129.296 58.416-117.968-27.584z" fill="#3e4347"/><path d="m89.648 219.296c-7.152 50.368 19.632 95.696 59.808 101.408 40.192 5.712 78.528-30.368 85.696-80.736 7.152-50.368-19.6-95.856-59.792-101.568s-78.56 30.544-85.712 80.896z" fill="#fff"/><path d="m200.544 258.576c0 19.84-16 36-35.84 36-20 0-36.16-16.16-36.16-36s16.16-36 36.16-36c19.84 0 35.84 16.16 35.84 36z" fill="#3e4347"/><path d="m184.704 253.136c-2.72 2.72-8.16 1.76-12.16-2.24-4-4.16-5.12-9.6-2.4-12.32s8-1.76 12.16 2.24c4 4.16 5.12 9.6 2.4 12.32z" fill="#fff"/><g fill="#3e4347"><path d="m186.256 81.776s-9.616 46.128-97.776 71.552c.016 0 141.872 3.152 97.776-71.552z"/><path d="m337.6 382.736c0 9.6-7.84 17.28-17.44 17.28h-128.32c-9.6 0-17.44-7.68-17.44-17.28s7.84-17.44 17.44-17.44h128.32c9.6 0 17.44 7.84 17.44 17.44z"/></g></svg>