<svg enable-background="new 0 0 512 512" viewBox="0 0 512 512" xmlns="http://www.w3.org/2000/svg"><circle cx="256" cy="256" fill="#ffd93b" r="256"/><path d="m512 256c0 141.44-114.672 256-256 256-80.528 0-152.32-37.12-199.248-95.248 43.84 35.52 99.84 56.752 160.64 56.752 141.44 0 256-114.56 256-256 0-60.912-21.12-116.8-56.64-160.752 58.016 46.928 95.248 118.816 95.248 199.248z" fill="#f4c534"/><g fill="#3e4347"><path d="m359.568 398.416c-10.784 6.272-47.984-22.928-100.704-21.344-52.736-1.6-89.92 27.6-100.704 21.344-13.2-4.944 17.008-66.672 100.704-66.816 83.696.144 113.92 61.888 100.704 66.816z"/><path d="m105.984 253.056c9.552-13.936 35.328-23.552 58.064-23.552 22.656 0 48.4 9.616 57.968 23.552-1.776-35.216-27.008-54.176-57.968-54.176-31.04 0-56.272 18.96-58.064 54.176z"/><path d="m289.984 253.056c9.552-13.936 35.328-23.552 58.064-23.552 22.656 0 48.4 9.616 57.968 23.552-1.776-35.216-27.008-54.176-57.968-54.176-31.04 0-56.272 18.96-58.064 54.176z"/></g><path d="m476.528 167.584c0-22.176-40.16-77.504-40.16-77.504s-40.16 55.328-40.16 77.504 17.984 40.16 40.16 40.16 40.16-17.968 40.16-40.16z" fill="#45cbea"/><path d="m458.176 184.608c-3.888 5.472-10.096 7.904-13.616 5.472-3.648-2.432-3.408-9.008.608-14.48 3.888-5.472 10.096-8.032 13.744-5.472 3.52 2.432 3.28 8.88-.736 14.48z" fill="#fff" opacity=".2"/><path d="m392.32 69.232c0-15.696-28.4-54.816-28.4-54.816s-28.4 39.12-28.4 54.816 12.72 28.4 28.4 28.4 28.4-12.704 28.4-28.4z" fill="#45cbea"/><path d="m379.344 81.264c-2.752 3.872-7.136 5.584-9.632 3.872-2.576-1.728-2.416-6.368.432-10.24 2.752-3.872 7.136-5.68 9.728-3.872 2.48 1.728 2.304 6.288-.528 10.24z" fill="#fff" opacity=".2"/></svg>