<svg enable-background="new 0 0 512 512" viewBox="0 0 512 512" xmlns="http://www.w3.org/2000/svg"><circle cx="256" cy="256" fill="#ffd93b" r="256"/><path d="m512 256c0 141.44-114.672 256-256 256-80.528 0-152.32-37.12-199.248-95.248 43.84 35.52 99.84 56.752 160.64 56.752 141.44 0 256-114.56 256-256 0-60.912-21.12-116.8-56.64-160.752 58.016 46.928 95.248 118.816 95.248 199.248z" fill="#f4c534"/><path d="m221.648 238.928c0 17.92-14.4 32.528-32.432 32.528s-32.528-14.608-32.528-32.528c0-2.992.432-5.968 1.168-8.64h-36.16c-6.608 0-11.952-5.328-11.952-11.952s5.344-11.936 11.968-11.936h67.52c18.016 0 32.416 14.512 32.416 32.528z" fill="#3e4347"/><path d="m402.24 238.928c0 17.92-14.4 32.528-32.432 32.528-17.92 0-32.528-14.608-32.528-32.528 0-2.992.432-5.968 1.168-8.64h-36.16c-6.608 0-11.952-5.328-11.952-11.952s5.344-11.936 11.952-11.936h67.52c18.032 0 32.432 14.512 32.432 32.528z" fill="#3e4347"/><path d="m219.952 155.632c4.368 2.992 5.44 8.848 2.448 13.232-2.88 4.368-8.848 5.44-13.232 2.56-32.112-21.872-75.952-13.552-97.808 18.448-2.96 4.272-8.656 5.488-13.328 2.56-4.272-2.992-5.44-8.96-2.448-13.232 27.728-40.752 83.504-51.312 124.368-23.568z" fill="#e9b02c"/><path d="m413.872 192.432c-4.224 2.816-10.128 1.904-13.232-2.56-21.872-32-65.712-40.32-97.808-18.448-4.368 2.88-10.352 1.808-13.232-2.56-2.992-4.368-1.92-10.24 2.448-13.232 40.752-27.728 96.64-17.168 124.368 23.568 2.992 4.272 1.824 10.24-2.544 13.232z" fill="#e9b02c"/><path d="m359.568 398.416c-10.784 6.272-47.984-22.928-100.704-21.344-52.736-1.6-89.92 27.6-100.704 21.344-13.2-4.944 17.008-66.672 100.704-66.816 83.696.144 113.92 61.888 100.704 66.816z" fill="#3e4347"/></svg>