<svg enable-background="new 0 0 512 512" viewBox="0 0 512 512" xmlns="http://www.w3.org/2000/svg"><circle cx="256" cy="256" fill="#ffd93b" r="256"/><path d="m512 256c0 141.44-114.64 256-256 256-80.48 0-152.32-37.12-199.28-95.28 43.92 35.52 99.84 56.72 160.72 56.72 141.36 0 256-114.56 256-256 0-60.88-21.2-116.8-56.72-160.72 58.08 46.96 95.28 118.8 95.28 199.28z" fill="#f4c534"/><path d="m388.368 309.264c22.496 6.16-13.552 125.776-132.368 126.656-118.816-.88-154.864-120.496-132.368-126.656 17.984-8.864 66.224 40.256 132.368 40.256 67.056-.016 114.384-49.12 132.368-40.256z" fill="#3e4347"/><path d="m173.344 256.784c-1.392 1.712-3.728 2.128-5.648 1.072-14.4-7.568-72.32-40-77.872-70.192-3.52-19.088 9.072-37.44 28.16-40.96 13.76-2.56 27.088 3.312 34.88 14.08 3.312-12.8 13.76-23.04 27.52-25.488 19.088-3.52 37.328 9.072 40.848 28.16 5.552 30.176-37.12 81.056-47.888 93.328z" fill="#e24b4b"/><path d="m179.424 249.632c-2.448 2.992-4.592 5.44-6.08 7.152-1.392 1.712-3.728 2.128-5.648 1.072-14.4-7.568-72.32-40-77.872-70.192-3.2-17.168 6.608-33.712 22.512-39.36-8.112 7.888-12.272 19.632-10.032 31.568 5.44 29.76 61.648 61.648 77.12 69.76z" fill="#d03f3f"/><ellipse cx="196.632" cy="162.802" fill="#fff" opacity=".2" rx="13.871" ry="9.344" transform="matrix(-.3654 -.9308 .9308 -.3654 116.941 405.326)"/><path d="m332.752 256.784c1.392 1.712 3.728 2.128 5.648 1.072 14.4-7.568 72.32-40 77.872-70.192 3.52-19.088-9.072-37.44-28.16-40.96-13.76-2.56-27.088 3.312-34.88 14.08-3.312-12.8-13.76-23.04-27.52-25.488-19.088-3.52-37.328 9.072-40.848 28.16-5.552 30.176 37.104 81.056 47.888 93.328z" fill="#e24b4b"/><path d="m326.672 249.632c2.448 2.992 4.592 5.44 6.08 7.152 1.392 1.712 3.728 2.128 5.648 1.072 14.4-7.568 72.32-40 77.872-70.192 3.2-17.168-6.608-33.712-22.512-39.36 8.112 7.888 12.272 19.632 10.032 31.568-5.44 29.76-61.664 61.648-77.12 69.76z" fill="#d03f3f"/><ellipse cx="309.42" cy="162.82" fill="#fff" opacity=".2" rx="9.344" ry="13.871" transform="matrix(-.9308 -.3654 .3654 -.9308 537.9436 427.4479)"/><path d="m256 435.92c22.944-.176 42.768-4.8 59.712-12.144-3.84-11.28-10.736-21.12-19.808-28.496-7.28-6-17.28-7.088-26.272-4.176-5.184 1.632-11.008 2.64-17.456 2.64-5.008 0-9.632-.64-13.904-1.632-9.728-2.448-19.904.448-26.992 7.552-6.704 6.704-11.84 14.96-14.96 24.144 16.944 7.328 36.752 11.952 59.68 12.112z" fill="#e24b4b"/></svg>