<?xml version="1.0" standalone="no"?><!DOCTYPE svg PUBLIC "-//W3C//DTD SVG 1.1//EN" "http://www.w3.org/Graphics/SVG/1.1/DTD/svg11.dtd"><svg class="icon" width="200px" height="200.00px" viewBox="0 0 1024 1024" version="1.1" xmlns="http://www.w3.org/2000/svg"><path fill="#1296db" d="M903.37792 346.52672a423.29088 423.29088 0 0 0-91.02336-135.00928 423.36768 423.36768 0 0 0-135.00416-91.01824A422.10816 422.10816 0 0 0 512 87.10656a422.0928 422.0928 0 0 0-165.3504 33.39264 423.36256 423.36256 0 0 0-135.00928 91.01824 423.3472 423.3472 0 0 0-91.02336 135.00928 422.0928 422.0928 0 0 0-33.39264 165.3504 422.0928 422.0928 0 0 0 33.39264 165.3504 423.24992 423.24992 0 0 0 91.02336 134.99904 423.23456 423.23456 0 0 0 135.00928 91.02336A422.1952 422.1952 0 0 0 512 936.63744a422.17472 422.17472 0 0 0 165.3504-33.38752 423.3216 423.3216 0 0 0 135.00416-91.02336 423.36256 423.36256 0 0 0 91.02336-134.99904 422.10304 422.10304 0 0 0 33.38752-165.3504 421.9904 421.9904 0 0 0-33.38752-165.3504zM412.99968 458.10176c-51.3536-4.39808-79.95392-34.44736-85.80096-90.19904 5.84704-55.72096 34.44736-85.80096 85.80096-90.19904 54.2464 4.39808 83.59936 34.47808 88.00256 90.19904-4.4032 55.75168-33.75616 85.79584-88.00256 90.19904z m0-57.20064c19.0464-1.44384 29.32224-12.44672 30.80192-32.9984-1.47968-20.52096-11.75552-31.52384-30.80192-32.9984-17.60256 1.47968-27.15648 12.47744-28.60032 32.9984 1.44384 20.55168 11.00288 31.55456 28.60032 32.9984z m-19.79904 241.9968l186.99776-352c5.84704-13.19936 14.63808-19.0464 26.39872-17.60256 19.04128 1.47968 30.03904 11.75552 32.99328 30.80192 0 5.87776-1.47968 11.75552-4.39296 17.60256l-189.20448 354.2016-2.2016 2.2016c-7.35744 10.25024-15.40096 14.64832-24.20224 13.19936-17.60256-2.94912-27.8784-11.71968-30.80192-26.39872 0.01536-10.25536 1.4592-17.60256 4.41344-22.00576z m217.79968 44.00128c-52.80256-2.9184-81.39776-31.51872-85.80096-85.80096 5.85216-55.72096 34.45248-86.51776 85.80096-92.40064 52.80256 4.39808 82.11968 35.2 88.00256 92.40064-4.4032 54.28224-33.75104 82.88256-88.00256 85.80096z m0-52.79744c19.05152-1.43872 29.32224-12.44672 30.80192-32.9984-1.47968-22.00064-11.7504-33.72032-30.80192-35.2-17.60256 1.47968-27.15648 13.19936-28.60032 35.2 1.44384 20.55168 10.99776 31.54432 28.60032 32.9984z" /></svg>