<?xml version="1.0" standalone="no"?><!DOCTYPE svg PUBLIC "-//W3C//DTD SVG 1.1//EN" "http://www.w3.org/Graphics/SVG/1.1/DTD/svg11.dtd"><svg t="1614162595426" class="icon" viewBox="0 0 1081 1024" version="1.1" xmlns="http://www.w3.org/2000/svg" p-id="13297" xmlns:xlink="http://www.w3.org/1999/xlink" width="211.1328125" height="200"><defs><style type="text/css"></style></defs><path d="M540.57038 0c-29.22303 0-56.456166 17.226806-70.158014 44.118816L345.731226 293.708511l-278.528454 49.91794c-31.156071 3.922936-54.466271 24.902115-64.245184 53.670312-7.732164 26.89201 0 59.583144 21.490867 80.732886l200.581422 184.491699-52.646938 268.749542c-5.799123 28.825051 7.789018 59.583144 31.212926 76.753095 13.076453 9.778913 29.393593 14.611515 45.483315 14.611516 12.678474 0 25.129532-3.01327 36.216091-8.869247l255.275109-124.794848 253.228361 124.794848c11.711954 5.685414 25.300094 9.60835 36.955194 9.60835 17.567931 0 33.20282-5.685414 44.801066-15.350619 23.423908-17.169952 36.955194-45.995003 31.212925-76.753095l-50.713897-268.749542 200.581423-186.311032c21.490867-21.149742 29.22303-51.907834 19.500971-80.732886a74.649492 74.649492 0 0 0-62.425851-53.670312l-278.4716-47.984898-124.68114-249.589695C599.016441 17.397368 569.793411 0 540.57038 0z" fill="#444444" p-id="13298"></path></svg>