<?xml version="1.0" standalone="no"?><!DOCTYPE svg PUBLIC "-//W3C//DTD SVG 1.1//EN" "http://www.w3.org/Graphics/SVG/1.1/DTD/svg11.dtd"><svg t="1614231275135" class="icon" viewBox="0 0 1024 1024" version="1.1" xmlns="http://www.w3.org/2000/svg" p-id="2134" xmlns:xlink="http://www.w3.org/1999/xlink" width="200" height="200"><defs><style type="text/css"></style></defs><path d="M0.5632 188.672c0 15.8208 6.656 31.5904 18.176 42.752 11.52 11.264 27.6992 17.8176 44.032 17.8176 16.4352-0.1024 32.2048-6.4512 43.8784-17.7152 11.5712-11.264 18.2784-27.0336 18.2784-42.8544 0-16.0768-6.5536-31.488-18.1248-42.9568a63.744 63.744 0 0 0-88.064 0A61.0816 61.0816 0 0 0 0.5632 188.672m0 323.2768c0 15.872 6.656 31.744 18.176 42.9568a63.5904 63.5904 0 0 0 88.0128 0c11.5712-11.4176 18.1248-26.88 18.176-42.9568a60.7232 60.7232 0 0 0-18.176-42.8544 63.6416 63.6416 0 0 0-88.064 0A60.4672 60.4672 0 0 0 0.5632 512m0 323.3792c0 15.872 6.656 31.744 18.176 42.9568a63.5904 63.5904 0 0 0 88.0128 0c11.5712-11.4176 18.1248-26.88 18.176-42.9568a60.7232 60.7232 0 0 0-18.176-42.9056 63.6416 63.6416 0 0 0-88.064 0 60.928 60.928 0 0 0-18.1248 42.9056M964.7104 249.2416H309.1456A60.1088 60.1088 0 0 1 249.3952 188.672 60.0576 60.0576 0 0 1 309.1456 128h655.5648c33.1264 0 59.8528 27.136 59.8528 60.672 0 33.4848-26.7776 60.5696-59.8528 60.5696z m0 323.3792H309.1456c-33.0752 0-59.8016-27.136-59.8016-60.672 0-33.4848 26.7264-60.5696 59.8016-60.5696h655.5648A60.0064 60.0064 0 0 1 1024.5632 512c0 33.4336-26.7776 60.672-59.8528 60.672z m0 323.3792H309.1456c-33.0752 0-59.8016-27.136-59.8016-60.7232 0-33.4336 26.7264-60.5696 59.8016-60.5696h655.5648A60.16 60.16 0 0 1 1024.5632 835.2768c0 33.536-26.7776 60.7232-59.8528 60.7232z" p-id="2135" fill="#1296db"></path></svg>