<svg xmlns="http://www.w3.org/2000/svg" viewBox="0 0 215 313.43"><defs><style>.a{fill:#fff}</style></defs><path d="M0 0h215v313.43H0z"/><path class="a" d="M18.69 65.57h177.63v176.65H18.69z"/><path d="M23.28 107.25l55.64-14.82 31.74 73.82.28-.09-9.59-79.67 55.62-14.8 34.75 128.86-33.9 9-24.84-92.13-.28.1 10.53 95.9-36.69 9.79-39.15-88.3-.27.07 24.8 92.13-33.89 8.99-34.75-128.85z"/><path class="a" d="M18.68 271h10.26v13.26a4.11 4.11 0 0 0 1.18 3.25q1.83 1.82 8 1.81t7.88-1.81a4.11 4.11 0 0 0 1.17-3.25V271h10.29v13.27a6.46 6.46 0 0 1-2.39 5.36q-4.44 3.53-17 3.52t-17-3.52a6.49 6.49 0 0 1-2.39-5.36zm55.76 14.93a3.7 3.7 0 0 0 1.84 2.21c1.68.89 4.54 1.33 8.6 1.33a41 41 0 0 0 5.93-.35c2.88-.45 4.31-1.29 4.31-2.51 0-.71-.7-1.26-2.11-1.65a44.47 44.47 0 0 0-6.71-1l-5.23-.51a62.11 62.11 0 0 1-10.59-1.66c-3.26-1-4.89-2.55-4.89-4.67 0-1.94 1.59-3.54 4.78-4.82s7.86-1.92 14-1.92a42.11 42.11 0 0 1 13.19 1.81q5.45 1.8 5.72 5.25h-9.7q-.27-1.95-3.9-2.77a28.21 28.21 0 0 0-6-.54 23.3 23.3 0 0 0-6.38.7c-1.59.47-2.39 1.13-2.39 2s.79 1.35 2.36 1.73a55.08 55.08 0 0 0 6.41.9l8.48.89a38.64 38.64 0 0 1 8.36 1.57q4.32 1.51 4.32 4.41t-5.12 4.91q-5.11 1.95-14.46 2-9.54 0-15-1.93c-3.64-1.28-5.47-3.05-5.47-5.29zm73.23-11.11H122.1v4.59h23.47v3.75H122.1v5.55h26.75v3.88h-36.61V271h35.43zm40.01-3.26a15.87 15.87 0 0 1 4.52 1.5 8.76 8.76 0 0 1 2.43 1.82 3.28 3.28 0 0 1 .9 2.27 4.11 4.11 0 0 1-1.74 3 11.66 11.66 0 0 1-5.74 2.1 11 11 0 0 1 4.74 1.71 4 4 0 0 1 1.39 3.37v1.45a5 5 0 0 0 .27 2 2.74 2.74 0 0 0 1.86 1.23v.54h-11.14a9.93 9.93 0 0 1-.66-1.16 5 5 0 0 1-.42-1.86l-.07-2a2.82 2.82 0 0 0-1.59-2.76 16.1 16.1 0 0 0-5.76-.69h-9.86v8.47H157V271h23.11a44.31 44.31 0 0 1 7.57.56zm-20.87 3.19v5.8h10.87a25 25 0 0 0 4.85-.35c1.91-.41 2.87-1.22 2.87-2.43s-.92-2.19-2.77-2.64a21.49 21.49 0 0 0-4.67-.38zM20.44 252.7a4.93 4.93 0 0 1 3.9-1.77 5 5 0 0 1 4.66 2.38 5.64 5.64 0 0 1 .87 2.68h-2.69a4.25 4.25 0 0 0-.65-1.56 2.47 2.47 0 0 0-2.09-.94 2.51 2.51 0 0 0-2.23 1.33 7.08 7.08 0 0 0-.82 3.74 6.27 6.27 0 0 0 .86 3.63 2.62 2.62 0 0 0 2.19 1.21 2.38 2.38 0 0 0 2.08-1 4.87 4.87 0 0 0 .65-1.67h2.63a6.71 6.71 0 0 1-1.74 3.83 4.71 4.71 0 0 1-3.58 1.44 5.08 5.08 0 0 1-4.25-2 8.76 8.76 0 0 1-1.55-5.49 8.66 8.66 0 0 1 1.76-5.81zm21.26 11.61a5.17 5.17 0 0 1-4.16 1.69 5.16 5.16 0 0 1-4.15-1.68 8.38 8.38 0 0 1-1.92-5.93q0-4 1.92-5.94a5.16 5.16 0 0 1 4.15-1.68 5.17 5.17 0 0 1 4.16 1.68q1.9 2 1.91 5.94a8.42 8.42 0 0 1-1.91 5.92zm-1.7-2.18a8.1 8.1 0 0 0 0-7.5 3 3 0 0 0-5 0 8 8 0 0 0 0 7.5 3 3 0 0 0 5 0zm5.59-10.93h2.77l5 10v-10h2.47v14.39h-2.62l-5.16-10.21v10.21h-2.46zm21.95 0v2.55h-3.79v11.84h-2.66v-11.84h-3.81v-2.55zm10.91 2.55h-6.7v3.05h6.16v2.5h-6.16v3.7h7v2.58h-9.58V251.2h9.28zm2.33-2.55h2.78l5 10v-10h2.46v14.39h-2.61l-5.16-10.21v10.21h-2.47zm21.96 0v2.55H99v11.84h-2.71v-11.84h-3.81v-2.55zm14.55.37a3.19 3.19 0 0 1 1.19 1 4.48 4.48 0 0 1 .63 1.21 4.39 4.39 0 0 1 .24 1.51 4.72 4.72 0 0 1-.46 2 2.62 2.62 0 0 1-1.5 1.4 2.48 2.48 0 0 1 1.24 1.14 5.33 5.33 0 0 1 .37 2.25v1a7.84 7.84 0 0 0 .07 1.34 1.18 1.18 0 0 0 .48.82v.36h-2.92c-.08-.32-.13-.57-.17-.77a7.24 7.24 0 0 1-.11-1.24v-1.34a3 3 0 0 0-.42-1.83 1.92 1.92 0 0 0-1.5-.46h-2.59v5.64h-2.59v-14.4h6.06a4.91 4.91 0 0 1 1.98.37zm-5.47 2.13v3.87h2.85a2.62 2.62 0 0 0 1.27-.24 1.67 1.67 0 0 0 .75-1.62A1.92 1.92 0 0 0 116 254a2.38 2.38 0 0 0-1.23-.25zm13.68-2.5h3l4.5 14.39h-2.87l-.83-3h-4.67l-.86 3H121zm-.17 8.95h3.24l-1.6-5.66zm17.17-8.95v2.55h-3.79v11.84H136v-11.84h-3.8v-2.55zm10.91 2.55h-6.7v3.05h6.15v2.5h-6.15v3.7h7v2.58h-9.6V251.2h9.29zm9.79-2.24a4.25 4.25 0 0 1 2.16 1.83 6.86 6.86 0 0 1 .91 2.32 12.63 12.63 0 0 1 .24 2.38 10.6 10.6 0 0 1-1 4.87 4.49 4.49 0 0 1-4.25 2.68h-5.46V251.2h5.46a6 6 0 0 1 1.94.31zm-4.85 2.19v9.39h2.45a2.67 2.67 0 0 0 2.61-2.1 8.23 8.23 0 0 0 .41-2.74 7.54 7.54 0 0 0-.61-3.37 2.44 2.44 0 0 0-2.41-1.18zm24.48-.97a4.1 4.1 0 0 1 .58 2.2 3.53 3.53 0 0 1-.59 2.12 3.11 3.11 0 0 1-1 .82 2.92 2.92 0 0 1 1.47 1.27 4.19 4.19 0 0 1 .49 2.11 4.68 4.68 0 0 1-.56 2.29 3.92 3.92 0 0 1-.9 1.14 3.29 3.29 0 0 1-1.43.72 7.8 7.8 0 0 1-1.79.19h-5.71V251.2h6.12a3.72 3.72 0 0 1 3.32 1.53zm-6.88 1v3.17H179a2.38 2.38 0 0 0 1.34-.35 1.44 1.44 0 0 0 .51-1.27 1.33 1.33 0 0 0-.68-1.33 4.24 4.24 0 0 0-1.5-.22zm0 5.56v3.83H179a2.71 2.71 0 0 0 1.29-.25 1.88 1.88 0 0 0 .83-1.8 1.57 1.57 0 0 0-.81-1.54 2.71 2.71 0 0 0-1.26-.24zm17.37-8.09h3l-4.23 9v5.39h-2.65v-5.39l-4.38-9h3.12l2.63 6.27zM39.53 20.28h9.4v35.83h-6.08V26.04L37 56.11h-6.39L24.73 26v30.11h-6.04V20.28h9.5l5.69 28.17zm24.39 0h7.39l11.06 35.83h-7.08l-2.06-7.36H61.71l-2.12 7.36h-6.83zm-.43 22.29h8l-4-14.1zm42.38-22.29v6.35h-9.36v29.48h-6.57V26.63h-9.4v-6.35zm3.81 0h6.64v22a14.21 14.21 0 0 0 .76 5.39q1.19 3 5.16 3t5.14-3a14 14 0 0 0 .76-5.39v-22h6.64v22a20.78 20.78 0 0 1-1.55 8.9q-2.88 5.84-11 5.84t-11-5.84a20.78 20.78 0 0 1-1.55-8.9zm51.41.93a7.79 7.79 0 0 1 2.93 2.5 11.49 11.49 0 0 1 1.57 3 11.31 11.31 0 0 1 .58 3.77 12 12 0 0 1-1.12 5 6.56 6.56 0 0 1-3.71 3.52 6.07 6.07 0 0 1 3.06 2.83 13.28 13.28 0 0 1 .9 5.6v2.41a21.38 21.38 0 0 0 .17 3.33 3.08 3.08 0 0 0 1.21 2v.9h-7.21c-.2-.79-.34-1.43-.43-1.92a20.76 20.76 0 0 1-.27-3.09v-3.33c0-2.28-.37-3.8-1-4.57s-1.9-1.14-3.72-1.14h-6.38v14h-6.38V20.28h14.95a12 12 0 0 1 4.85.93zm-13.5 5.29v9.63h7a6.62 6.62 0 0 0 3.14-.58c1.24-.68 1.86-2 1.86-4q0-3.26-1.8-4.37a5.65 5.65 0 0 0-3-.64zm47.96.13H179v7.6h15.18v6.23H179v9.21h17.3v6.44h-23.68V20.28h22.93z"/></svg>