<?xml version="1.0" standalone="no"?><!DOCTYPE svg PUBLIC "-//W3C//DTD SVG 1.1//EN" "http://www.w3.org/Graphics/SVG/1.1/DTD/svg11.dtd"><svg t="1614175302326" class="icon" viewBox="0 0 1024 1024" version="1.1" xmlns="http://www.w3.org/2000/svg" p-id="9615" xmlns:xlink="http://www.w3.org/1999/xlink" width="200" height="200"><defs><style type="text/css"></style></defs><path d="M404.032 382.4l86.4 0 0 43.2-86.4 0 0-43.2Z" p-id="9616" fill="#1296db"></path><path d="M58.432 252.8l0 518.4 43.2 0 0-43.2 43.2 0L144.832 684.8l43.2 0 0-43.2 777.6 0L965.632 252.8 58.432 252.8zM317.632 339.2l0 43.2L188.032 382.4 188.032 425.6l129.6 0 0 43.2L188.032 468.8l0 86.4L144.832 555.2 144.832 339.2 317.632 339.2zM360.832 339.2l172.8 0 0 86.4L490.432 425.6l0 43.2 43.2 0 0 86.4L490.432 555.2l0-86.4-86.4 0 0 86.4L360.832 555.2 360.832 339.2zM576.832 555.2 576.832 339.2l129.6 0 0 43.2-86.4 0L620.032 425.6l86.4 0 0 43.2-86.4 0L620.032 512l86.4 0 0 43.2L576.832 555.2zM749.632 555.2 749.632 339.2l129.6 0 0 43.2-86.4 0L792.832 425.6l86.4 0 0 43.2-86.4 0L792.832 512l86.4 0 0 43.2L749.632 555.2z" p-id="9617" fill="#1296db"></path></svg>