<?xml version="1.0" encoding="iso-8859-1"?>
<!-- Generator: Adobe Illustrator 19.0.0, SVG Export Plug-In . SVG Version: 6.00 Build 0)  -->
<svg version="1.1" id="Layer_1" xmlns="http://www.w3.org/2000/svg" xmlns:xlink="http://www.w3.org/1999/xlink" x="0px" y="0px"
	 viewBox="0 0 512 512" style="enable-background:new 0 0 512 512;" xml:space="preserve">
<path style="fill:#FFFFFF;" d="M256,16C124,16,16,124,16,256s108,240,240,240s240-108,240-240S388,16,256,16z"/>
<path style="fill:#13B7E6;" d="M256,0C114.4,0,0,114.4,0,256s114.4,256,256,256s256-114.4,256-256S397.6,0,256,0z M256,496
	C124,496,16,388,16,256S124,16,256,16s240,108,240,240S388,496,256,496z"/>
<path style="fill:#32BEA6;" d="M236,406.4v-35.2c-24.8-0.8-48.8-8-63.2-16L184,312c15.2,8.8,37.6,16,61.6,16c20.8,0,36-8,36-23.2
	c0-14.4-12-23.2-39.2-32c-40-13.6-66.4-32-66.4-67.2c0-32.8,23.2-57.6,62.4-65.6v-35.2h36v32.8c24.8,0.8,41.6,6.4,53.6,12L317.6,192
	c-9.6-4-26.4-12.8-53.6-12.8c-24,0-32,10.4-32,20.8c0,12,12.8,20,44.8,32c44,15.2,61.6,36,61.6,68.8s-23.2,60.8-66.4,68v37.6H236
	L236,406.4z"/>
<g>
</g>
<g>
</g>
<g>
</g>
<g>
</g>
<g>
</g>
<g>
</g>
<g>
</g>
<g>
</g>
<g>
</g>
<g>
</g>
<g>
</g>
<g>
</g>
<g>
</g>
<g>
</g>
<g>
</g>
</svg>
