<svg height="498pt" viewBox="-1 0 498 498.584" width="498pt" xmlns="http://www.w3.org/2000/svg" xmlns:xlink="http://www.w3.org/1999/xlink"><linearGradient id="a" gradientUnits="userSpaceOnUse" x1="248.292" x2="248.292" y1="498.584" y2="-.0016"><stop offset="0" stop-color="#9f2fff"/><stop offset="1" stop-color="#0bb1d3"/></linearGradient><path d="m.292969 214.929688v283.65625h496v-283.65625l-248-214.929688zm475.421875 3.34375-99.421875 77.804687v-149.492187h-256v149.492187l-99.425781-77.804687 227.425781-197.105469zm-296.886719 143.925781-162.535156 113.074219v-240.273438zm181.464844-53.597657-58.761719 45.984376h-106.480469l-58.757812-45.984376v-146.015624h224zm-165.488281 61.984376h106.96875l161 112h-428.96875zm122.953124-8.386719 162.535157-127.199219v240.273438zm26.535157-167.613281h-192v-16h192zm-160 32h-32v-16h32zm16-16h144v16h-144zm144 48h-192v-16h192zm-32 32h-160v-16h160zm16-16h16v16h-16zm-136 32h112v16h-112zm0 0" fill="url(#a)"/></svg>