<svg height="384pt" viewBox="0 0 384 384" width="384pt" xmlns="http://www.w3.org/2000/svg"><path d="m374 0h-99.699219c-5.523437 0-10 4.476562-10 10s4.476563 10 10 10h75.699219l-194.5 196.398438c-1.882812 1.871093-2.929688 4.421874-2.914062 7.074218.019531 2.652344 1.105468 5.183594 3.015624 7.027344 1.871094 1.832031 4.378907 2.867188 7 2.898438 2.671876 0 5.234376-1.082032 7.097657-3l194.300781-196.097657v75.398438c0 5.523437 4.476562 10 10 10s10-4.476563 10-10v-99.699219c-.015625-5.515625-4.484375-9.984375-10-10zm0 0" fill="#00acea"/><path d="m284.101562 384h-234.101562c-27.609375-.011719-49.9882812-22.390625-50-50v-234.101562c.0117188-27.609376 22.390625-49.988282 50-50h109.5c5.523438 0 10 4.480468 10 10 0 5.523437-4.476562 10-10 10h-109.5c-16.546875.050781-29.953125 13.453124-30 30v234.101562c.046875 16.546875 13.453125 29.953125 30 30h234.101562c16.546876-.046875 29.949219-13.453125 30-30v-109.5c0-5.523438 4.476563-10 10-10 5.519532 0 10 4.476562 10 10v109.5c-.011718 27.609375-22.390624 49.988281-50 50zm0 0" fill="#00efd1"/></svg>