<?xml version="1.0" standalone="no"?><!DOCTYPE svg PUBLIC "-//W3C//DTD SVG 1.1//EN" "http://www.w3.org/Graphics/SVG/1.1/DTD/svg11.dtd"><svg t="1614129113603" class="icon" viewBox="0 0 1024 1024" version="1.1" xmlns="http://www.w3.org/2000/svg" p-id="11600" xmlns:xlink="http://www.w3.org/1999/xlink" width="200" height="200"><defs><style type="text/css"></style></defs><path d="M512.00014 1024h-0.2c-136.773-0.1-265.348-53.29-361.93-149.97S-0.09986 648.672 0.00014 511.9C0.00014 229.655 229.65514 0 511.90014 0c28.695 0 57.489 2.4 85.883 7.199 21.396 3.599 35.893 23.995 32.294 45.39-3.6 21.497-24.395 36.294-45.391 32.294-23.995-4.099-48.49-6.098-72.786-6.098-238.853 0-433.115 194.262-433.115 433.115-0.1 115.777 44.991 224.456 126.775 306.34S396.12314 945.115 511.80014 945.115h0.2c219.657 0 404.521-164.268 430.016-382.125 1.9-16.697 3-33.693 3-50.89 0-21.696 17.596-39.492 39.392-39.492 21.696 0 39.392 17.496 39.392 39.292 0 20.496-1.2 40.492-3.5 60.188C990.10814 829.738 771.65014 1024 512.00014 1024z" p-id="11601" fill="#1296db"></path><path d="M496.80314 631.177L297.94214 432.316c-13.697-13.698-35.993-13.698-49.69 0-13.698 13.697-13.698 35.993 0 49.69l198.96 198.861c13.698 13.697 35.994 13.697 49.691 0 13.697-13.597 13.697-35.893-0.1-49.69z" p-id="11602" fill="#1296db"></path><path d="M967.11114 160.769c-13.697-13.698-35.993-13.698-49.69 0L447.11314 631.177c-13.698 13.697-13.698 35.993 0 49.69 13.697 13.697 35.993 13.697 49.69 0l470.308-470.408c13.798-13.797 13.798-35.993 0-49.69z" p-id="11603" fill="#1296db"></path></svg>