<?xml version="1.0" standalone="no"?><!DOCTYPE svg PUBLIC "-//W3C//DTD SVG 1.1//EN" "http://www.w3.org/Graphics/SVG/1.1/DTD/svg11.dtd"><svg class="icon" width="200px" height="200.00px" viewBox="0 0 1024 1024" version="1.1" xmlns="http://www.w3.org/2000/svg"><path fill="#1296db" d="M512.003094 66.417072c-246.081069 0-445.586022 199.498764-445.586022 445.586022s199.504953 445.586022 445.586022 445.586023 445.586022-199.498764 445.586023-445.586023-199.504953-445.586022-445.586023-445.586022z m243.463252 574.385138c0 71.368028-108.976726 129.195192-243.463252 129.195191-134.498903 0-243.506572-57.827164-243.506572-129.195191V568.122178c0 71.368028 109.020047 115.728592 243.506572 115.728592 134.498903 0 243.488006-44.385319 243.463252-115.728592v72.680032z m0-107.262458c0 71.343273-108.976726 129.195192-243.463252 129.195192-134.498903 0-243.506572-57.851919-243.506572-129.195192V460.859721c0 71.368028 109.020047 115.728592 243.506572 115.728592 134.498903 0 243.488006-44.385319 243.463252-115.728592v72.680031z m0.043321-107.262457c0 71.368028-109.001481 129.195192-243.488007 129.195191-134.498903 0-243.506572-57.851919-243.506572-129.195191v-43.073316c0-71.368028 109.020047-129.195192 243.506572-129.195192 134.498903 0 243.488006 57.851919 243.488007 129.195192v43.073316zM512.003094 272.079776c-119.237582 0-215.904994 52.851453-215.904994 104.514677s96.667412 96.568393 215.904994 96.568393 215.904994-44.905169 215.904994-96.568393-96.667412-104.514677-215.904994-104.514677z m18.931218 163.109239v19.283973h-30.621662v-19.482011c-17.705856-1.955628-35.572617-7.376924-48.519367-14.803358l-5.421297-2.8468 18.838387-16.932268 5.446052 2.871554c14.110224 7.748246 28.047165 11.535727 42.52871 11.535727 18.931217 0 28.548449-5.198504 28.548449-15.446982 0-12.32788-16.709476-17.575893-36.067713-23.665569l-0.092831-0.024755c-22.830095-7.129376-48.69265-15.248944-48.69265-37.478735 0-16.907514 17.278836-30.423623 43.438449-34.359633v-19.358238h30.225585v18.962161c15.422227 1.856608 28.548449 6.708545 40.028477 14.753848l4.969522 3.490424-21.338619 14.976642-4.474426-3.143857c-9.982365-6.188695-17.798686-9.332552-32.868158-9.332552-14.883811 0-24.482476 5.495561-24.482477 14.03596 0 9.233533 12.402144 13.615128 32.818649 19.704804l1.287248 0.396076c22.792963 7.005602 51.137185 15.719285 51.137185 40.820631 0 18.541329-17.767743 32.156458-46.687513 36.042958z" /></svg>