<?xml version="1.0" standalone="no"?><!DOCTYPE svg PUBLIC "-//W3C//DTD SVG 1.1//EN" "http://www.w3.org/Graphics/SVG/1.1/DTD/svg11.dtd"><svg class="icon" width="200px" height="171.38px" viewBox="0 0 1195 1024" version="1.1" xmlns="http://www.w3.org/2000/svg"><path fill="#1296db" d="M632.573 841.338c-8.469 0-16.892-3.218-23.34-9.668l-306.9-306.882c-12.898-12.892-12.898-33.783 0-46.681 12.892-12.892 33.783-12.892 46.68 0l306.9 306.882c12.892 12.875 12.892 33.806 0 46.681a32.938 32.938 0 0 1-23.34 9.668m-34.736 135.697c-8.464 0-16.892-3.225-23.334-9.668L159.972 552.861C108.219 501.108 82 435.044 82 356.446c0-75.523 26.993-140.835 80.29-194.155 53.303-53.278 118.633-80.29 194.155-80.29 78.592 0 144.68 26.237 196.408 77.972l45.739 48.761 48.761-48.761c51.753-51.735 117.84-77.972 196.415-77.972 75.54 0 140.876 27.012 194.173 80.29 53.278 53.32 80.29 118.633 80.29 194.155 0 75.54-27.769 141.628-82.525 196.415l-100.788 100.77c-12.898 12.898-33.788 12.898-46.681 0-12.904-12.874-12.904-33.806 0-46.68l100.793-100.77c42.508-42.538 63.178-91.513 63.178-149.734 0-58.178-19.937-106.45-60.967-147.475-41.031-41.025-89.261-60.95-147.475-60.95-61.278 0-110.277 19.187-149.728 58.649l-72.864 72.859c-6.318 6.318-14.608 9.262-23.895 9.668a33.033 33.033 0 0 1-23.537-10.442l-68.322-72.858c-38.707-38.688-87.682-57.875-148.983-57.875-58.196 0-106.42 19.925-147.469 60.95-41.006 41.048-60.955 89.297-60.955 147.475 0 61.295 19.174 110.272 58.631 149.734l414.531 414.506c12.898 12.875 12.898 33.783 0 46.681a32.945 32.945 0 0 1-23.34 9.668z" /></svg>