<?xml version="1.0" standalone="no"?><!DOCTYPE svg PUBLIC "-//W3C//DTD SVG 1.1//EN" "http://www.w3.org/Graphics/SVG/1.1/DTD/svg11.dtd"><svg t="1614128664342" class="icon" viewBox="0 0 1024 1024" version="1.1" xmlns="http://www.w3.org/2000/svg" p-id="9419" xmlns:xlink="http://www.w3.org/1999/xlink" width="200" height="200"><defs><style type="text/css"></style></defs><path d="M896.512 640V159.744s-73.728-22.016-118.272-66.048C733.696 49.664 704 0 704 0h-384S290.304 49.664 245.76 93.696c-44.544 44.032-118.272 66.048-118.272 66.048V640s-1.536 34.816 25.6 89.6c40.96 82.432 201.728 167.424 262.656 198.656C464.384 953.344 512 1024 512 1024v-0.512 0.512s47.104-70.656 96.256-96.256c60.928-31.744 221.696-116.224 262.656-198.656 26.624-54.784 25.6-89.088 25.6-89.088z m-475.136 209.408c-35.328-20.992-174.592-81.92-204.8-158.72-13.312-33.28-22.528-59.392-22.528-59.392v-23.04H363.52c11.776 0 20.992-9.216 20.992-20.992V372.736c0-11.776-9.216-20.992-20.992-20.992h-22.016c-11.776 0-20.992 9.216-20.992 20.992v171.008H193.024l-1.536-288.256h288.256v640c0 0.512-23.552-25.088-58.368-46.08z m409.6-305.664h-126.464V372.736c0-11.776-9.216-20.992-20.992-20.992h-22.016c-11.776 0-20.992 9.216-20.992 20.992v214.016c0 11.776 9.216 20.992 20.992 20.992h169.472v23.04s-9.728 26.112-22.528 59.392c-30.208 76.8-169.984 137.728-204.8 158.72-35.328 20.992-58.368 46.592-58.368 46.592v-640h288.256l-2.56 288.256zM191.488 191.488s85.504-20.992 127.488-65.536c32.768-34.304 47.104-62.976 47.104-62.976h290.816s14.336 28.672 47.104 62.976c41.984 44.544 127.488 65.536 127.488 65.536h-640z" p-id="9420" fill="#1296db"></path></svg>