<?xml version="1.0" encoding="iso-8859-1"?>
<!-- Generator: Adobe Illustrator 19.0.0, SVG Export Plug-In . SVG Version: 6.00 Build 0)  -->
<svg version="1.1" id="Capa_1" xmlns="http://www.w3.org/2000/svg" xmlns:xlink="http://www.w3.org/1999/xlink" x="0px" y="0px"
	 viewBox="0 0 512 512" style="enable-background:new 0 0 512 512;" xml:space="preserve">
<path style="fill:#FFDC40;" d="M427.051,367.026l19.169,11.056C404.799,442.448,332.899,482,256,482C131.383,482,30,380.617,30,256
	S131.383,30,256,30s226,101.383,226,226h30c0-68.38-26.629-132.667-74.98-181.02C388.667,26.629,324.38,0,256,0
	S123.333,26.629,74.98,74.98C26.629,123.333,0,187.62,0,256s26.629,132.667,74.98,181.02C123.333,485.371,187.62,512,256,512
	c45.794,0,90.735-12.241,129.963-35.398c34.923-20.616,64.559-49.352,86.268-83.519l19.609,11.309l-0.041-74.783L427.051,367.026z"
	/>
<g>
	
		<rect x="240.998" y="128.758" transform="matrix(-0.7071 -0.7071 0.7071 -0.7071 255.9068 618.2543)" style="fill:#FFAB15;" width="30" height="254.738"/>
	<path style="fill:#FFAB15;" d="M241,196c0-24.813-20.187-45-45-45s-45,20.187-45,45s20.187,45,45,45S241,220.813,241,196z M181,196
		c0-8.271,6.729-15,15-15s15,6.729,15,15s-6.729,15-15,15S181,204.271,181,196z"/>
	<path style="fill:#FFAB15;" d="M256,30c124.617,0,226,101.383,226,226h30c0-68.38-26.629-132.667-74.98-181.02
		C388.667,26.629,324.38,0,256,0V30z"/>
</g>
<g>
	<polygon style="fill:#FF9400;" points="335.456,155.456 256,234.912 256,277.338 356.669,176.669 	"/>
	<path style="fill:#FF9400;" d="M316,361c24.813,0,45-20.187,45-45s-20.187-45-45-45s-45,20.187-45,45S291.187,361,316,361z
		 M316,301c8.271,0,15,6.729,15,15s-6.729,15-15,15s-15-6.729-15-15S307.729,301,316,301z"/>
</g>
<path style="fill:#FFAB15;" d="M427.051,367.026l19.169,11.056C404.799,442.448,332.899,482,256,482v30
	c45.794,0,90.735-12.241,129.963-35.398c34.923-20.616,64.559-49.352,86.268-83.519l19.609,11.309l-0.041-74.783L427.051,367.026z"
	/>
<g>
</g>
<g>
</g>
<g>
</g>
<g>
</g>
<g>
</g>
<g>
</g>
<g>
</g>
<g>
</g>
<g>
</g>
<g>
</g>
<g>
</g>
<g>
</g>
<g>
</g>
<g>
</g>
<g>
</g>
</svg>
