<?xml version="1.0" standalone="no"?><!DOCTYPE svg PUBLIC "-//W3C//DTD SVG 1.1//EN" "http://www.w3.org/Graphics/SVG/1.1/DTD/svg11.dtd"><svg class="icon" width="200px" height="200.00px" viewBox="0 0 1024 1024" version="1.1" xmlns="http://www.w3.org/2000/svg"><path fill="#1296db" d="M896 64H128c-23.56 0-42.67 19.1-42.67 42.67v810.67c0 23.56 19.1 42.67 42.67 42.67h768c23.56 0 42.67-19.1 42.67-42.67V106.67C938.67 83.1 919.56 64 896 64z m-42.67 85.33v464.43c-34.51 29.77-65.47 48.64-120.75 48.64-67.12 0-98.61-28.33-138.49-64.21C549.2 557.78 498.31 512 398.29 512c-99.89 0-150.73 45.77-195.58 86.15-10.94 9.85-21.38 18.88-32.04 27.2V149.33h682.66zM170.67 874.67V725.42c37.02-17.21 64.47-41.64 89.14-63.84 39.86-35.9 71.35-64.24 138.49-64.24 67.28 0 98.81 28.36 138.73 64.28 44.85 40.36 95.7 86.11 195.56 86.11 51.08 0 89.82-12.53 120.75-29.42v156.36H170.67zM576 341.33a85.33 85.33 0 1 0 170.66 0 85.33 85.33 0 1 0-170.66 0z" /></svg>