<?xml version="1.0" standalone="no"?><!DOCTYPE svg PUBLIC "-//W3C//DTD SVG 1.1//EN" "http://www.w3.org/Graphics/SVG/1.1/DTD/svg11.dtd"><svg class="icon" width="200px" height="200.00px" viewBox="0 0 1024 1024" version="1.1" xmlns="http://www.w3.org/2000/svg"><path d="M728.56250027 154.0312504a418.59375018 418.59375018 0 0 0-571.71875014 143.28124969 417.96874978 417.96874978 0 0 0 143.28124968 571.56249985A320.46874969 320.46874969 0 0 0 340.12499967 888.87500027a28.75000012 28.75000012 0 0 0 12.34375021 3.12499951 28.28125003 28.28125003 0 0 0 26.09374988-17.03124947 25.9375004 25.9375004 0 0 0 0-21.56250009 27.81249995 27.81249995 0 0 0-15.62500003-16.875c-12.34375022-6.24999985-23.12499985-12.34375022-33.90624949-18.43750059A358.4374997 358.4374997 0 0 1 166.21875031 597.62499997a351.40624997 351.40624997 0 0 1 39.99999984-269.53124992v-1.56249974a360.93749963 360.93749963 0 0 1 306.56249972-171.87500034 350.31250031 350.31250031 0 0 1 183.43749986 50.15624991 362.9687503 362.9687503 0 0 1 147.8125003 442.18750012 500.00000015 500.00000015 0 0 1-24.53125012 49.37500003 355.46874967 355.46874967 0 0 1-158.75000024 141.71874994 29.06249991 29.06249991 0 0 0-13.90624997 38.43750008 28.75000012 28.75000012 0 0 0 26.25000017 17.03125032 36.87500033 36.87500033 0 0 0 12.34375022-3.12500034 413.74999978 413.74999978 0 0 0 183.28124954-164.84374979 413.74999978 413.74999978 0 0 0-140.15624936-571.56249984z"  /><path d="M514.34374963 861.21874982a32.18750024 32.18750024 0 0 0-27.65624963 16.87499999 30.31249988 30.31249988 0 0 0 0 32.34375056 34.3750004 34.3750004 0 0 0 27.65624963 15.62500003 32.81249981 32.81249981 0 0 0 27.81250077-17.03125031 31.25000005 31.25000005 0 0 0 0-32.34374972 34.68750019 34.68750019 0 0 0-27.81250077-15.46875056zM640.75000015 435.90624969l-100.15625034-118.59375009a24.37499982 24.37499982 0 0 0-12.34375021-12.34374938 25.9375004 25.9375004 0 0 0-15.6249992-4.6875001 29.06249991 29.06249991 0 0 0-15.62500003 4.6875001c-4.68750009 3.12500033-9.37500018 6.09375037-10.78125046 10.78124963l-101.7187501 121.71875042a28.9062496 28.9062496 0 0 0-4.68750008 29.2187494 29.21875022 29.21875022 0 0 0 23.12500067 18.59375006h6.24999984a33.28124991 33.28124991 0 0 0 23.12499985-10.78124964l50.78125031-62.50000012v281.24999972a31.25000005 31.25000005 0 0 0 15.6249992 26.09375071 25.46875031 25.46875031 0 0 0 15.62500003 4.68749927 32.03124995 32.03124995 0 0 0 31.25000006-31.25000007v-281.24999972l50.93750061 60.15625049a32.65625033 32.65625033 0 0 0 23.12499985 10.78124963h4.53124979a30.1562504 30.1562504 0 0 0 23.12499984-20.00000033 26.87499976 26.87499976 0 0 0-6.56249963-26.56249997z" fill="#D93B0A" /></svg>