<?xml version="1.0" standalone="no"?><!DOCTYPE svg PUBLIC "-//W3C//DTD SVG 1.1//EN" "http://www.w3.org/Graphics/SVG/1.1/DTD/svg11.dtd"><svg t="1614233777145" class="icon" viewBox="0 0 1024 1024" version="1.1" xmlns="http://www.w3.org/2000/svg" p-id="2735" xmlns:xlink="http://www.w3.org/1999/xlink" width="200" height="200"><defs><style type="text/css"></style></defs><path d="M560.64 957.952c-13.824 13.824-32.256 26.112-50.176 23.04-17.92 3.072-34.304-10.752-48.128-23.04L37.888 532.48c-22.016-22.016-22.016-56.32 0-78.336s56.32-22.016 78.336 0l394.752 405.504 396.288-404.992c22.016-22.016 56.32-22.016 78.336 0s22.016 56.32 0 78.336l-424.96 424.96z" p-id="2736" fill="#1296db"></path><path d="M560.64 563.2c-13.824 13.824-32.256 26.112-50.176 23.04-17.92 3.072-34.304-10.752-48.128-23.04L37.888 137.728c-22.016-22.016-22.016-56.32 0-78.336s56.32-22.016 78.336 0l394.752 405.504L907.264 59.904c22.016-22.016 56.32-22.016 78.336 0s22.016 56.32 0 78.336L560.64 563.2z" p-id="2737" fill="#1296db"></path></svg>