<?xml version="1.0" standalone="no"?><!DOCTYPE svg PUBLIC "-//W3C//DTD SVG 1.1//EN" "http://www.w3.org/Graphics/SVG/1.1/DTD/svg11.dtd"><svg class="icon" width="200px" height="200.00px" viewBox="0 0 1024 1024" version="1.1" xmlns="http://www.w3.org/2000/svg"><path fill="#1296db" d="M 542.341 641.858 c -7.282 7.282 -19.419 7.282 -26.7 0 l -179.617 -179.616 c -7.282 -7.282 -7.282 -19.419 0 -26.7 s 19.419 -7.282 26.7 0 l 179.617 179.617 c 8.496 7.282 8.496 19.419 0 26.7 Z"  /><path fill="#1296db" d="M 721.957 435.541 c 7.282 7.282 7.282 19.419 0 26.7 l -179.616 179.616 c -7.282 7.282 -19.419 7.282 -26.7 0 s -7.282 -19.419 0 -26.7 l 179.617 -179.617 c 7.282 -7.282 19.419 -7.282 26.7 0 Z"  /><path fill="#1296db" d="M 548.409 616.372 c 0 10.923 -8.496 19.419 -19.419 19.419 s -19.419 -8.496 -19.419 -19.419 v -424.77 c 0 -10.923 8.496 -19.419 19.419 -19.419 s 19.419 8.496 19.419 19.419 v 424.77 Z"  /><path fill="#1296db" d="M 856.671 519.282 c -10.923 0 -19.419 8.496 -19.419 19.419 v 183.259 c 0 15.777 -13.349 29.127 -29.127 29.127 h -558.269 c -15.777 0 -29.127 -13.349 -29.127 -29.127 v -183.259 c 0 -10.923 -8.496 -19.419 -19.419 -19.419 s -19.419 8.496 -19.419 19.419 v 192.967 c 0 31.554 25.486 58.254 58.254 58.254 h 578.901 c 31.554 0 58.254 -25.486 58.254 -58.254 v -192.967 c -1.214 -10.923 -9.709 -19.419 -20.631 -19.419 Z"  /></svg>