<?xml version="1.0" standalone="no"?><!DOCTYPE svg PUBLIC "-//W3C//DTD SVG 1.1//EN" "http://www.w3.org/Graphics/SVG/1.1/DTD/svg11.dtd"><svg class="icon" width="200px" height="200.00px" viewBox="0 0 1024 1024" version="1.1" xmlns="http://www.w3.org/2000/svg"><path fill="#1296db" d="M480.434631 930.759111a23.324444 23.324444 0 1 1 0.568889 46.535111c-7.964444 0.113778-15.985778 0.170667-24.064 0.170667-155.022222 0-285.468444-16.497778-391.509333-49.607111a93.070222 93.070222 0 0 1-64.113778-104.106667l19.626667-118.101333a162.929778 162.929778 0 0 1 146.659555-135.566222 3364.522667 3364.522667 0 0 1 314.026667-11.491556 23.324444 23.324444 0 1 1-0.227556 46.592l-24.462222-0.113778a3318.328889 3318.328889 0 0 0-285.297778 11.377778c-52.906667 4.608-96.028444 44.430222-104.732444 96.881778l-19.683556 118.044444a46.535111 46.535111 0 0 0 32.085334 52.053334c101.091556 31.573333 226.986667 47.502222 377.628444 47.502222 7.907556 0 15.758222-0.056889 23.495111-0.170667zM270.742187 232.732444a186.140444 186.140444 0 1 0 372.337777 0 186.140444 186.140444 0 0 0-372.337777 0z m-46.535111 0a232.675556 232.675556 0 1 1 465.408 0 232.675556 232.675556 0 0 1-465.408 0zM550.009742 768a209.464889 209.464889 0 1 0 418.872889 0 209.464889 209.464889 0 0 0-418.872889 0z m-46.535111 0a256 256 0 1 1 512 0 256 256 0 0 1-512 0z m162.929778-23.324444h186.140444c31.061333 0 31.061333 46.648889 0 46.648888h-186.140444c-31.061333 0-31.061333-46.648889 0-46.648888z m69.802667 116.394666v-186.140444c0-31.061333 46.535111-31.061333 46.535111 0v186.140444c0 31.061333-46.535111 31.061333-46.535111 0z" /></svg>