<?xml version="1.0" encoding="utf-8"?><svg xmlns="http://www.w3.org/2000/svg" xmlns:xlink="http://www.w3.org/1999/xlink" width="378" height="378" preserveAspectRatio="xMidYMid" viewBox="0 0 378 378" style="display:block;background-repeat-y:initial;background-repeat-x:initial;background-color:rgb(25, 29, 42);animation-play-state:paused" ><g transform="scale(1.4800000000000002)" style="transform:matrix(1.48, 0, 0, 1.48, 0, 0);animation-play-state:paused" ><defs style="animation-play-state:paused" ><g id="id-0.5792736874971864" style="animation-play-state:paused" ><style type="text/css" style="animation-play-state:paused" >.st113{stroke-miterlimit:10;fill:#f4e6c8;stroke:#333;stroke-width:3.5}.st114{fill:none}.st114,.st115,.st116,.st117{stroke:#333;stroke-width:3.5;stroke-miterlimit:10}.st115{fill:#e15c64}.st116{fill:#fff}.st117{fill:#f7b26a}</style>
<g style="animation-play-state:paused" ><path class="st113" d="M83.9,26.8c0-2-1.3-3.7-3-4.4c-0.7-2.2-2.5-4-4.8-4.5c-0.5-3.1-3.2-5.4-6.4-5.4c-2.9,0-5.4,1.9-6.3,4.6 c-0.8-0.3-1.6-0.5-2.5-0.5c-0.6,0-1.2,0.1-1.8,0.3c-1.1-2-3.3-3.4-5.8-3.4c-0.8,0-1.5,0.1-2.2,0.4c-1-2.2-3.3-3.8-5.9-3.8 c-3.5,0-6.3,2.7-6.5,6.1c-0.9-0.4-1.9-0.7-2.9-0.7c-0.6,0-1.1,0.1-1.6,0.2c-1.2-1.4-3-2.3-4.9-2.3c-3.6,0-6.6,2.9-6.6,6.6 c0,0.3,0,0.7,0.1,1c-1.4,0-2.7,0.5-3.8,1.3c-1.6,1.2-2.7,3.1-2.7,5.3c0,2.2,1,4.1,2.7,5.3c0.7,0.5,1.6,0.9,2.5,1.1h13.4h34.1h11.6 c0.4-0.8,0.7-1.8,0.8-2.8C82.7,30.4,83.9,28.7,83.9,26.8z" data-fill="c1" data-stroke="c2" style="stroke:rgb(41, 48, 69);fill:rgb(11, 14, 26);animation-play-state:paused" ></path>
<path class="st114" d="M42.6,29.4c-1.9-1.9-1.8-5.5,0.2-7.3s5.6-1.5,7.3,0.6c1.2,1.5,1.1,4.1-0.3,5.5" data-stroke="c2" style="stroke:rgb(41, 48, 69);animation-play-state:paused" ></path>
<path class="st114" d="M51,25c0.9-1.5,2.8-2.2,4.5-1.7c1.6,0.5,2.9,2.2,2.8,3.9" data-stroke="c2" style="stroke:rgb(41, 48, 69);animation-play-state:paused" ></path>
<path class="st113" d="M76,17.9c-0.9,0-7.3-0.5-7.2,6" data-fill="c1" data-stroke="c2" style="stroke:rgb(41, 48, 69);fill:rgb(11, 14, 26);animation-play-state:paused" ></path></g>
<g style="animation-play-state:paused" ><path class="st115" d="M36.6,90h-7c-1.5,0-2.7-1.1-2.9-2.6l-5.5-53.6h11.9L36.6,90z" data-fill="c3" data-stroke="c2" style="stroke:rgb(41, 48, 69);fill:rgb(11, 14, 26);animation-play-state:paused" ></path>
<polygon class="st116" points="46.2,90 36.6,90 33.2,33.8 45,33.8 	" data-fill="c4" data-stroke="c2" style="stroke:rgb(41, 48, 69);fill:rgb(11, 14, 26);animation-play-state:paused" ></polygon>
<polygon class="st115" points="55.8,90 46.2,90 45,33.8 56.9,33.8 	" data-fill="c3" data-stroke="c2" style="stroke:rgb(41, 48, 69);fill:rgb(11, 14, 26);animation-play-state:paused" ></polygon>
<polygon class="st116" points="65.3,90 55.8,90 56.9,33.8 68.8,33.8 	" data-fill="c4" data-stroke="c2" style="stroke:rgb(41, 48, 69);fill:rgb(11, 14, 26);animation-play-state:paused" ></polygon>
<path class="st115" d="M72.3,90h-7l3.4-56.2h11.9l-5.5,53.6C75,88.9,73.8,90,72.3,90z" data-fill="c3" data-stroke="c2" style="stroke:rgb(41, 48, 69);fill:rgb(11, 14, 26);animation-play-state:paused" ></path>
<path class="st117" d="M56.9,66.7h-12c-2.8,0-5-2.2-5-5v-4.5c0-2.8,2.2-5,5-5h12c2.8,0,5,2.2,5,5v4.5 C61.9,64.5,59.7,66.7,56.9,66.7z" data-fill="c5" data-stroke="c2" style="stroke:rgb(41, 48, 69);fill:rgb(11, 14, 26);animation-play-state:paused" ></path></g>
<metadata xmlns:d="https://loading.io/stock/" style="animation-play-state:paused" ><d:name style="animation-play-state:paused" >popcorn</d:name>
<d:tags style="animation-play-state:paused" >popcorn,movie,theatre</d:tags>
<d:license style="animation-play-state:paused" >by</d:license>
<d:slug style="animation-play-state:paused" >u998bl</d:slug></metadata></g></defs>


































<g data-idx="0" data-dup="" dx="-128" dy="-128" style="transform-origin:-43.697px -33.235px;animation-timing-function:linear;animation-play-state:paused;animation-name:static-37ff0dde-6a6a-4fe4-9360-f83616e138d8;animation-iteration-count:infinite;animation-fill-mode:forwards;animation-duration:1s" ><g transform="translate(-128,-128)" style="transform:matrix(1, 0, 0, 1, -128, -128);animation-play-state:paused" ><polygon fill="#B3B4B4" points="95.261,98.953 73.345,96.2 74.22,90.577 94.461,93.724 " data-fill="c6" style="fill:rgb(41, 48, 69);animation-play-state:paused" ></polygon></g></g>
<g data-idx="0" data-dup="" dx="128" dy="-128" style="transform-origin:212.303px -33.235px;animation-timing-function:linear;animation-play-state:paused;animation-name:static-37ff0dde-6a6a-4fe4-9360-f83616e138d8;animation-iteration-count:infinite;animation-fill-mode:forwards;animation-duration:1s" ><g transform="translate(128,-128)" style="transform:matrix(1, 0, 0, 1, 128, -128);animation-play-state:paused" ><polygon fill="#B3B4B4" points="95.261,98.953 73.345,96.2 74.22,90.577 94.461,93.724 " data-fill="c6" style="fill:rgb(41, 48, 69);animation-play-state:paused" ></polygon></g></g>
<g data-idx="1" data-dup="t" dx="-128" dy="-128" style="transform-origin:-89.899px 85.4716px;animation-timing-function:linear;animation-play-state:paused;animation-name:static-37ff0dde-6a6a-4fe4-9360-f83616e138d8;animation-iteration-count:infinite;animation-fill-mode:forwards;animation-duration:1s" ><g transform="translate(-128,-128)" style="transform:matrix(1, 0, 0, 1, -128, -128);animation-play-state:paused" ><path fill="#B3B4B4" d="M38.105,224.49c-0.05,0-0.099,0-0.149-0.001c-2.943-0.039-5.694-1.221-7.748-3.33
	c-4.239-4.352-4.147-11.342,0.205-15.581c2.108-2.054,4.884-3.157,7.833-3.124c2.943,0.039,5.694,1.222,7.748,3.33
	c4.239,4.352,4.147,11.342-0.205,15.58C43.716,223.383,40.992,224.49,38.105,224.49z M38.098,207.494
	c-1.567,0-3.044,0.6-4.169,1.695c-2.361,2.3-2.411,6.092-0.111,8.453c1.114,1.144,2.607,1.785,4.204,1.806
	c1.609,0.014,3.106-0.581,4.25-1.695c2.361-2.3,2.411-6.092,0.112-8.453l0,0c-1.114-1.144-2.607-1.785-4.204-1.806
	C38.152,207.494,38.125,207.494,38.098,207.494z" data-fill="c6" style="fill:rgb(41, 48, 69);animation-play-state:paused" ></path></g></g>
<g data-idx="1" data-dup="t" dx="128" dy="-128" style="transform-origin:166.101px 85.4716px;animation-timing-function:linear;animation-play-state:paused;animation-name:static-37ff0dde-6a6a-4fe4-9360-f83616e138d8;animation-iteration-count:infinite;animation-fill-mode:forwards;animation-duration:1s" ><g transform="translate(128,-128)" style="transform:matrix(1, 0, 0, 1, 128, -128);animation-play-state:paused" ><path fill="#B3B4B4" d="M38.105,224.49c-0.05,0-0.099,0-0.149-0.001c-2.943-0.039-5.694-1.221-7.748-3.33
	c-4.239-4.352-4.147-11.342,0.205-15.581c2.108-2.054,4.884-3.157,7.833-3.124c2.943,0.039,5.694,1.222,7.748,3.33
	c4.239,4.352,4.147,11.342-0.205,15.58C43.716,223.383,40.992,224.49,38.105,224.49z M38.098,207.494
	c-1.567,0-3.044,0.6-4.169,1.695c-2.361,2.3-2.411,6.092-0.111,8.453c1.114,1.144,2.607,1.785,4.204,1.806
	c1.609,0.014,3.106-0.581,4.25-1.695c2.361-2.3,2.411-6.092,0.112-8.453l0,0c-1.114-1.144-2.607-1.785-4.204-1.806
	C38.152,207.494,38.125,207.494,38.098,207.494z" data-fill="c6" style="fill:rgb(41, 48, 69);animation-play-state:paused" ></path></g></g>
<g data-idx="2" data-dup="" dx="-128" dy="-128" style="transform-origin:106.49px -80.4995px;animation-timing-function:linear;animation-play-state:paused;animation-name:static-37ff0dde-6a6a-4fe4-9360-f83616e138d8;animation-iteration-count:infinite;animation-fill-mode:forwards;animation-duration:1s" ><g transform="translate(-128,-128)" style="transform:matrix(1, 0, 0, 1, -128, -128);animation-play-state:paused" ><ellipse transform="matrix(0.7249 -0.6888 0.6888 0.7249 31.7828 174.5914)" fill="#B3B4B4" cx="234.5" cy="47.5" rx="4.4" ry="4.4" data-fill="c6" style="transform:matrix(0.7249, -0.6888, 0.6888, 0.7249, 31.7828, 174.591);fill:rgb(41, 48, 69);animation-play-state:paused" ></ellipse></g></g>
<g data-idx="2" data-dup="" dx="128" dy="-128" style="transform-origin:362.49px -80.4995px;animation-timing-function:linear;animation-play-state:paused;animation-name:static-37ff0dde-6a6a-4fe4-9360-f83616e138d8;animation-iteration-count:infinite;animation-fill-mode:forwards;animation-duration:1s" ><g transform="translate(128,-128)" style="transform:matrix(1, 0, 0, 1, 128, -128);animation-play-state:paused" ><ellipse transform="matrix(0.7249 -0.6888 0.6888 0.7249 31.7828 174.5914)" fill="#B3B4B4" cx="234.5" cy="47.5" rx="4.4" ry="4.4" data-fill="c6" style="transform:matrix(0.7249, -0.6888, 0.6888, 0.7249, 31.7828, 174.591);fill:rgb(41, 48, 69);animation-play-state:paused" ></ellipse></g></g>
<g data-idx="3" data-dup="" dx="-128" dy="-128" style="transform-origin:28.5333px 18.653px;animation-timing-function:linear;animation-play-state:paused;animation-name:static-37ff0dde-6a6a-4fe4-9360-f83616e138d8;animation-iteration-count:infinite;animation-fill-mode:forwards;animation-duration:1s" ><g transform="translate(-128,-128)" style="transform:matrix(1, 0, 0, 1, -128, -128);animation-play-state:paused" ><path fill="#B3B4B4" d="M156.299,159.176l-1.714-5.053c3.929-1.333,6.042-5.614,4.709-9.543c-0.645-1.903-1.994-3.442-3.796-4.331
	c-1.803-0.89-3.844-1.024-5.747-0.378l-1.714-5.053c3.254-1.103,6.741-0.874,9.822,0.646c3.08,1.52,5.385,4.149,6.488,7.402
	C166.625,149.582,163.015,156.898,156.299,159.176z" data-fill="c6" style="fill:rgb(41, 48, 69);animation-play-state:paused" ></path></g></g>
<g data-idx="3" data-dup="" dx="128" dy="-128" style="transform-origin:284.533px 18.653px;animation-timing-function:linear;animation-play-state:paused;animation-name:static-37ff0dde-6a6a-4fe4-9360-f83616e138d8;animation-iteration-count:infinite;animation-fill-mode:forwards;animation-duration:1s" ><g transform="translate(128,-128)" style="transform:matrix(1, 0, 0, 1, 128, -128);animation-play-state:paused" ><path fill="#B3B4B4" d="M156.299,159.176l-1.714-5.053c3.929-1.333,6.042-5.614,4.709-9.543c-0.645-1.903-1.994-3.442-3.796-4.331
	c-1.803-0.89-3.844-1.024-5.747-0.378l-1.714-5.053c3.254-1.103,6.741-0.874,9.822,0.646c3.08,1.52,5.385,4.149,6.488,7.402
	C166.625,149.582,163.015,156.898,156.299,159.176z" data-fill="c6" style="fill:rgb(41, 48, 69);animation-play-state:paused" ></path></g></g>
<g data-idx="4" data-dup="" dx="-128" dy="-128" style="transform-origin:-25.5058px 21.4949px;animation-timing-function:linear;animation-play-state:paused;animation-name:static-37ff0dde-6a6a-4fe4-9360-f83616e138d8;animation-iteration-count:infinite;animation-fill-mode:forwards;animation-duration:1s" ><g transform="translate(-128,-128)" style="transform:matrix(1, 0, 0, 1, -128, -128);animation-play-state:paused" ><ellipse transform="matrix(0.7249 -0.6888 0.6888 0.7249 -74.7837 111.7244)" fill="#B3B4B4" cx="102.5" cy="149.5" rx="4.4" ry="4.4" data-fill="c6" style="transform:matrix(0.7249, -0.6888, 0.6888, 0.7249, -74.7837, 111.724);fill:rgb(41, 48, 69);animation-play-state:paused" ></ellipse></g></g>
<g data-idx="4" data-dup="" dx="128" dy="-128" style="transform-origin:230.494px 21.4949px;animation-timing-function:linear;animation-play-state:paused;animation-name:static-37ff0dde-6a6a-4fe4-9360-f83616e138d8;animation-iteration-count:infinite;animation-fill-mode:forwards;animation-duration:1s" ><g transform="translate(128,-128)" style="transform:matrix(1, 0, 0, 1, 128, -128);animation-play-state:paused" ><ellipse transform="matrix(0.7249 -0.6888 0.6888 0.7249 -74.7837 111.7244)" fill="#B3B4B4" cx="102.5" cy="149.5" rx="4.4" ry="4.4" data-fill="c6" style="transform:matrix(0.7249, -0.6888, 0.6888, 0.7249, -74.7837, 111.724);fill:rgb(41, 48, 69);animation-play-state:paused" ></ellipse></g></g>
<g data-idx="5" data-dup="" dx="-128" dy="-128" style="transform-origin:114.171px 116.691px;animation-timing-function:linear;animation-play-state:paused;animation-name:static-37ff0dde-6a6a-4fe4-9360-f83616e138d8;animation-iteration-count:infinite;animation-fill-mode:forwards;animation-duration:1s" ><g transform="translate(-128,-128)" style="transform:matrix(1, 0, 0, 1, -128, -128);animation-play-state:paused" ><polygon fill="#B3B4B4" points="231.486,249.178 247.065,235.877 252.857,238.786 235.18,253.505 " data-fill="c6" style="fill:rgb(41, 48, 69);animation-play-state:paused" ></polygon></g></g>
<g data-idx="5" data-dup="" dx="128" dy="-128" style="transform-origin:370.172px 116.691px;animation-timing-function:linear;animation-play-state:paused;animation-name:static-37ff0dde-6a6a-4fe4-9360-f83616e138d8;animation-iteration-count:infinite;animation-fill-mode:forwards;animation-duration:1s" ><g transform="translate(128,-128)" style="transform:matrix(1, 0, 0, 1, 128, -128);animation-play-state:paused" ><polygon fill="#B3B4B4" points="231.486,249.178 247.065,235.877 252.857,238.786 235.18,253.505 " data-fill="c6" style="fill:rgb(41, 48, 69);animation-play-state:paused" ></polygon></g></g>
<g data-idx="6" data-dup="" dx="-128" dy="-128" style="transform-origin:-20.197px -96.9315px;animation-timing-function:linear;animation-play-state:paused;animation-name:static-37ff0dde-6a6a-4fe4-9360-f83616e138d8;animation-iteration-count:infinite;animation-fill-mode:forwards;animation-duration:1s" ><g transform="translate(-128,-128)" style="transform:matrix(1, 0, 0, 1, -128, -128);animation-play-state:paused" ><polygon fill="#B3B4B4" points="115.367,21.954 103.961,43.014 100.239,36.891 110.431,19.123 " data-fill="c6" style="fill:rgb(41, 48, 69);animation-play-state:paused" ></polygon></g></g>
<g data-idx="6" data-dup="" dx="128" dy="-128" style="transform-origin:235.803px -96.9315px;animation-timing-function:linear;animation-play-state:paused;animation-name:static-37ff0dde-6a6a-4fe4-9360-f83616e138d8;animation-iteration-count:infinite;animation-fill-mode:forwards;animation-duration:1s" ><g transform="translate(128,-128)" style="transform:matrix(1, 0, 0, 1, 128, -128);animation-play-state:paused" ><polygon fill="#B3B4B4" points="115.367,21.954 103.961,43.014 100.239,36.891 110.431,19.123 " data-fill="c6" style="fill:rgb(41, 48, 69);animation-play-state:paused" ></polygon></g></g>
<g data-idx="7" data-dup="" dx="-128" dy="-128" style="transform-origin:94.1px -7.15031px;animation-timing-function:linear;animation-play-state:paused;animation-name:static-37ff0dde-6a6a-4fe4-9360-f83616e138d8;animation-iteration-count:infinite;animation-fill-mode:forwards;animation-duration:1s" ><g transform="translate(-128,-128)" style="transform:matrix(1, 0, 0, 1, -128, -128);animation-play-state:paused" ><path fill="#B3B4B4" d="M222.104,130.57c-0.044,0-0.088,0-0.132-0.001c-2.596-0.034-5.024-1.077-6.835-2.937
	c-3.74-3.84-3.659-10.006,0.181-13.746c1.86-1.812,4.308-2.785,6.91-2.756c2.596,0.034,5.024,1.078,6.835,2.938
	c3.74,3.839,3.659,10.006-0.181,13.745C227.054,129.594,224.651,130.57,222.104,130.57z M222.099,115.576
	c-1.382,0-2.686,0.53-3.678,1.496c-2.083,2.029-2.127,5.374-0.098,7.458c0.983,1.009,2.3,1.575,3.708,1.594
	c1.42,0.013,2.74-0.512,3.749-1.495c2.083-2.029,2.127-5.374,0.098-7.457l0,0c-0.983-1.009-2.3-1.575-3.708-1.594
	C222.146,115.576,222.122,115.576,222.099,115.576z" data-fill="c6" style="fill:rgb(41, 48, 69);animation-play-state:paused" ></path></g></g>
<g data-idx="7" data-dup="" dx="128" dy="-128" style="transform-origin:350.1px -7.15031px;animation-timing-function:linear;animation-play-state:paused;animation-name:static-37ff0dde-6a6a-4fe4-9360-f83616e138d8;animation-iteration-count:infinite;animation-fill-mode:forwards;animation-duration:1s" ><g transform="translate(128,-128)" style="transform:matrix(1, 0, 0, 1, 128, -128);animation-play-state:paused" ><path fill="#B3B4B4" d="M222.104,130.57c-0.044,0-0.088,0-0.132-0.001c-2.596-0.034-5.024-1.077-6.835-2.937
	c-3.74-3.84-3.659-10.006,0.181-13.746c1.86-1.812,4.308-2.785,6.91-2.756c2.596,0.034,5.024,1.078,6.835,2.938
	c3.74,3.839,3.659,10.006-0.181,13.745C227.054,129.594,224.651,130.57,222.104,130.57z M222.099,115.576
	c-1.382,0-2.686,0.53-3.678,1.496c-2.083,2.029-2.127,5.374-0.098,7.458c0.983,1.009,2.3,1.575,3.708,1.594
	c1.42,0.013,2.74-0.512,3.749-1.495c2.083-2.029,2.127-5.374,0.098-7.457l0,0c-0.983-1.009-2.3-1.575-3.708-1.594
	C222.146,115.576,222.122,115.576,222.099,115.576z" data-fill="c6" style="fill:rgb(41, 48, 69);animation-play-state:paused" ></path></g></g>
<g data-idx="8" data-dup="" dx="-128" dy="-128" style="transform-origin:46.6647px -119.158px;animation-timing-function:linear;animation-play-state:paused;animation-name:static-37ff0dde-6a6a-4fe4-9360-f83616e138d8;animation-iteration-count:infinite;animation-fill-mode:forwards;animation-duration:1s" ><g transform="translate(-128,-128)" style="transform:matrix(1, 0, 0, 1, -128, -128);animation-play-state:paused" ><path fill="#B3B4B4" d="M184.509,10.022l-4.015,1.058c-0.822-3.122-4.032-4.993-7.154-4.17c-1.512,0.398-2.779,1.362-3.567,2.713
	c-0.788,1.352-1.003,2.929-0.603,4.44l-4.015,1.058c-0.681-2.585-0.315-5.28,1.031-7.589c1.346-2.309,3.511-3.956,6.096-4.637
	C177.619,1.489,183.103,4.687,184.509,10.022z" data-fill="c6" style="fill:rgb(41, 48, 69);animation-play-state:paused" ></path></g></g>
<g data-idx="8" data-dup="" dx="128" dy="-128" style="transform-origin:302.665px -119.158px;animation-timing-function:linear;animation-play-state:paused;animation-name:static-37ff0dde-6a6a-4fe4-9360-f83616e138d8;animation-iteration-count:infinite;animation-fill-mode:forwards;animation-duration:1s" ><g transform="translate(128,-128)" style="transform:matrix(1, 0, 0, 1, 128, -128);animation-play-state:paused" ><path fill="#B3B4B4" d="M184.509,10.022l-4.015,1.058c-0.822-3.122-4.032-4.993-7.154-4.17c-1.512,0.398-2.779,1.362-3.567,2.713
	c-0.788,1.352-1.003,2.929-0.603,4.44l-4.015,1.058c-0.681-2.585-0.315-5.28,1.031-7.589c1.346-2.309,3.511-3.956,6.096-4.637
	C177.619,1.489,183.103,4.687,184.509,10.022z" data-fill="c6" style="fill:rgb(41, 48, 69);animation-play-state:paused" ></path></g></g>
<g data-idx="9" data-dup="t" dx="-128" dy="-128" style="transform-origin:-6.86763px 94.4376px;animation-timing-function:linear;animation-play-state:paused;animation-name:static-37ff0dde-6a6a-4fe4-9360-f83616e138d8;animation-iteration-count:infinite;animation-fill-mode:forwards;animation-duration:1s" ><g transform="translate(-128,-128)" style="transform:matrix(1, 0, 0, 1, -128, -128);animation-play-state:paused" ><g transform="matrix(0.9912 0.1325 -0.1325 0.9912 30.542 -14.083) translate(121.067,222.398) scale(0.6786666666666666)" style="transform:matrix(0.672694, 0.0899233, -0.0899233, 0.672694, 121.076, 222.399);animation-play-state:paused" ><g data-icon="" transform="scale(0.9)" style="transform:matrix(0.9, 0, 0, 0.9, 0, 0);animation-play-state:paused" ><use xlink:href="#id-0.5792736874971864" x="-50" y="-50" style="animation-play-state:paused" ></use></g></g></g></g>
<g data-idx="9" data-dup="t" dx="128" dy="-128" style="transform-origin:249.132px 94.4376px;animation-timing-function:linear;animation-play-state:paused;animation-name:static-37ff0dde-6a6a-4fe4-9360-f83616e138d8;animation-iteration-count:infinite;animation-fill-mode:forwards;animation-duration:1s" ><g transform="translate(128,-128)" style="transform:matrix(1, 0, 0, 1, 128, -128);animation-play-state:paused" ><g transform="matrix(0.9912 0.1325 -0.1325 0.9912 30.542 -14.083) translate(121.067,222.398) scale(0.6786666666666666)" style="transform:matrix(0.672694, 0.0899233, -0.0899233, 0.672694, 121.076, 222.399);animation-play-state:paused" ><g data-icon="" transform="scale(0.9)" style="transform:matrix(0.9, 0, 0, 0.9, 0, 0);animation-play-state:paused" ><use xlink:href="#id-0.5792736874971864" x="-50" y="-50" style="animation-play-state:paused" ></use></g></g></g></g>
<g data-idx="10" data-dup="" dx="-128" dy="-128" style="transform-origin:33.2334px -52.7838px;animation-timing-function:linear;animation-play-state:paused;animation-name:static-37ff0dde-6a6a-4fe4-9360-f83616e138d8;animation-iteration-count:infinite;animation-fill-mode:forwards;animation-duration:1s" ><g transform="translate(-128,-128)" style="transform:matrix(1, 0, 0, 1, -128, -128);animation-play-state:paused" ><g transform="matrix(-0.0456 0.999 -0.999 -0.0456 243.7065 -82.5047) translate(161.268,75.17099999999999) scale(0.47706666666666664)" style="transform:matrix(-0.0217542, 0.47659, -0.47659, -0.0217542, 161.257, 75.1742);animation-play-state:paused" ><g data-icon="" transform="scale(0.9)" style="transform:matrix(0.9, 0, 0, 0.9, 0, 0);animation-play-state:paused" ><use xlink:href="#id-0.5792736874971864" x="-50" y="-50" style="animation-play-state:paused" ></use></g></g></g></g>
<g data-idx="10" data-dup="" dx="128" dy="-128" style="transform-origin:289.233px -52.7838px;animation-timing-function:linear;animation-play-state:paused;animation-name:static-37ff0dde-6a6a-4fe4-9360-f83616e138d8;animation-iteration-count:infinite;animation-fill-mode:forwards;animation-duration:1s" ><g transform="translate(128,-128)" style="transform:matrix(1, 0, 0, 1, 128, -128);animation-play-state:paused" ><g transform="matrix(-0.0456 0.999 -0.999 -0.0456 243.7065 -82.5047) translate(161.268,75.17099999999999) scale(0.47706666666666664)" style="transform:matrix(-0.0217542, 0.47659, -0.47659, -0.0217542, 161.257, 75.1742);animation-play-state:paused" ><g data-icon="" transform="scale(0.9)" style="transform:matrix(0.9, 0, 0, 0.9, 0, 0);animation-play-state:paused" ><use xlink:href="#id-0.5792736874971864" x="-50" y="-50" style="animation-play-state:paused" ></use></g></g></g></g>
<g data-idx="11" data-dup="" dx="-128" dy="-128" style="transform-origin:87.3549px 65.0584px;animation-timing-function:linear;animation-play-state:paused;animation-name:static-37ff0dde-6a6a-4fe4-9360-f83616e138d8;animation-iteration-count:infinite;animation-fill-mode:forwards;animation-duration:1s" ><g transform="translate(-128,-128)" style="transform:matrix(1, 0, 0, 1, -128, -128);animation-play-state:paused" ><g transform="matrix(0.5905 -0.8071 0.8071 0.5905 -67.6584 252.8308) translate(215.293,193.0815) scale(0.5214666666666667)" style="transform:matrix(0.307926, -0.420876, 0.420876, 0.307926, 215.308, 193.082);animation-play-state:paused" ><g data-icon="" transform="scale(0.9)" style="transform:matrix(0.9, 0, 0, 0.9, 0, 0);animation-play-state:paused" ><use xlink:href="#id-0.5792736874971864" x="-50" y="-50" style="animation-play-state:paused" ></use></g></g></g></g>
<g data-idx="11" data-dup="" dx="128" dy="-128" style="transform-origin:343.355px 65.0584px;animation-timing-function:linear;animation-play-state:paused;animation-name:static-37ff0dde-6a6a-4fe4-9360-f83616e138d8;animation-iteration-count:infinite;animation-fill-mode:forwards;animation-duration:1s" ><g transform="translate(128,-128)" style="transform:matrix(1, 0, 0, 1, 128, -128);animation-play-state:paused" ><g transform="matrix(0.5905 -0.8071 0.8071 0.5905 -67.6584 252.8308) translate(215.293,193.0815) scale(0.5214666666666667)" style="transform:matrix(0.307926, -0.420876, 0.420876, 0.307926, 215.308, 193.082);animation-play-state:paused" ><g data-icon="" transform="scale(0.9)" style="transform:matrix(0.9, 0, 0, 0.9, 0, 0);animation-play-state:paused" ><use xlink:href="#id-0.5792736874971864" x="-50" y="-50" style="animation-play-state:paused" ></use></g></g></g></g>
<g data-idx="12" data-dup="" dx="-128" dy="-128" style="transform-origin:-78.8168px -89.7558px;animation-timing-function:linear;animation-play-state:paused;animation-name:static-37ff0dde-6a6a-4fe4-9360-f83616e138d8;animation-iteration-count:infinite;animation-fill-mode:forwards;animation-duration:1s" ><g transform="translate(-128,-128)" style="transform:matrix(1, 0, 0, 1, -128, -128);animation-play-state:paused" ><g transform="matrix(-0.4749 -0.8801 0.8801 -0.4749 38.8277 99.7848) translate(49.185,38.308499999999995) scale(0.5980444444444444)" style="transform:matrix(-0.284011, -0.526339, 0.526339, -0.284011, 49.1851, 38.3044);animation-play-state:paused" ><g data-icon="" transform="scale(0.9)" style="transform:matrix(0.9, 0, 0, 0.9, 0, 0);animation-play-state:paused" ><use xlink:href="#id-0.5792736874971864" x="-50" y="-50" style="animation-play-state:paused" ></use></g></g></g></g>
<g data-idx="12" data-dup="" dx="128" dy="-128" style="transform-origin:177.183px -89.7558px;animation-timing-function:linear;animation-play-state:paused;animation-name:static-37ff0dde-6a6a-4fe4-9360-f83616e138d8;animation-iteration-count:infinite;animation-fill-mode:forwards;animation-duration:1s" ><g transform="translate(128,-128)" style="transform:matrix(1, 0, 0, 1, 128, -128);animation-play-state:paused" ><g transform="matrix(-0.4749 -0.8801 0.8801 -0.4749 38.8277 99.7848) translate(49.185,38.308499999999995) scale(0.5980444444444444)" style="transform:matrix(-0.284011, -0.526339, 0.526339, -0.284011, 49.1851, 38.3044);animation-play-state:paused" ><g data-icon="" transform="scale(0.9)" style="transform:matrix(0.9, 0, 0, 0.9, 0, 0);animation-play-state:paused" ><use xlink:href="#id-0.5792736874971864" x="-50" y="-50" style="animation-play-state:paused" ></use></g></g></g></g>
<g data-idx="13" data-dup="" dx="-128" dy="-128" style="transform-origin:-89.5086px 14.2299px;animation-timing-function:linear;animation-play-state:paused;animation-name:static-37ff0dde-6a6a-4fe4-9360-f83616e138d8;animation-iteration-count:infinite;animation-fill-mode:forwards;animation-duration:1s" ><g transform="translate(-128,-128)" style="transform:matrix(1, 0, 0, 1, -128, -128);animation-play-state:paused" ><g transform="matrix(0.7381 -0.6747 0.6747 0.7381 -85.9069 63.1885) translate(38.434,142.243) scale(0.607688888888889)" style="transform:matrix(0.448535, -0.410008, 0.410008, 0.448535, 38.4326, 142.247);animation-play-state:paused" ><g data-icon="" transform="scale(0.9)" style="transform:matrix(0.9, 0, 0, 0.9, 0, 0);animation-play-state:paused" ><use xlink:href="#id-0.5792736874971864" x="-50" y="-50" style="animation-play-state:paused" ></use></g></g></g></g>
<g data-idx="13" data-dup="" dx="128" dy="-128" style="transform-origin:166.491px 14.2299px;animation-timing-function:linear;animation-play-state:paused;animation-name:static-37ff0dde-6a6a-4fe4-9360-f83616e138d8;animation-iteration-count:infinite;animation-fill-mode:forwards;animation-duration:1s" ><g transform="translate(128,-128)" style="transform:matrix(1, 0, 0, 1, 128, -128);animation-play-state:paused" ><g transform="matrix(0.7381 -0.6747 0.6747 0.7381 -85.9069 63.1885) translate(38.434,142.243) scale(0.607688888888889)" style="transform:matrix(0.448535, -0.410008, 0.410008, 0.448535, 38.4326, 142.247);animation-play-state:paused" ><g data-icon="" transform="scale(0.9)" style="transform:matrix(0.9, 0, 0, 0.9, 0, 0);animation-play-state:paused" ><use xlink:href="#id-0.5792736874971864" x="-50" y="-50" style="animation-play-state:paused" ></use></g></g></g></g>
<g data-idx="0" data-dup="" dx="-128" dy="128" style="transform-origin:-43.697px 222.765px;animation-timing-function:linear;animation-play-state:paused;animation-name:static-37ff0dde-6a6a-4fe4-9360-f83616e138d8;animation-iteration-count:infinite;animation-fill-mode:forwards;animation-duration:1s" ><g transform="translate(-128,128)" style="transform:matrix(1, 0, 0, 1, -128, 128);animation-play-state:paused" ><polygon fill="#B3B4B4" points="95.261,98.953 73.345,96.2 74.22,90.577 94.461,93.724 " data-fill="c6" style="fill:rgb(41, 48, 69);animation-play-state:paused" ></polygon></g></g>
<g data-idx="0" data-dup="" dx="128" dy="128" style="transform-origin:212.303px 222.765px;animation-timing-function:linear;animation-play-state:paused;animation-name:static-37ff0dde-6a6a-4fe4-9360-f83616e138d8;animation-iteration-count:infinite;animation-fill-mode:forwards;animation-duration:1s" ><g transform="translate(128,128)" style="transform:matrix(1, 0, 0, 1, 128, 128);animation-play-state:paused" ><polygon fill="#B3B4B4" points="95.261,98.953 73.345,96.2 74.22,90.577 94.461,93.724 " data-fill="c6" style="fill:rgb(41, 48, 69);animation-play-state:paused" ></polygon></g></g>
<g data-idx="1" data-dup="t" dx="-128" dy="128" style="transform-origin:-89.899px 341.472px;animation-timing-function:linear;animation-play-state:paused;animation-name:static-37ff0dde-6a6a-4fe4-9360-f83616e138d8;animation-iteration-count:infinite;animation-fill-mode:forwards;animation-duration:1s" ><g transform="translate(-128,128)" style="transform:matrix(1, 0, 0, 1, -128, 128);animation-play-state:paused" ><path fill="#B3B4B4" d="M38.105,224.49c-0.05,0-0.099,0-0.149-0.001c-2.943-0.039-5.694-1.221-7.748-3.33
	c-4.239-4.352-4.147-11.342,0.205-15.581c2.108-2.054,4.884-3.157,7.833-3.124c2.943,0.039,5.694,1.222,7.748,3.33
	c4.239,4.352,4.147,11.342-0.205,15.58C43.716,223.383,40.992,224.49,38.105,224.49z M38.098,207.494
	c-1.567,0-3.044,0.6-4.169,1.695c-2.361,2.3-2.411,6.092-0.111,8.453c1.114,1.144,2.607,1.785,4.204,1.806
	c1.609,0.014,3.106-0.581,4.25-1.695c2.361-2.3,2.411-6.092,0.112-8.453l0,0c-1.114-1.144-2.607-1.785-4.204-1.806
	C38.152,207.494,38.125,207.494,38.098,207.494z" data-fill="c6" style="fill:rgb(41, 48, 69);animation-play-state:paused" ></path></g></g>
<g data-idx="1" data-dup="t" dx="128" dy="128" style="transform-origin:166.101px 341.472px;animation-timing-function:linear;animation-play-state:paused;animation-name:static-37ff0dde-6a6a-4fe4-9360-f83616e138d8;animation-iteration-count:infinite;animation-fill-mode:forwards;animation-duration:1s" ><g transform="translate(128,128)" style="transform:matrix(1, 0, 0, 1, 128, 128);animation-play-state:paused" ><path fill="#B3B4B4" d="M38.105,224.49c-0.05,0-0.099,0-0.149-0.001c-2.943-0.039-5.694-1.221-7.748-3.33
	c-4.239-4.352-4.147-11.342,0.205-15.581c2.108-2.054,4.884-3.157,7.833-3.124c2.943,0.039,5.694,1.222,7.748,3.33
	c4.239,4.352,4.147,11.342-0.205,15.58C43.716,223.383,40.992,224.49,38.105,224.49z M38.098,207.494
	c-1.567,0-3.044,0.6-4.169,1.695c-2.361,2.3-2.411,6.092-0.111,8.453c1.114,1.144,2.607,1.785,4.204,1.806
	c1.609,0.014,3.106-0.581,4.25-1.695c2.361-2.3,2.411-6.092,0.112-8.453l0,0c-1.114-1.144-2.607-1.785-4.204-1.806
	C38.152,207.494,38.125,207.494,38.098,207.494z" data-fill="c6" style="fill:rgb(41, 48, 69);animation-play-state:paused" ></path></g></g>
<g data-idx="2" data-dup="" dx="-128" dy="128" style="transform-origin:106.49px 175.501px;animation-timing-function:linear;animation-play-state:paused;animation-name:static-37ff0dde-6a6a-4fe4-9360-f83616e138d8;animation-iteration-count:infinite;animation-fill-mode:forwards;animation-duration:1s" ><g transform="translate(-128,128)" style="transform:matrix(1, 0, 0, 1, -128, 128);animation-play-state:paused" ><ellipse transform="matrix(0.7249 -0.6888 0.6888 0.7249 31.7828 174.5914)" fill="#B3B4B4" cx="234.5" cy="47.5" rx="4.4" ry="4.4" data-fill="c6" style="transform:matrix(0.7249, -0.6888, 0.6888, 0.7249, 31.7828, 174.591);fill:rgb(41, 48, 69);animation-play-state:paused" ></ellipse></g></g>
<g data-idx="2" data-dup="" dx="128" dy="128" style="transform-origin:362.49px 175.501px;animation-timing-function:linear;animation-play-state:paused;animation-name:static-37ff0dde-6a6a-4fe4-9360-f83616e138d8;animation-iteration-count:infinite;animation-fill-mode:forwards;animation-duration:1s" ><g transform="translate(128,128)" style="transform:matrix(1, 0, 0, 1, 128, 128);animation-play-state:paused" ><ellipse transform="matrix(0.7249 -0.6888 0.6888 0.7249 31.7828 174.5914)" fill="#B3B4B4" cx="234.5" cy="47.5" rx="4.4" ry="4.4" data-fill="c6" style="transform:matrix(0.7249, -0.6888, 0.6888, 0.7249, 31.7828, 174.591);fill:rgb(41, 48, 69);animation-play-state:paused" ></ellipse></g></g>
<g data-idx="3" data-dup="" dx="-128" dy="128" style="transform-origin:28.5333px 274.653px;animation-timing-function:linear;animation-play-state:paused;animation-name:static-37ff0dde-6a6a-4fe4-9360-f83616e138d8;animation-iteration-count:infinite;animation-fill-mode:forwards;animation-duration:1s" ><g transform="translate(-128,128)" style="transform:matrix(1, 0, 0, 1, -128, 128);animation-play-state:paused" ><path fill="#B3B4B4" d="M156.299,159.176l-1.714-5.053c3.929-1.333,6.042-5.614,4.709-9.543c-0.645-1.903-1.994-3.442-3.796-4.331
	c-1.803-0.89-3.844-1.024-5.747-0.378l-1.714-5.053c3.254-1.103,6.741-0.874,9.822,0.646c3.08,1.52,5.385,4.149,6.488,7.402
	C166.625,149.582,163.015,156.898,156.299,159.176z" data-fill="c6" style="fill:rgb(41, 48, 69);animation-play-state:paused" ></path></g></g>
<g data-idx="3" data-dup="" dx="128" dy="128" style="transform-origin:284.533px 274.653px;animation-timing-function:linear;animation-play-state:paused;animation-name:static-37ff0dde-6a6a-4fe4-9360-f83616e138d8;animation-iteration-count:infinite;animation-fill-mode:forwards;animation-duration:1s" ><g transform="translate(128,128)" style="transform:matrix(1, 0, 0, 1, 128, 128);animation-play-state:paused" ><path fill="#B3B4B4" d="M156.299,159.176l-1.714-5.053c3.929-1.333,6.042-5.614,4.709-9.543c-0.645-1.903-1.994-3.442-3.796-4.331
	c-1.803-0.89-3.844-1.024-5.747-0.378l-1.714-5.053c3.254-1.103,6.741-0.874,9.822,0.646c3.08,1.52,5.385,4.149,6.488,7.402
	C166.625,149.582,163.015,156.898,156.299,159.176z" data-fill="c6" style="fill:rgb(41, 48, 69);animation-play-state:paused" ></path></g></g>
<g data-idx="4" data-dup="" dx="-128" dy="128" style="transform-origin:-25.5058px 277.495px;animation-timing-function:linear;animation-play-state:paused;animation-name:static-37ff0dde-6a6a-4fe4-9360-f83616e138d8;animation-iteration-count:infinite;animation-fill-mode:forwards;animation-duration:1s" ><g transform="translate(-128,128)" style="transform:matrix(1, 0, 0, 1, -128, 128);animation-play-state:paused" ><ellipse transform="matrix(0.7249 -0.6888 0.6888 0.7249 -74.7837 111.7244)" fill="#B3B4B4" cx="102.5" cy="149.5" rx="4.4" ry="4.4" data-fill="c6" style="transform:matrix(0.7249, -0.6888, 0.6888, 0.7249, -74.7837, 111.724);fill:rgb(41, 48, 69);animation-play-state:paused" ></ellipse></g></g>
<g data-idx="4" data-dup="" dx="128" dy="128" style="transform-origin:230.494px 277.495px;animation-timing-function:linear;animation-play-state:paused;animation-name:static-37ff0dde-6a6a-4fe4-9360-f83616e138d8;animation-iteration-count:infinite;animation-fill-mode:forwards;animation-duration:1s" ><g transform="translate(128,128)" style="transform:matrix(1, 0, 0, 1, 128, 128);animation-play-state:paused" ><ellipse transform="matrix(0.7249 -0.6888 0.6888 0.7249 -74.7837 111.7244)" fill="#B3B4B4" cx="102.5" cy="149.5" rx="4.4" ry="4.4" data-fill="c6" style="transform:matrix(0.7249, -0.6888, 0.6888, 0.7249, -74.7837, 111.724);fill:rgb(41, 48, 69);animation-play-state:paused" ></ellipse></g></g>
<g data-idx="5" data-dup="" dx="-128" dy="128" style="transform-origin:114.171px 372.691px;animation-timing-function:linear;animation-play-state:paused;animation-name:static-37ff0dde-6a6a-4fe4-9360-f83616e138d8;animation-iteration-count:infinite;animation-fill-mode:forwards;animation-duration:1s" ><g transform="translate(-128,128)" style="transform:matrix(1, 0, 0, 1, -128, 128);animation-play-state:paused" ><polygon fill="#B3B4B4" points="231.486,249.178 247.065,235.877 252.857,238.786 235.18,253.505 " data-fill="c6" style="fill:rgb(41, 48, 69);animation-play-state:paused" ></polygon></g></g>
<g data-idx="5" data-dup="" dx="128" dy="128" style="transform-origin:370.172px 372.691px;animation-timing-function:linear;animation-play-state:paused;animation-name:static-37ff0dde-6a6a-4fe4-9360-f83616e138d8;animation-iteration-count:infinite;animation-fill-mode:forwards;animation-duration:1s" ><g transform="translate(128,128)" style="transform:matrix(1, 0, 0, 1, 128, 128);animation-play-state:paused" ><polygon fill="#B3B4B4" points="231.486,249.178 247.065,235.877 252.857,238.786 235.18,253.505 " data-fill="c6" style="fill:rgb(41, 48, 69);animation-play-state:paused" ></polygon></g></g>
<g data-idx="6" data-dup="" dx="-128" dy="128" style="transform-origin:-20.197px 159.068px;animation-timing-function:linear;animation-play-state:paused;animation-name:static-37ff0dde-6a6a-4fe4-9360-f83616e138d8;animation-iteration-count:infinite;animation-fill-mode:forwards;animation-duration:1s" ><g transform="translate(-128,128)" style="transform:matrix(1, 0, 0, 1, -128, 128);animation-play-state:paused" ><polygon fill="#B3B4B4" points="115.367,21.954 103.961,43.014 100.239,36.891 110.431,19.123 " data-fill="c6" style="fill:rgb(41, 48, 69);animation-play-state:paused" ></polygon></g></g>
<g data-idx="6" data-dup="" dx="128" dy="128" style="transform-origin:235.803px 159.068px;animation-timing-function:linear;animation-play-state:paused;animation-name:static-37ff0dde-6a6a-4fe4-9360-f83616e138d8;animation-iteration-count:infinite;animation-fill-mode:forwards;animation-duration:1s" ><g transform="translate(128,128)" style="transform:matrix(1, 0, 0, 1, 128, 128);animation-play-state:paused" ><polygon fill="#B3B4B4" points="115.367,21.954 103.961,43.014 100.239,36.891 110.431,19.123 " data-fill="c6" style="fill:rgb(41, 48, 69);animation-play-state:paused" ></polygon></g></g>
<g data-idx="7" data-dup="" dx="-128" dy="128" style="transform-origin:94.1px 248.85px;animation-timing-function:linear;animation-play-state:paused;animation-name:static-37ff0dde-6a6a-4fe4-9360-f83616e138d8;animation-iteration-count:infinite;animation-fill-mode:forwards;animation-duration:1s" ><g transform="translate(-128,128)" style="transform:matrix(1, 0, 0, 1, -128, 128);animation-play-state:paused" ><path fill="#B3B4B4" d="M222.104,130.57c-0.044,0-0.088,0-0.132-0.001c-2.596-0.034-5.024-1.077-6.835-2.937
	c-3.74-3.84-3.659-10.006,0.181-13.746c1.86-1.812,4.308-2.785,6.91-2.756c2.596,0.034,5.024,1.078,6.835,2.938
	c3.74,3.839,3.659,10.006-0.181,13.745C227.054,129.594,224.651,130.57,222.104,130.57z M222.099,115.576
	c-1.382,0-2.686,0.53-3.678,1.496c-2.083,2.029-2.127,5.374-0.098,7.458c0.983,1.009,2.3,1.575,3.708,1.594
	c1.42,0.013,2.74-0.512,3.749-1.495c2.083-2.029,2.127-5.374,0.098-7.457l0,0c-0.983-1.009-2.3-1.575-3.708-1.594
	C222.146,115.576,222.122,115.576,222.099,115.576z" data-fill="c6" style="fill:rgb(41, 48, 69);animation-play-state:paused" ></path></g></g>
<g data-idx="7" data-dup="" dx="128" dy="128" style="transform-origin:350.1px 248.85px;animation-timing-function:linear;animation-play-state:paused;animation-name:static-37ff0dde-6a6a-4fe4-9360-f83616e138d8;animation-iteration-count:infinite;animation-fill-mode:forwards;animation-duration:1s" ><g transform="translate(128,128)" style="transform:matrix(1, 0, 0, 1, 128, 128);animation-play-state:paused" ><path fill="#B3B4B4" d="M222.104,130.57c-0.044,0-0.088,0-0.132-0.001c-2.596-0.034-5.024-1.077-6.835-2.937
	c-3.74-3.84-3.659-10.006,0.181-13.746c1.86-1.812,4.308-2.785,6.91-2.756c2.596,0.034,5.024,1.078,6.835,2.938
	c3.74,3.839,3.659,10.006-0.181,13.745C227.054,129.594,224.651,130.57,222.104,130.57z M222.099,115.576
	c-1.382,0-2.686,0.53-3.678,1.496c-2.083,2.029-2.127,5.374-0.098,7.458c0.983,1.009,2.3,1.575,3.708,1.594
	c1.42,0.013,2.74-0.512,3.749-1.495c2.083-2.029,2.127-5.374,0.098-7.457l0,0c-0.983-1.009-2.3-1.575-3.708-1.594
	C222.146,115.576,222.122,115.576,222.099,115.576z" data-fill="c6" style="fill:rgb(41, 48, 69);animation-play-state:paused" ></path></g></g>
<g data-idx="8" data-dup="" dx="-128" dy="128" style="transform-origin:46.6647px 136.842px;animation-timing-function:linear;animation-play-state:paused;animation-name:static-37ff0dde-6a6a-4fe4-9360-f83616e138d8;animation-iteration-count:infinite;animation-fill-mode:forwards;animation-duration:1s" ><g transform="translate(-128,128)" style="transform:matrix(1, 0, 0, 1, -128, 128);animation-play-state:paused" ><path fill="#B3B4B4" d="M184.509,10.022l-4.015,1.058c-0.822-3.122-4.032-4.993-7.154-4.17c-1.512,0.398-2.779,1.362-3.567,2.713
	c-0.788,1.352-1.003,2.929-0.603,4.44l-4.015,1.058c-0.681-2.585-0.315-5.28,1.031-7.589c1.346-2.309,3.511-3.956,6.096-4.637
	C177.619,1.489,183.103,4.687,184.509,10.022z" data-fill="c6" style="fill:rgb(41, 48, 69);animation-play-state:paused" ></path></g></g>
<g data-idx="8" data-dup="" dx="128" dy="128" style="transform-origin:302.665px 136.842px;animation-timing-function:linear;animation-play-state:paused;animation-name:static-37ff0dde-6a6a-4fe4-9360-f83616e138d8;animation-iteration-count:infinite;animation-fill-mode:forwards;animation-duration:1s" ><g transform="translate(128,128)" style="transform:matrix(1, 0, 0, 1, 128, 128);animation-play-state:paused" ><path fill="#B3B4B4" d="M184.509,10.022l-4.015,1.058c-0.822-3.122-4.032-4.993-7.154-4.17c-1.512,0.398-2.779,1.362-3.567,2.713
	c-0.788,1.352-1.003,2.929-0.603,4.44l-4.015,1.058c-0.681-2.585-0.315-5.28,1.031-7.589c1.346-2.309,3.511-3.956,6.096-4.637
	C177.619,1.489,183.103,4.687,184.509,10.022z" data-fill="c6" style="fill:rgb(41, 48, 69);animation-play-state:paused" ></path></g></g>
<g data-idx="9" data-dup="t" dx="-128" dy="128" style="transform-origin:-6.86763px 350.438px;animation-timing-function:linear;animation-play-state:paused;animation-name:static-37ff0dde-6a6a-4fe4-9360-f83616e138d8;animation-iteration-count:infinite;animation-fill-mode:forwards;animation-duration:1s" ><g transform="translate(-128,128)" style="transform:matrix(1, 0, 0, 1, -128, 128);animation-play-state:paused" ><g transform="matrix(0.9912 0.1325 -0.1325 0.9912 30.542 -14.083) translate(121.067,222.398) scale(0.6786666666666666)" style="transform:matrix(0.672694, 0.0899233, -0.0899233, 0.672694, 121.076, 222.399);animation-play-state:paused" ><g data-icon="" transform="scale(0.9)" style="transform:matrix(0.9, 0, 0, 0.9, 0, 0);animation-play-state:paused" ><use xlink:href="#id-0.5792736874971864" x="-50" y="-50" style="animation-play-state:paused" ></use></g></g></g></g>
<g data-idx="9" data-dup="t" dx="128" dy="128" style="transform-origin:249.132px 350.438px;animation-timing-function:linear;animation-play-state:paused;animation-name:static-37ff0dde-6a6a-4fe4-9360-f83616e138d8;animation-iteration-count:infinite;animation-fill-mode:forwards;animation-duration:1s" ><g transform="translate(128,128)" style="transform:matrix(1, 0, 0, 1, 128, 128);animation-play-state:paused" ><g transform="matrix(0.9912 0.1325 -0.1325 0.9912 30.542 -14.083) translate(121.067,222.398) scale(0.6786666666666666)" style="transform:matrix(0.672694, 0.0899233, -0.0899233, 0.672694, 121.076, 222.399);animation-play-state:paused" ><g data-icon="" transform="scale(0.9)" style="transform:matrix(0.9, 0, 0, 0.9, 0, 0);animation-play-state:paused" ><use xlink:href="#id-0.5792736874971864" x="-50" y="-50" style="animation-play-state:paused" ></use></g></g></g></g>
<g data-idx="10" data-dup="" dx="-128" dy="128" style="transform-origin:33.2334px 203.216px;animation-timing-function:linear;animation-play-state:paused;animation-name:static-37ff0dde-6a6a-4fe4-9360-f83616e138d8;animation-iteration-count:infinite;animation-fill-mode:forwards;animation-duration:1s" ><g transform="translate(-128,128)" style="transform:matrix(1, 0, 0, 1, -128, 128);animation-play-state:paused" ><g transform="matrix(-0.0456 0.999 -0.999 -0.0456 243.7065 -82.5047) translate(161.268,75.17099999999999) scale(0.47706666666666664)" style="transform:matrix(-0.0217542, 0.47659, -0.47659, -0.0217542, 161.257, 75.1742);animation-play-state:paused" ><g data-icon="" transform="scale(0.9)" style="transform:matrix(0.9, 0, 0, 0.9, 0, 0);animation-play-state:paused" ><use xlink:href="#id-0.5792736874971864" x="-50" y="-50" style="animation-play-state:paused" ></use></g></g></g></g>
<g data-idx="10" data-dup="" dx="128" dy="128" style="transform-origin:289.233px 203.216px;animation-timing-function:linear;animation-play-state:paused;animation-name:static-37ff0dde-6a6a-4fe4-9360-f83616e138d8;animation-iteration-count:infinite;animation-fill-mode:forwards;animation-duration:1s" ><g transform="translate(128,128)" style="transform:matrix(1, 0, 0, 1, 128, 128);animation-play-state:paused" ><g transform="matrix(-0.0456 0.999 -0.999 -0.0456 243.7065 -82.5047) translate(161.268,75.17099999999999) scale(0.47706666666666664)" style="transform:matrix(-0.0217542, 0.47659, -0.47659, -0.0217542, 161.257, 75.1742);animation-play-state:paused" ><g data-icon="" transform="scale(0.9)" style="transform:matrix(0.9, 0, 0, 0.9, 0, 0);animation-play-state:paused" ><use xlink:href="#id-0.5792736874971864" x="-50" y="-50" style="animation-play-state:paused" ></use></g></g></g></g>
<g data-idx="11" data-dup="" dx="-128" dy="128" style="transform-origin:87.3549px 321.058px;animation-timing-function:linear;animation-play-state:paused;animation-name:static-37ff0dde-6a6a-4fe4-9360-f83616e138d8;animation-iteration-count:infinite;animation-fill-mode:forwards;animation-duration:1s" ><g transform="translate(-128,128)" style="transform:matrix(1, 0, 0, 1, -128, 128);animation-play-state:paused" ><g transform="matrix(0.5905 -0.8071 0.8071 0.5905 -67.6584 252.8308) translate(215.293,193.0815) scale(0.5214666666666667)" style="transform:matrix(0.307926, -0.420876, 0.420876, 0.307926, 215.308, 193.082);animation-play-state:paused" ><g data-icon="" transform="scale(0.9)" style="transform:matrix(0.9, 0, 0, 0.9, 0, 0);animation-play-state:paused" ><use xlink:href="#id-0.5792736874971864" x="-50" y="-50" style="animation-play-state:paused" ></use></g></g></g></g>
<g data-idx="11" data-dup="" dx="128" dy="128" style="transform-origin:343.355px 321.058px;animation-timing-function:linear;animation-play-state:paused;animation-name:static-37ff0dde-6a6a-4fe4-9360-f83616e138d8;animation-iteration-count:infinite;animation-fill-mode:forwards;animation-duration:1s" ><g transform="translate(128,128)" style="transform:matrix(1, 0, 0, 1, 128, 128);animation-play-state:paused" ><g transform="matrix(0.5905 -0.8071 0.8071 0.5905 -67.6584 252.8308) translate(215.293,193.0815) scale(0.5214666666666667)" style="transform:matrix(0.307926, -0.420876, 0.420876, 0.307926, 215.308, 193.082);animation-play-state:paused" ><g data-icon="" transform="scale(0.9)" style="transform:matrix(0.9, 0, 0, 0.9, 0, 0);animation-play-state:paused" ><use xlink:href="#id-0.5792736874971864" x="-50" y="-50" style="animation-play-state:paused" ></use></g></g></g></g>
<g data-idx="12" data-dup="" dx="-128" dy="128" style="transform-origin:-78.8168px 166.244px;animation-timing-function:linear;animation-play-state:paused;animation-name:static-37ff0dde-6a6a-4fe4-9360-f83616e138d8;animation-iteration-count:infinite;animation-fill-mode:forwards;animation-duration:1s" ><g transform="translate(-128,128)" style="transform:matrix(1, 0, 0, 1, -128, 128);animation-play-state:paused" ><g transform="matrix(-0.4749 -0.8801 0.8801 -0.4749 38.8277 99.7848) translate(49.185,38.308499999999995) scale(0.5980444444444444)" style="transform:matrix(-0.284011, -0.526339, 0.526339, -0.284011, 49.1851, 38.3044);animation-play-state:paused" ><g data-icon="" transform="scale(0.9)" style="transform:matrix(0.9, 0, 0, 0.9, 0, 0);animation-play-state:paused" ><use xlink:href="#id-0.5792736874971864" x="-50" y="-50" style="animation-play-state:paused" ></use></g></g></g></g>
<g data-idx="12" data-dup="" dx="128" dy="128" style="transform-origin:177.183px 166.244px;animation-timing-function:linear;animation-play-state:paused;animation-name:static-37ff0dde-6a6a-4fe4-9360-f83616e138d8;animation-iteration-count:infinite;animation-fill-mode:forwards;animation-duration:1s" ><g transform="translate(128,128)" style="transform:matrix(1, 0, 0, 1, 128, 128);animation-play-state:paused" ><g transform="matrix(-0.4749 -0.8801 0.8801 -0.4749 38.8277 99.7848) translate(49.185,38.308499999999995) scale(0.5980444444444444)" style="transform:matrix(-0.284011, -0.526339, 0.526339, -0.284011, 49.1851, 38.3044);animation-play-state:paused" ><g data-icon="" transform="scale(0.9)" style="transform:matrix(0.9, 0, 0, 0.9, 0, 0);animation-play-state:paused" ><use xlink:href="#id-0.5792736874971864" x="-50" y="-50" style="animation-play-state:paused" ></use></g></g></g></g>
<g data-idx="13" data-dup="" dx="-128" dy="128" style="transform-origin:-89.5086px 270.23px;animation-timing-function:linear;animation-play-state:paused;animation-name:static-37ff0dde-6a6a-4fe4-9360-f83616e138d8;animation-iteration-count:infinite;animation-fill-mode:forwards;animation-duration:1s" ><g transform="translate(-128,128)" style="transform:matrix(1, 0, 0, 1, -128, 128);animation-play-state:paused" ><g transform="matrix(0.7381 -0.6747 0.6747 0.7381 -85.9069 63.1885) translate(38.434,142.243) scale(0.607688888888889)" style="transform:matrix(0.448535, -0.410008, 0.410008, 0.448535, 38.4326, 142.247);animation-play-state:paused" ><g data-icon="" transform="scale(0.9)" style="transform:matrix(0.9, 0, 0, 0.9, 0, 0);animation-play-state:paused" ><use xlink:href="#id-0.5792736874971864" x="-50" y="-50" style="animation-play-state:paused" ></use></g></g></g></g>
<g data-idx="13" data-dup="" dx="128" dy="128" style="transform-origin:166.491px 270.23px;animation-timing-function:linear;animation-play-state:paused;animation-name:static-37ff0dde-6a6a-4fe4-9360-f83616e138d8;animation-iteration-count:infinite;animation-fill-mode:forwards;animation-duration:1s" ><g transform="translate(128,128)" style="transform:matrix(1, 0, 0, 1, 128, 128);animation-play-state:paused" ><g transform="matrix(0.7381 -0.6747 0.6747 0.7381 -85.9069 63.1885) translate(38.434,142.243) scale(0.607688888888889)" style="transform:matrix(0.448535, -0.410008, 0.410008, 0.448535, 38.4326, 142.247);animation-play-state:paused" ><g data-icon="" transform="scale(0.9)" style="transform:matrix(0.9, 0, 0, 0.9, 0, 0);animation-play-state:paused" ><use xlink:href="#id-0.5792736874971864" x="-50" y="-50" style="animation-play-state:paused" ></use></g></g></g></g></g></svg>